<svg width="390" height="844" viewBox="0 0 390 844" fill="none" xmlns="http://www.w3.org/2000/svg">
<rect width="390" height="844" fill="white"/>
<path d="M0 0H390V176C390 181.523 385.523 186 380 186H10C4.47715 186 0 181.523 0 176V0Z" fill="url(#paint0_linear_37_1671)"/>
<path d="M37 28H25.83L30.71 23.12C31.1 22.73 31.1 22.09 30.71 21.7C30.6175 21.6073 30.5076 21.5338 30.3867 21.4836C30.2657 21.4334 30.136 21.4076 30.005 21.4076C29.8741 21.4076 29.7444 21.4334 29.6234 21.4836C29.5024 21.5338 29.3926 21.6073 29.3 21.7L22.71 28.29C22.6173 28.3825 22.5438 28.4924 22.4936 28.6134C22.4434 28.7344 22.4176 28.864 22.4176 28.995C22.4176 29.126 22.4434 29.2557 22.4936 29.3766C22.5438 29.4976 22.6173 29.6075 22.71 29.7L29.3 36.29C29.3926 36.3826 29.5025 36.456 29.6235 36.5061C29.7445 36.5562 29.8741 36.582 30.005 36.582C30.136 36.582 30.2656 36.5562 30.3866 36.5061C30.5076 36.456 30.6175 36.3826 30.71 36.29C30.8026 36.1974 30.8761 36.0875 30.9262 35.9665C30.9763 35.8456 31.0021 35.7159 31.0021 35.585C31.0021 35.4541 30.9763 35.3244 30.9262 35.2035C30.8761 35.0825 30.8026 34.9726 30.71 34.88L25.83 30H37C37.55 30 38 29.55 38 29C38 28.45 37.55 28 37 28Z" fill="white" fill-opacity="0.79"/>
<path d="M50.8139 33V32.3991L55.6591 24.9886H50.7884V24.2727H56.6094V24.8736L51.7599 32.2841H56.652V33H50.8139ZM62.5785 30.4986V26.4545H63.337V33H62.5785V31.9134H62.5188C62.3654 32.2486 62.1225 32.5284 61.7901 32.7528C61.4577 32.9744 61.0515 33.0852 60.5714 33.0852C60.1538 33.0852 59.783 32.9943 59.4592 32.8125C59.1353 32.6278 58.881 32.358 58.6964 32.0028C58.5117 31.6477 58.4194 31.2116 58.4194 30.6946V26.4545H59.1779V30.6477C59.1779 31.1591 59.3285 31.571 59.6296 31.8835C59.9308 32.1932 60.3171 32.348 60.7887 32.348C61.0842 32.348 61.3683 32.277 61.641 32.1349C61.9137 31.9929 62.1381 31.7855 62.3143 31.5128C62.4904 31.2372 62.5785 30.8991 62.5785 30.4986ZM65.3452 33V26.4545H66.0824V27.4602H66.1378C66.2685 27.1307 66.4957 26.8651 66.8196 26.6634C67.1463 26.4588 67.5156 26.3565 67.9276 26.3565C67.9901 26.3565 68.0597 26.358 68.1364 26.3608C68.2131 26.3636 68.277 26.3665 68.3281 26.3693V27.1406C68.294 27.1349 68.2344 27.1264 68.1491 27.1151C68.0639 27.1037 67.9716 27.098 67.8722 27.098C67.5313 27.098 67.2273 27.1705 66.9602 27.3153C66.696 27.4574 66.4872 27.6548 66.3338 27.9077C66.1804 28.1605 66.1037 28.4489 66.1037 28.7727V33H65.3452ZM73.7816 30.4986V26.4545H74.5401V33H73.7816V31.9134H73.7219C73.5685 32.2486 73.3256 32.5284 72.9933 32.7528C72.6609 32.9744 72.2546 33.0852 71.7745 33.0852C71.3569 33.0852 70.9862 32.9943 70.6623 32.8125C70.3384 32.6278 70.0842 32.358 69.8995 32.0028C69.7148 31.6477 69.6225 31.2116 69.6225 30.6946V26.4545H70.381V30.6477C70.381 31.1591 70.5316 31.571 70.8327 31.8835C71.1339 32.1932 71.5202 32.348 71.9918 32.348C72.2873 32.348 72.5714 32.277 72.8441 32.1349C73.1168 31.9929 73.3413 31.7855 73.5174 31.5128C73.6935 31.2372 73.7816 30.8991 73.7816 30.4986ZM70.9947 25.3295C70.8498 25.3295 70.7219 25.2756 70.6112 25.1676C70.5032 25.0568 70.4492 24.929 70.4492 24.7841C70.4492 24.6278 70.5032 24.4986 70.6112 24.3963C70.7219 24.2912 70.8498 24.2386 70.9947 24.2386C71.1509 24.2386 71.2802 24.2912 71.3825 24.3963C71.4876 24.4986 71.5401 24.6278 71.5401 24.7841C71.5401 24.929 71.4876 25.0568 71.3825 25.1676C71.2802 25.2756 71.1509 25.3295 70.9947 25.3295ZM73.1765 25.3295C73.0316 25.3295 72.9038 25.2756 72.793 25.1676C72.685 25.0568 72.631 24.929 72.631 24.7841C72.631 24.6278 72.685 24.4986 72.793 24.3963C72.9038 24.2912 73.0316 24.2386 73.1765 24.2386C73.3327 24.2386 73.462 24.2912 73.5643 24.3963C73.6694 24.4986 73.7219 24.6278 73.7219 24.7841C73.7219 24.929 73.6694 25.0568 73.5643 25.1676C73.462 25.2756 73.3327 25.3295 73.1765 25.3295ZM79.1051 33.1364C78.5199 33.1364 78.0099 32.9901 77.5753 32.6974C77.1435 32.4048 76.8082 32.0043 76.5696 31.4957C76.331 30.9872 76.2116 30.4077 76.2116 29.7571C76.2116 29.1009 76.3324 28.517 76.5739 28.0057C76.8182 27.4943 77.1563 27.0937 77.5881 26.804C78.0199 26.5114 78.5213 26.3651 79.0923 26.3651C79.5298 26.3651 79.9261 26.4503 80.2812 26.6207C80.6364 26.7884 80.929 27.0256 81.1591 27.3324C81.392 27.6364 81.5384 27.9915 81.598 28.3977H80.831C80.7514 28.0284 80.5597 27.7131 80.2557 27.4517C79.9545 27.1875 79.571 27.0554 79.1051 27.0554C78.6875 27.0554 78.3182 27.169 77.9972 27.3963C77.6761 27.6207 77.4247 27.9347 77.2429 28.3381C77.0639 28.7386 76.9744 29.2031 76.9744 29.7315C76.9744 30.2628 77.0625 30.733 77.2386 31.142C77.4148 31.5483 77.6619 31.8665 77.9801 32.0966C78.3011 32.3267 78.6761 32.4418 79.1051 32.4418C79.3949 32.4418 79.6591 32.3878 79.8977 32.2798C80.1392 32.169 80.3409 32.0128 80.5028 31.8111C80.6676 31.6094 80.7784 31.3693 80.8352 31.0909H81.6023C81.5455 31.4858 81.4048 31.8381 81.1804 32.1477C80.9588 32.4545 80.6705 32.696 80.3153 32.8722C79.9631 33.0483 79.5597 33.1364 79.1051 33.1364ZM83.9183 30.5284L83.9098 29.5355H84.0803L87.1484 26.4545H88.1072L85.0774 29.4886L85.0092 29.5014L83.9183 30.5284ZM83.228 33V24.2727H83.9865V33H83.228ZM87.3061 33L84.647 29.6378L85.1925 29.1136L88.2777 33H87.3061Z" fill="white" fill-opacity="0.8"/>
<path d="M33.7273 98.5455C33.5985 97.25 33.0265 96.2197 32.0114 95.4545C30.9962 94.6894 29.7197 94.3068 28.1818 94.3068C27.0985 94.3068 26.1439 94.4924 25.3182 94.8636C24.5 95.2348 23.8561 95.75 23.3864 96.4091C22.9242 97.0606 22.6932 97.803 22.6932 98.6364C22.6932 99.25 22.8258 99.7879 23.0909 100.25C23.3561 100.712 23.7121 101.11 24.1591 101.443C24.6136 101.769 25.1136 102.049 25.6591 102.284C26.2121 102.519 26.7689 102.716 27.3295 102.875L29.7841 103.58C30.5265 103.784 31.2689 104.045 32.0114 104.364C32.7538 104.682 33.4318 105.083 34.0455 105.568C34.6667 106.045 35.1629 106.633 35.5341 107.33C35.9129 108.019 36.1023 108.848 36.1023 109.818C36.1023 111.061 35.7803 112.178 35.1364 113.17C34.4924 114.163 33.5682 114.951 32.3636 115.534C31.1591 116.11 29.7159 116.398 28.0341 116.398C26.4508 116.398 25.0758 116.136 23.9091 115.614C22.7424 115.083 21.8258 114.352 21.1591 113.42C20.4924 112.489 20.1174 111.409 20.0341 110.182H22.2159C22.2917 111.098 22.5947 111.875 23.125 112.511C23.6553 113.148 24.3447 113.633 25.1932 113.966C26.0417 114.292 26.9886 114.455 28.0341 114.455C29.1932 114.455 30.2235 114.261 31.125 113.875C32.0341 113.481 32.7462 112.936 33.2614 112.239C33.7841 111.534 34.0455 110.716 34.0455 109.784C34.0455 108.996 33.8409 108.337 33.4318 107.807C33.0227 107.269 32.4508 106.818 31.7159 106.455C30.9886 106.091 30.1439 105.769 29.1818 105.489L26.3977 104.67C24.572 104.125 23.1553 103.371 22.1477 102.409C21.1402 101.447 20.6364 100.22 20.6364 98.7273C20.6364 97.4773 20.9697 96.3788 21.6364 95.4318C22.3106 94.4773 23.2197 93.7348 24.3636 93.2045C25.5152 92.6667 26.8068 92.3977 28.2386 92.3977C29.6856 92.3977 30.9659 92.6629 32.0795 93.1932C33.1932 93.7235 34.0758 94.4545 34.7273 95.3864C35.3864 96.3106 35.7386 97.3636 35.7841 98.5455H33.7273ZM47.6136 116.364C46.053 116.364 44.6932 115.973 43.5341 115.193C42.3826 114.413 41.4886 113.345 40.8523 111.989C40.2159 110.633 39.8977 109.087 39.8977 107.352C39.8977 105.602 40.2197 104.045 40.8636 102.682C41.5152 101.318 42.4167 100.25 43.5682 99.4773C44.7197 98.697 46.0568 98.3068 47.5795 98.3068C48.7462 98.3068 49.803 98.5341 50.75 98.9886C51.697 99.4356 52.4773 100.068 53.0909 100.886C53.7121 101.697 54.1023 102.644 54.2614 103.727H52.2159C52.0038 102.742 51.4924 101.902 50.6818 101.205C49.8788 100.5 48.8561 100.148 47.6136 100.148C46.5 100.148 45.5152 100.451 44.6591 101.057C43.803 101.655 43.1326 102.492 42.6477 103.568C42.1705 104.636 41.9318 105.875 41.9318 107.284C41.9318 108.701 42.1667 109.955 42.6364 111.045C43.1061 112.129 43.7652 112.977 44.6136 113.591C45.4697 114.205 46.4697 114.511 47.6136 114.511C48.3864 114.511 49.0909 114.367 49.7273 114.08C50.3712 113.784 50.9091 113.367 51.3409 112.83C51.7803 112.292 52.0758 111.652 52.2273 110.909H54.2727C54.1212 111.962 53.7462 112.902 53.1477 113.727C52.5568 114.545 51.7879 115.189 50.8409 115.659C49.9015 116.129 48.8258 116.364 47.6136 116.364ZM60.6307 105.091V116H58.608V92.7273H60.6307V101.284H60.8125C61.2216 100.383 61.8542 99.6629 62.7102 99.125C63.5739 98.5871 64.6648 98.3182 65.983 98.3182C67.1648 98.3182 68.2027 98.5606 69.0966 99.0455C69.9905 99.5303 70.6875 100.246 71.1875 101.193C71.6875 102.14 71.9375 103.307 71.9375 104.693V116H69.9034V104.818C69.9034 103.379 69.5019 102.246 68.6989 101.42C67.9034 100.587 66.8277 100.17 65.4716 100.17C64.5398 100.17 63.7102 100.367 62.983 100.761C62.2557 101.155 61.6799 101.723 61.2557 102.466C60.839 103.201 60.6307 104.076 60.6307 105.091ZM88.3551 109.33V98.5455H90.3778V116H88.3551V113.102H88.196C87.7869 113.996 87.1392 114.742 86.2528 115.341C85.3665 115.932 84.2831 116.227 83.0028 116.227C81.8892 116.227 80.9006 115.985 80.0369 115.5C79.1733 115.008 78.4953 114.288 78.0028 113.341C77.5104 112.394 77.2642 111.231 77.2642 109.852V98.5455H79.2869V109.727C79.2869 111.091 79.6884 112.189 80.4915 113.023C81.2945 113.848 82.3248 114.261 83.5824 114.261C84.3703 114.261 85.1278 114.072 85.8551 113.693C86.5824 113.314 87.1809 112.761 87.6506 112.034C88.1203 111.299 88.3551 110.398 88.3551 109.33ZM80.9233 95.5455C80.5369 95.5455 80.196 95.4015 79.9006 95.1136C79.6127 94.8182 79.4688 94.4773 79.4688 94.0909C79.4688 93.6742 79.6127 93.3295 79.9006 93.0568C80.196 92.7765 80.5369 92.6364 80.9233 92.6364C81.34 92.6364 81.6847 92.7765 81.9574 93.0568C82.2377 93.3295 82.3778 93.6742 82.3778 94.0909C82.3778 94.4773 82.2377 94.8182 81.9574 95.1136C81.6847 95.4015 81.34 95.5455 80.9233 95.5455ZM86.7415 95.5455C86.3551 95.5455 86.0142 95.4015 85.7188 95.1136C85.4309 94.8182 85.2869 94.4773 85.2869 94.0909C85.2869 93.6742 85.4309 93.3295 85.7188 93.0568C86.0142 92.7765 86.3551 92.6364 86.7415 92.6364C87.1581 92.6364 87.5028 92.7765 87.7756 93.0568C88.0559 93.3295 88.196 93.6742 88.196 94.0909C88.196 94.4773 88.0559 94.8182 87.7756 95.1136C87.5028 95.4015 87.1581 95.5455 86.7415 95.5455ZM97.7557 92.7273V116H95.733V92.7273H97.7557ZM110.165 116.364C108.536 116.364 107.127 115.985 105.938 115.227C104.748 114.462 103.828 113.405 103.176 112.057C102.532 110.701 102.21 109.14 102.21 107.375C102.21 105.617 102.532 104.057 103.176 102.693C103.828 101.322 104.725 100.25 105.869 99.4773C107.021 98.697 108.35 98.3068 109.858 98.3068C110.805 98.3068 111.718 98.4811 112.597 98.8295C113.475 99.1705 114.263 99.697 114.96 100.409C115.665 101.114 116.222 102.004 116.631 103.08C117.04 104.148 117.244 105.413 117.244 106.875V107.875H103.608V106.091H115.176C115.176 104.97 114.949 103.962 114.494 103.068C114.047 102.167 113.422 101.455 112.619 100.932C111.824 100.409 110.903 100.148 109.858 100.148C108.752 100.148 107.778 100.443 106.938 101.034C106.097 101.625 105.438 102.405 104.96 103.375C104.491 104.345 104.252 105.405 104.244 106.557V107.625C104.244 109.011 104.483 110.223 104.96 111.261C105.445 112.292 106.131 113.091 107.017 113.659C107.903 114.227 108.953 114.511 110.165 114.511C110.991 114.511 111.714 114.383 112.335 114.125C112.964 113.867 113.491 113.523 113.915 113.091C114.347 112.652 114.672 112.17 114.892 111.648L116.812 112.273C116.547 113.008 116.112 113.686 115.506 114.307C114.907 114.928 114.157 115.428 113.256 115.807C112.362 116.178 111.331 116.364 110.165 116.364ZM121.702 116V98.5455H123.668V101.227H123.815C124.164 100.348 124.77 99.6402 125.634 99.1023C126.505 98.5568 127.49 98.2841 128.588 98.2841C128.755 98.2841 128.94 98.2879 129.145 98.2955C129.349 98.303 129.52 98.3106 129.656 98.3182V100.375C129.565 100.36 129.406 100.337 129.179 100.307C128.952 100.277 128.705 100.261 128.44 100.261C127.531 100.261 126.721 100.455 126.009 100.841C125.304 101.22 124.747 101.746 124.338 102.42C123.929 103.095 123.724 103.864 123.724 104.727V116H121.702ZM137.585 105.818L137.71 100.511L133.176 103.284L132.335 101.807L137.017 99.2727L132.335 96.7386L133.176 95.2614L137.71 98.0341L137.585 92.7273H139.29L139.165 98.0341L143.699 95.2614L144.54 96.7386L139.858 99.2727L144.54 101.807L143.699 103.284L139.165 100.511L139.29 105.818H137.585ZM149.131 116V98.5455H151.165V116H149.131ZM150.165 95.5455C149.748 95.5455 149.392 95.4053 149.097 95.125C148.801 94.8371 148.653 94.4924 148.653 94.0909C148.653 93.6894 148.801 93.3485 149.097 93.0682C149.392 92.7803 149.748 92.6364 150.165 92.6364C150.581 92.6364 150.938 92.7803 151.233 93.0682C151.528 93.3485 151.676 93.6894 151.676 94.0909C151.676 94.4924 151.528 94.8371 151.233 95.125C150.938 95.4053 150.581 95.5455 150.165 95.5455ZM158.537 105.091V116H156.514V98.5455H158.48V101.284H158.662C159.071 100.39 159.707 99.6742 160.571 99.1364C161.442 98.5909 162.518 98.3182 163.798 98.3182C164.973 98.3182 166.003 98.5644 166.889 99.0568C167.783 99.5417 168.476 100.258 168.969 101.205C169.469 102.152 169.719 103.314 169.719 104.693V116H167.696V104.818C167.696 103.386 167.295 102.254 166.491 101.42C165.696 100.587 164.628 100.17 163.287 100.17C162.37 100.17 161.556 100.367 160.844 100.761C160.132 101.155 159.567 101.723 159.151 102.466C158.741 103.201 158.537 104.076 158.537 105.091ZM188.92 116.398C187.867 116.398 186.905 116.193 186.034 115.784C185.163 115.367 184.47 114.769 183.955 113.989C183.439 113.201 183.182 112.246 183.182 111.125C183.182 110.261 183.345 109.534 183.67 108.943C183.996 108.352 184.458 107.867 185.057 107.489C185.655 107.11 186.364 106.811 187.182 106.591C188 106.371 188.902 106.201 189.886 106.08C190.864 105.958 191.689 105.852 192.364 105.761C193.045 105.67 193.564 105.527 193.92 105.33C194.277 105.133 194.455 104.814 194.455 104.375V103.966C194.455 102.777 194.098 101.841 193.386 101.159C192.682 100.47 191.667 100.125 190.341 100.125C189.083 100.125 188.057 100.402 187.261 100.955C186.473 101.508 185.92 102.159 185.602 102.909L183.682 102.216C184.076 101.261 184.621 100.5 185.318 99.9318C186.015 99.3561 186.795 98.9432 187.659 98.6932C188.523 98.4356 189.398 98.3068 190.284 98.3068C190.951 98.3068 191.644 98.3939 192.364 98.5682C193.091 98.7424 193.765 99.0455 194.386 99.4773C195.008 99.9015 195.511 100.496 195.898 101.261C196.284 102.019 196.477 102.981 196.477 104.148V116H194.455V113.239H194.33C194.087 113.754 193.727 114.254 193.25 114.739C192.773 115.223 192.174 115.621 191.455 115.932C190.735 116.242 189.89 116.398 188.92 116.398ZM189.193 114.545C190.269 114.545 191.201 114.307 191.989 113.83C192.777 113.352 193.383 112.72 193.807 111.932C194.239 111.136 194.455 110.261 194.455 109.307V106.784C194.303 106.928 194.049 107.057 193.693 107.17C193.345 107.284 192.939 107.386 192.477 107.477C192.023 107.561 191.568 107.633 191.114 107.693C190.659 107.754 190.25 107.807 189.886 107.852C188.902 107.973 188.061 108.163 187.364 108.42C186.667 108.678 186.133 109.034 185.761 109.489C185.39 109.936 185.205 110.511 185.205 111.216C185.205 112.277 185.583 113.098 186.341 113.682C187.098 114.258 188.049 114.545 189.193 114.545ZM203.881 105.091V116H201.858V98.5455H203.824V101.284H204.006C204.415 100.39 205.051 99.6742 205.915 99.1364C206.786 98.5909 207.862 98.3182 209.142 98.3182C210.316 98.3182 211.347 98.5644 212.233 99.0568C213.127 99.5417 213.82 100.258 214.312 101.205C214.812 102.152 215.062 103.314 215.062 104.693V116H213.04V104.818C213.04 103.386 212.638 102.254 211.835 101.42C211.04 100.587 209.972 100.17 208.631 100.17C207.714 100.17 206.9 100.367 206.188 100.761C205.475 101.155 204.911 101.723 204.494 102.466C204.085 103.201 203.881 104.076 203.881 105.091ZM222.412 92.7273V116H220.389V92.7273H222.412ZM234.821 116.364C233.192 116.364 231.783 115.985 230.594 115.227C229.404 114.462 228.484 113.405 227.832 112.057C227.188 110.701 226.866 109.14 226.866 107.375C226.866 105.617 227.188 104.057 227.832 102.693C228.484 101.322 229.382 100.25 230.526 99.4773C231.677 98.697 233.007 98.3068 234.514 98.3068C235.461 98.3068 236.374 98.4811 237.253 98.8295C238.132 99.1705 238.92 99.697 239.616 100.409C240.321 101.114 240.878 102.004 241.287 103.08C241.696 104.148 241.901 105.413 241.901 106.875V107.875H228.264V106.091H239.832C239.832 104.97 239.605 103.962 239.151 103.068C238.704 102.167 238.079 101.455 237.276 100.932C236.48 100.409 235.56 100.148 234.514 100.148C233.408 100.148 232.435 100.443 231.594 101.034C230.753 101.625 230.094 102.405 229.616 103.375C229.147 104.345 228.908 105.405 228.901 106.557V107.625C228.901 109.011 229.139 110.223 229.616 111.261C230.101 112.292 230.787 113.091 231.673 113.659C232.56 114.227 233.609 114.511 234.821 114.511C235.647 114.511 236.37 114.383 236.991 114.125C237.62 113.867 238.147 113.523 238.571 113.091C239.003 112.652 239.329 112.17 239.548 111.648L241.469 112.273C241.204 113.008 240.768 113.686 240.162 114.307C239.563 114.928 238.813 115.428 237.912 115.807C237.018 116.178 235.988 116.364 234.821 116.364ZM253.017 122.909C251.828 122.909 250.786 122.754 249.892 122.443C248.998 122.14 248.244 121.723 247.631 121.193C247.017 120.663 246.54 120.068 246.199 119.409L247.858 118.318C248.108 118.758 248.441 119.189 248.858 119.614C249.282 120.038 249.831 120.39 250.506 120.67C251.188 120.951 252.025 121.091 253.017 121.091C254.563 121.091 255.809 120.705 256.756 119.932C257.71 119.159 258.188 117.958 258.188 116.33V112.398H258.006C257.771 112.928 257.434 113.458 256.994 113.989C256.555 114.511 255.979 114.947 255.267 115.295C254.563 115.644 253.688 115.818 252.642 115.818C251.248 115.818 250.009 115.473 248.926 114.784C247.85 114.095 247.002 113.11 246.381 111.83C245.767 110.542 245.46 109.008 245.46 107.227C245.46 105.462 245.759 103.909 246.358 102.568C246.964 101.227 247.809 100.182 248.892 99.4318C249.975 98.6818 251.237 98.3068 252.676 98.3068C253.744 98.3068 254.631 98.4962 255.335 98.875C256.04 99.2462 256.604 99.7083 257.028 100.261C257.46 100.814 257.797 101.352 258.04 101.875H258.244V98.5455H260.222V116.455C260.222 117.932 259.907 119.148 259.278 120.102C258.65 121.057 257.794 121.761 256.71 122.216C255.627 122.678 254.396 122.909 253.017 122.909ZM252.881 113.966C254.002 113.966 254.96 113.697 255.756 113.159C256.551 112.614 257.161 111.833 257.585 110.818C258.009 109.803 258.222 108.595 258.222 107.193C258.222 105.83 258.013 104.621 257.597 103.568C257.18 102.508 256.574 101.674 255.778 101.068C254.991 100.455 254.025 100.148 252.881 100.148C251.714 100.148 250.729 100.462 249.926 101.091C249.123 101.72 248.517 102.568 248.108 103.636C247.699 104.697 247.494 105.883 247.494 107.193C247.494 108.527 247.703 109.705 248.119 110.727C248.536 111.742 249.146 112.538 249.949 113.114C250.752 113.682 251.729 113.966 252.881 113.966ZM272.634 116.364C271.005 116.364 269.596 115.985 268.406 115.227C267.217 114.462 266.296 113.405 265.645 112.057C265.001 110.701 264.679 109.14 264.679 107.375C264.679 105.617 265.001 104.057 265.645 102.693C266.296 101.322 267.194 100.25 268.338 99.4773C269.49 98.697 270.819 98.3068 272.327 98.3068C273.274 98.3068 274.187 98.4811 275.065 98.8295C275.944 99.1705 276.732 99.697 277.429 100.409C278.134 101.114 278.69 102.004 279.099 103.08C279.509 104.148 279.713 105.413 279.713 106.875V107.875H266.077V106.091H277.645C277.645 104.97 277.418 103.962 276.963 103.068C276.516 102.167 275.891 101.455 275.088 100.932C274.293 100.409 273.372 100.148 272.327 100.148C271.221 100.148 270.247 100.443 269.406 101.034C268.565 101.625 267.906 102.405 267.429 103.375C266.959 104.345 266.721 105.405 266.713 106.557V107.625C266.713 109.011 266.952 110.223 267.429 111.261C267.914 112.292 268.599 113.091 269.486 113.659C270.372 114.227 271.421 114.511 272.634 114.511C273.459 114.511 274.183 114.383 274.804 114.125C275.433 113.867 275.959 113.523 276.384 113.091C276.815 112.652 277.141 112.17 277.361 111.648L279.281 112.273C279.016 113.008 278.58 113.686 277.974 114.307C277.376 114.928 276.626 115.428 275.724 115.807C274.83 116.178 273.8 116.364 272.634 116.364ZM286.193 105.091V116H284.17V98.5455H286.136V101.284H286.318C286.727 100.39 287.364 99.6742 288.227 99.1364C289.098 98.5909 290.174 98.3182 291.455 98.3182C292.629 98.3182 293.659 98.5644 294.545 99.0568C295.439 99.5417 296.133 100.258 296.625 101.205C297.125 102.152 297.375 103.314 297.375 104.693V116H295.352V104.818C295.352 103.386 294.951 102.254 294.148 101.42C293.352 100.587 292.284 100.17 290.943 100.17C290.027 100.17 289.212 100.367 288.5 100.761C287.788 101.155 287.223 101.723 286.807 102.466C286.398 103.201 286.193 104.076 286.193 105.091Z" fill="white"/>
<path d="M66.1591 159V150.273H69.1037C69.6719 150.273 70.1449 150.372 70.5227 150.571C70.9034 150.77 71.1889 151.041 71.3793 151.385C71.5696 151.729 71.6648 152.119 71.6648 152.557C71.6648 152.92 71.6037 153.232 71.4815 153.49C71.3594 153.749 71.1932 153.957 70.983 154.116C70.7727 154.276 70.5384 154.391 70.2798 154.462V154.53C70.5611 154.55 70.8338 154.649 71.098 154.828C71.3622 155.004 71.5795 155.251 71.75 155.57C71.9205 155.888 72.0057 156.268 72.0057 156.712C72.0057 157.152 71.9077 157.545 71.7116 157.892C71.5156 158.236 71.2145 158.507 70.8082 158.706C70.4048 158.902 69.8906 159 69.2656 159H66.1591ZM66.956 158.284H69.2656C69.9389 158.284 70.4361 158.135 70.7571 157.837C71.081 157.538 71.2429 157.163 71.2429 156.712C71.2429 156.379 71.1619 156.078 71 155.808C70.8409 155.536 70.6151 155.32 70.3224 155.161C70.0327 155.001 69.6918 154.922 69.2997 154.922H66.956V158.284ZM66.956 154.214H69.1761C69.5199 154.214 69.821 154.143 70.0795 154.001C70.3381 153.859 70.5398 153.663 70.6847 153.413C70.8295 153.163 70.902 152.878 70.902 152.557C70.902 152.094 70.7514 151.717 70.4503 151.428C70.1491 151.135 69.7003 150.989 69.1037 150.989H66.956V154.214ZM76.4173 159.136C75.8065 159.136 75.2781 158.994 74.832 158.71C74.386 158.423 74.0408 158.027 73.7965 157.521C73.555 157.013 73.4343 156.428 73.4343 155.766C73.4343 155.107 73.555 154.521 73.7965 154.01C74.0408 153.496 74.3775 153.094 74.8065 152.804C75.2383 152.511 75.7369 152.365 76.3022 152.365C76.6573 152.365 76.9996 152.43 77.3292 152.561C77.6587 152.689 77.9542 152.886 78.2156 153.153C78.4798 153.418 78.6886 153.751 78.842 154.155C78.9954 154.555 79.0721 155.03 79.0721 155.578V155.953H73.9585V155.284H78.2965C78.2965 154.864 78.2113 154.486 78.0408 154.151C77.8732 153.812 77.6388 153.545 77.3377 153.349C77.0394 153.153 76.6942 153.055 76.3022 153.055C75.8874 153.055 75.5224 153.166 75.207 153.388C74.8917 153.609 74.6445 153.902 74.4656 154.266C74.2894 154.629 74.1999 155.027 74.1971 155.459V155.859C74.1971 156.379 74.2866 156.834 74.4656 157.223C74.6474 157.609 74.9045 157.909 75.2369 158.122C75.5692 158.335 75.9627 158.442 76.4173 158.442C76.7269 158.442 76.9982 158.393 77.2312 158.297C77.467 158.2 77.6644 158.071 77.8235 157.909C77.9854 157.744 78.1076 157.564 78.19 157.368L78.9102 157.602C78.8107 157.878 78.6474 158.132 78.4201 158.365C78.1957 158.598 77.9144 158.786 77.5763 158.928C77.2411 159.067 76.8548 159.136 76.4173 159.136ZM85.1413 153.891L84.4467 154.087C84.3786 153.891 84.282 153.713 84.157 153.554C84.032 153.395 83.8686 153.268 83.6669 153.175C83.468 153.081 83.2209 153.034 82.9254 153.034C82.4822 153.034 82.1186 153.139 81.8345 153.349C81.5504 153.56 81.4084 153.831 81.4084 154.163C81.4084 154.445 81.505 154.673 81.6982 154.849C81.8942 155.023 82.1953 155.161 82.6016 155.263L83.5902 155.506C84.1385 155.639 84.549 155.851 84.8217 156.141C85.0973 156.43 85.2351 156.794 85.2351 157.232C85.2351 157.601 85.1328 157.929 84.9283 158.216C84.7237 158.503 84.4382 158.729 84.0717 158.893C83.7081 159.055 83.2862 159.136 82.8061 159.136C82.1669 159.136 81.6399 158.993 81.2251 158.706C80.8104 158.416 80.5447 157.999 80.4283 157.453L81.157 157.274C81.2507 157.663 81.4339 157.957 81.7067 158.156C81.9822 158.355 82.3445 158.455 82.7933 158.455C83.2962 158.455 83.6982 158.342 83.9993 158.118C84.3004 157.891 84.451 157.607 84.451 157.266C84.451 157.001 84.3629 156.78 84.1868 156.601C84.0107 156.419 83.7436 156.286 83.3857 156.2L82.3161 155.945C81.7479 155.808 81.3274 155.592 81.0547 155.297C80.782 155.001 80.6456 154.635 80.6456 154.197C80.6456 153.837 80.7436 153.52 80.9396 153.247C81.1357 152.972 81.4055 152.756 81.7493 152.599C82.093 152.443 82.4851 152.365 82.9254 152.365C83.5249 152.365 84.0036 152.501 84.3615 152.774C84.7223 153.044 84.9822 153.416 85.1413 153.891ZM89.4741 152.455V153.115H86.3505V152.455H89.4741ZM87.3263 150.886H88.0891V157.291C88.0891 157.564 88.136 157.778 88.2298 157.935C88.3235 158.088 88.4457 158.197 88.5962 158.263C88.7468 158.325 88.9073 158.357 89.0778 158.357C89.1772 158.357 89.2624 158.351 89.3335 158.339C89.4045 158.325 89.467 158.311 89.521 158.297L89.6829 158.983C89.609 159.011 89.5181 159.037 89.4102 159.06C89.3022 159.085 89.1687 159.098 89.0096 159.098C88.7312 159.098 88.4627 159.037 88.2042 158.915C87.9485 158.793 87.7383 158.611 87.5735 158.369C87.4087 158.128 87.3263 157.828 87.3263 157.47V150.886ZM93.0249 159.149C92.63 159.149 92.2692 159.072 91.9425 158.919C91.6158 158.763 91.3558 158.538 91.1626 158.246C90.9695 157.95 90.8729 157.592 90.8729 157.172C90.8729 156.848 90.9339 156.575 91.0561 156.354C91.1783 156.132 91.3516 155.95 91.576 155.808C91.8004 155.666 92.0661 155.554 92.3729 155.472C92.6797 155.389 93.0178 155.325 93.3871 155.28C93.7536 155.234 94.0632 155.195 94.3161 155.161C94.5717 155.126 94.7663 155.072 94.8999 154.999C95.0334 154.925 95.1001 154.805 95.1001 154.641V154.487C95.1001 154.041 94.9666 153.69 94.6996 153.435C94.4354 153.176 94.0547 153.047 93.5575 153.047C93.0859 153.047 92.701 153.151 92.4027 153.358C92.1072 153.565 91.8999 153.81 91.7805 154.091L91.0604 153.831C91.2081 153.473 91.4126 153.187 91.674 152.974C91.9354 152.759 92.228 152.604 92.5518 152.51C92.8757 152.413 93.2038 152.365 93.5362 152.365C93.7862 152.365 94.0462 152.398 94.3161 152.463C94.5888 152.528 94.8416 152.642 95.0746 152.804C95.3075 152.963 95.4964 153.186 95.6413 153.473C95.7862 153.757 95.8587 154.118 95.8587 154.555V159H95.1001V157.964H95.0533C94.9624 158.158 94.8274 158.345 94.6484 158.527C94.4695 158.709 94.245 158.858 93.9751 158.974C93.7053 159.091 93.3885 159.149 93.0249 159.149ZM93.1271 158.455C93.5305 158.455 93.88 158.365 94.1754 158.186C94.4709 158.007 94.6982 157.77 94.8572 157.474C95.0192 157.176 95.1001 156.848 95.1001 156.49V155.544C95.0433 155.598 94.9482 155.646 94.8146 155.689C94.6839 155.732 94.532 155.77 94.3587 155.804C94.1882 155.835 94.0178 155.862 93.8473 155.885C93.6768 155.908 93.5234 155.928 93.3871 155.945C93.0178 155.99 92.7024 156.061 92.4411 156.158C92.1797 156.254 91.9794 156.388 91.8402 156.558C91.701 156.726 91.6314 156.942 91.6314 157.206C91.6314 157.604 91.7734 157.912 92.0575 158.131C92.3416 158.347 92.6982 158.455 93.1271 158.455ZM92.5135 151.33C92.3686 151.33 92.2408 151.276 92.13 151.168C92.022 151.057 91.968 150.929 91.968 150.784C91.968 150.628 92.022 150.499 92.13 150.396C92.2408 150.291 92.3686 150.239 92.5135 150.239C92.6697 150.239 92.799 150.291 92.9013 150.396C93.0064 150.499 93.0589 150.628 93.0589 150.784C93.0589 150.929 93.0064 151.057 92.9013 151.168C92.799 151.276 92.6697 151.33 92.5135 151.33ZM94.6953 151.33C94.5504 151.33 94.4226 151.276 94.3118 151.168C94.2038 151.057 94.1499 150.929 94.1499 150.784C94.1499 150.628 94.2038 150.499 94.3118 150.396C94.4226 150.291 94.5504 150.239 94.6953 150.239C94.8516 150.239 94.9808 150.291 95.0831 150.396C95.1882 150.499 95.2408 150.628 95.2408 150.784C95.2408 150.929 95.1882 151.057 95.0831 151.168C94.9808 151.276 94.8516 151.33 94.6953 151.33ZM100.455 152.455V153.115H97.331V152.455H100.455ZM98.3068 150.886H99.0696V157.291C99.0696 157.564 99.1165 157.778 99.2102 157.935C99.304 158.088 99.4261 158.197 99.5767 158.263C99.7273 158.325 99.8878 158.357 100.058 158.357C100.158 158.357 100.243 158.351 100.314 158.339C100.385 158.325 100.447 158.311 100.501 158.297L100.663 158.983C100.589 159.011 100.499 159.037 100.391 159.06C100.283 159.085 100.149 159.098 99.9901 159.098C99.7116 159.098 99.4432 159.037 99.1847 158.915C98.929 158.793 98.7188 158.611 98.554 158.369C98.3892 158.128 98.3068 157.828 98.3068 157.47V150.886ZM102.186 159V152.455H102.949V159H102.186ZM102.574 151.33C102.417 151.33 102.284 151.277 102.173 151.172C102.062 151.064 102.007 150.935 102.007 150.784C102.007 150.634 102.062 150.506 102.173 150.401C102.284 150.293 102.417 150.239 102.574 150.239C102.73 150.239 102.863 150.293 102.974 150.401C103.085 150.506 103.14 150.634 103.14 150.784C103.14 150.935 103.085 151.064 102.974 151.172C102.863 151.277 102.73 151.33 102.574 151.33ZM107.452 161.591C107.006 161.591 106.615 161.533 106.28 161.416C105.945 161.303 105.662 161.146 105.432 160.947C105.202 160.749 105.023 160.526 104.895 160.278L105.517 159.869C105.611 160.034 105.736 160.196 105.892 160.355C106.051 160.514 106.257 160.646 106.51 160.751C106.766 160.857 107.08 160.909 107.452 160.909C108.031 160.909 108.499 160.764 108.854 160.474C109.212 160.185 109.391 159.734 109.391 159.124V157.649H109.322C109.234 157.848 109.108 158.047 108.943 158.246C108.778 158.442 108.563 158.605 108.295 158.736C108.031 158.866 107.703 158.932 107.311 158.932C106.788 158.932 106.324 158.803 105.918 158.544C105.514 158.286 105.196 157.916 104.963 157.436C104.733 156.953 104.618 156.378 104.618 155.71C104.618 155.048 104.73 154.466 104.955 153.963C105.182 153.46 105.499 153.068 105.905 152.787C106.311 152.506 106.784 152.365 107.324 152.365C107.724 152.365 108.057 152.436 108.321 152.578C108.585 152.717 108.797 152.891 108.956 153.098C109.118 153.305 109.244 153.507 109.335 153.703H109.412V152.455H110.153V159.17C110.153 159.724 110.036 160.18 109.8 160.538C109.564 160.896 109.243 161.161 108.837 161.331C108.43 161.504 107.969 161.591 107.452 161.591ZM107.401 158.237C107.821 158.237 108.18 158.136 108.479 157.935C108.777 157.73 109.006 157.437 109.165 157.057C109.324 156.676 109.403 156.223 109.403 155.697C109.403 155.186 109.325 154.733 109.169 154.338C109.013 153.94 108.786 153.628 108.487 153.401C108.192 153.17 107.83 153.055 107.401 153.055C106.963 153.055 106.594 153.173 106.293 153.409C105.991 153.645 105.764 153.963 105.611 154.364C105.457 154.761 105.381 155.206 105.381 155.697C105.381 156.197 105.459 156.639 105.615 157.023C105.771 157.403 106 157.702 106.301 157.918C106.602 158.131 106.969 158.237 107.401 158.237ZM114.808 159.136C114.197 159.136 113.669 158.994 113.223 158.71C112.777 158.423 112.431 158.027 112.187 157.521C111.946 157.013 111.825 156.428 111.825 155.766C111.825 155.107 111.946 154.521 112.187 154.01C112.431 153.496 112.768 153.094 113.197 152.804C113.629 152.511 114.127 152.365 114.693 152.365C115.048 152.365 115.39 152.43 115.72 152.561C116.049 152.689 116.345 152.886 116.606 153.153C116.87 153.418 117.079 153.751 117.233 154.155C117.386 154.555 117.463 155.03 117.463 155.578V155.953H112.349V155.284H116.687C116.687 154.864 116.602 154.486 116.431 154.151C116.264 153.812 116.029 153.545 115.728 153.349C115.43 153.153 115.085 153.055 114.693 153.055C114.278 153.055 113.913 153.166 113.598 153.388C113.282 153.609 113.035 153.902 112.856 154.266C112.68 154.629 112.591 155.027 112.588 155.459V155.859C112.588 156.379 112.677 156.834 112.856 157.223C113.038 157.609 113.295 157.909 113.627 158.122C113.96 158.335 114.353 158.442 114.808 158.442C115.118 158.442 115.389 158.393 115.622 158.297C115.858 158.2 116.055 158.071 116.214 157.909C116.376 157.744 116.498 157.564 116.581 157.368L117.301 157.602C117.201 157.878 117.038 158.132 116.811 158.365C116.586 158.598 116.305 158.786 115.967 158.928C115.632 159.067 115.245 159.136 114.808 159.136ZM119.893 154.909V159H119.134V152.455H119.871V153.482H119.94C120.093 153.146 120.332 152.878 120.656 152.676C120.982 152.472 121.386 152.369 121.866 152.369C122.306 152.369 122.692 152.462 123.025 152.646C123.36 152.828 123.62 153.097 123.805 153.452C123.992 153.807 124.086 154.243 124.086 154.76V159H123.327V154.807C123.327 154.27 123.177 153.845 122.876 153.533C122.577 153.22 122.177 153.064 121.674 153.064C121.33 153.064 121.025 153.138 120.758 153.286C120.491 153.433 120.279 153.646 120.123 153.925C119.969 154.2 119.893 154.528 119.893 154.909Z" fill="white" fill-opacity="0.8"/>
<path d="M44 156.6L49.9 150.7C50.0834 150.517 50.3167 150.425 50.6 150.425C50.8834 150.425 51.1167 150.517 51.3 150.7C51.4834 150.883 51.575 151.117 51.575 151.4C51.575 151.683 51.4834 151.917 51.3 152.1L44.7 158.7C44.5 158.9 44.2667 159 44 159C43.7334 159 43.5 158.9 43.3 158.7L40.7 156.1C40.5167 155.917 40.425 155.683 40.425 155.4C40.425 155.117 40.5167 154.883 40.7 154.7C40.8834 154.517 41.1167 154.425 41.4 154.425C41.6834 154.425 41.9167 154.517 42.1 154.7L44 156.6Z" fill="#78FF7D"/>
<rect x="18.5" y="140.5" width="123" height="29" rx="14.5" stroke="white" stroke-opacity="0.8"/>
<g filter="url(#filter0_d_37_1671)">
<path d="M45.1818 241.614V260.75H44.0455V241.614H45.1818ZM57.8707 245.364V257H56.5071L50.1662 247.864H50.0526V257H48.6435V245.364H50.0071L56.3707 254.523H56.4844V245.364H57.8707ZM63.0767 257.205C62.5237 257.205 62.0218 257.1 61.571 256.892C61.1203 256.68 60.7623 256.375 60.4972 255.977C60.232 255.576 60.0994 255.091 60.0994 254.523C60.0994 254.023 60.1979 253.617 60.3949 253.307C60.5919 252.992 60.8551 252.746 61.1847 252.568C61.5142 252.39 61.8778 252.258 62.2756 252.17C62.6771 252.08 63.0805 252.008 63.4858 251.955C64.0161 251.886 64.446 251.835 64.7756 251.801C65.1089 251.763 65.3513 251.701 65.5028 251.614C65.6581 251.527 65.7358 251.375 65.7358 251.159V251.114C65.7358 250.553 65.5824 250.117 65.2756 249.807C64.9725 249.496 64.5123 249.341 63.8949 249.341C63.2547 249.341 62.7528 249.481 62.3892 249.761C62.0256 250.042 61.7699 250.341 61.6222 250.659L60.3494 250.205C60.5767 249.674 60.8797 249.261 61.2585 248.966C61.6411 248.667 62.0578 248.458 62.5085 248.341C62.9631 248.22 63.41 248.159 63.8494 248.159C64.1297 248.159 64.4517 248.193 64.8153 248.261C65.1828 248.326 65.5369 248.46 65.8778 248.665C66.2225 248.869 66.5085 249.178 66.7358 249.591C66.9631 250.004 67.0767 250.557 67.0767 251.25V257H65.7358V255.818H65.6676C65.5767 256.008 65.4252 256.21 65.2131 256.426C65.0009 256.642 64.7188 256.826 64.3665 256.977C64.0142 257.129 63.5843 257.205 63.0767 257.205ZM63.2812 256C63.8116 256 64.2585 255.896 64.6222 255.688C64.9896 255.479 65.2661 255.21 65.4517 254.881C65.6411 254.551 65.7358 254.205 65.7358 253.841V252.614C65.679 252.682 65.554 252.744 65.3608 252.801C65.1714 252.854 64.9517 252.902 64.7017 252.943C64.4555 252.981 64.215 253.015 63.9801 253.045C63.7491 253.072 63.5616 253.095 63.4176 253.114C63.0691 253.159 62.7434 253.233 62.4403 253.335C62.1411 253.434 61.8987 253.583 61.7131 253.784C61.5313 253.981 61.4403 254.25 61.4403 254.591C61.4403 255.057 61.6127 255.409 61.9574 255.648C62.3059 255.883 62.7472 256 63.2812 256ZM69.5241 257V248.273H70.8196V249.636H70.9332C71.1151 249.17 71.4086 248.809 71.8139 248.551C72.2192 248.29 72.706 248.159 73.2741 248.159C73.8499 248.159 74.3291 248.29 74.7116 248.551C75.098 248.809 75.3991 249.17 75.6151 249.636H75.706C75.9295 249.186 76.2647 248.828 76.7116 248.562C77.1586 248.294 77.6946 248.159 78.3196 248.159C79.0999 248.159 79.7382 248.403 80.2344 248.892C80.7306 249.377 80.9787 250.133 80.9787 251.159V257H79.6378V251.159C79.6378 250.515 79.4616 250.055 79.1094 249.778C78.7571 249.502 78.3423 249.364 77.8651 249.364C77.2514 249.364 76.776 249.549 76.4389 249.92C76.1018 250.288 75.9332 250.754 75.9332 251.318V257H74.5696V251.023C74.5696 250.527 74.4086 250.127 74.0866 249.824C73.7647 249.517 73.3499 249.364 72.8423 249.364C72.4938 249.364 72.1681 249.456 71.8651 249.642C71.5658 249.828 71.3234 250.085 71.1378 250.415C70.956 250.741 70.8651 251.117 70.8651 251.545V257H69.5241ZM87.0895 257.182C86.2486 257.182 85.5232 256.996 84.9134 256.625C84.3073 256.25 83.8395 255.727 83.5099 255.057C83.1842 254.383 83.0213 253.598 83.0213 252.705C83.0213 251.811 83.1842 251.023 83.5099 250.341C83.8395 249.655 84.2978 249.121 84.8849 248.739C85.4759 248.352 86.1652 248.159 86.9531 248.159C87.4077 248.159 87.8565 248.235 88.2997 248.386C88.7429 248.538 89.1463 248.784 89.5099 249.125C89.8736 249.462 90.1634 249.909 90.3793 250.466C90.5952 251.023 90.7031 251.708 90.7031 252.523V253.091H83.9759V251.932H89.3395C89.3395 251.439 89.241 251 89.044 250.614C88.8509 250.227 88.5743 249.922 88.2145 249.699C87.8584 249.475 87.438 249.364 86.9531 249.364C86.419 249.364 85.9569 249.496 85.5668 249.761C85.1804 250.023 84.883 250.364 84.6747 250.784C84.4664 251.205 84.3622 251.655 84.3622 252.136V252.909C84.3622 253.568 84.4759 254.127 84.7031 254.585C84.9342 255.04 85.2543 255.386 85.6634 255.625C86.0724 255.86 86.5478 255.977 87.0895 255.977C87.4418 255.977 87.7599 255.928 88.044 255.83C88.3319 255.727 88.58 255.576 88.7884 255.375C88.9967 255.17 89.1577 254.917 89.2713 254.614L90.5668 254.977C90.4304 255.417 90.2012 255.803 89.8793 256.136C89.5573 256.466 89.1596 256.723 88.6861 256.909C88.2126 257.091 87.6804 257.182 87.0895 257.182Z" fill="black" fill-opacity="0.5" shape-rendering="crispEdges"/>
</g>
<g filter="url(#filter1_d_37_1671)">
<path d="M43.4091 357V345.364H44.8182V351.136H44.9545L50.1818 345.364H52.0227L47.1364 350.614L52.0227 357H50.3182L46.2727 351.591L44.8182 353.227V357H43.4091ZM55.0057 345.364V357H53.6648V345.364H55.0057ZM60.0298 357.205C59.4768 357.205 58.9749 357.1 58.5241 356.892C58.0734 356.68 57.7154 356.375 57.4503 355.977C57.1851 355.576 57.0526 355.091 57.0526 354.523C57.0526 354.023 57.151 353.617 57.348 353.307C57.545 352.992 57.8082 352.746 58.1378 352.568C58.4673 352.39 58.831 352.258 59.2287 352.17C59.6302 352.08 60.0336 352.008 60.4389 351.955C60.9692 351.886 61.3991 351.835 61.7287 351.801C62.062 351.763 62.3045 351.701 62.456 351.614C62.6113 351.527 62.6889 351.375 62.6889 351.159V351.114C62.6889 350.553 62.5355 350.117 62.2287 349.807C61.9257 349.496 61.4654 349.341 60.848 349.341C60.2079 349.341 59.706 349.481 59.3423 349.761C58.9787 350.042 58.723 350.341 58.5753 350.659L57.3026 350.205C57.5298 349.674 57.8329 349.261 58.2116 348.966C58.5942 348.667 59.0109 348.458 59.4616 348.341C59.9162 348.22 60.3632 348.159 60.8026 348.159C61.0829 348.159 61.4048 348.193 61.7685 348.261C62.1359 348.326 62.4901 348.46 62.831 348.665C63.1757 348.869 63.4616 349.178 63.6889 349.591C63.9162 350.004 64.0298 350.557 64.0298 351.25V357H62.6889V355.818H62.6207C62.5298 356.008 62.3783 356.21 62.1662 356.426C61.9541 356.642 61.6719 356.826 61.3196 356.977C60.9673 357.129 60.5374 357.205 60.0298 357.205ZM60.2344 356C60.7647 356 61.2116 355.896 61.5753 355.688C61.9427 355.479 62.2192 355.21 62.4048 354.881C62.5942 354.551 62.6889 354.205 62.6889 353.841V352.614C62.6321 352.682 62.5071 352.744 62.3139 352.801C62.1245 352.854 61.9048 352.902 61.6548 352.943C61.4086 352.981 61.1681 353.015 60.9332 353.045C60.7022 353.072 60.5147 353.095 60.3707 353.114C60.0223 353.159 59.6965 353.233 59.3935 353.335C59.0942 353.434 58.8518 353.583 58.6662 353.784C58.4844 353.981 58.3935 354.25 58.3935 354.591C58.3935 355.057 58.5658 355.409 58.9105 355.648C59.259 355.883 59.7003 356 60.2344 356ZM72.6591 350.227L71.4545 350.568C71.3788 350.367 71.267 350.172 71.1193 349.983C70.9754 349.79 70.7784 349.631 70.5284 349.506C70.2784 349.381 69.9583 349.318 69.5682 349.318C69.0341 349.318 68.589 349.441 68.233 349.688C67.8807 349.93 67.7045 350.239 67.7045 350.614C67.7045 350.947 67.8258 351.21 68.0682 351.403C68.3106 351.597 68.6894 351.758 69.2045 351.886L70.5 352.205C71.2803 352.394 71.8617 352.684 72.2443 353.074C72.6269 353.46 72.8182 353.958 72.8182 354.568C72.8182 355.068 72.6742 355.515 72.3864 355.909C72.1023 356.303 71.7045 356.614 71.1932 356.841C70.6818 357.068 70.0871 357.182 69.4091 357.182C68.5189 357.182 67.7822 356.989 67.1989 356.602C66.6155 356.216 66.2462 355.652 66.0909 354.909L67.3636 354.591C67.4848 355.061 67.714 355.413 68.0511 355.648C68.392 355.883 68.8371 356 69.3864 356C70.0114 356 70.5076 355.867 70.875 355.602C71.2462 355.333 71.4318 355.011 71.4318 354.636C71.4318 354.333 71.3258 354.08 71.1136 353.875C70.9015 353.667 70.5758 353.511 70.1364 353.409L68.6818 353.068C67.8826 352.879 67.2955 352.585 66.9205 352.188C66.5492 351.786 66.3636 351.284 66.3636 350.682C66.3636 350.189 66.5019 349.754 66.7784 349.375C67.0587 348.996 67.4394 348.699 67.9205 348.483C68.4053 348.267 68.9545 348.159 69.5682 348.159C70.4318 348.159 71.1098 348.348 71.6023 348.727C72.0985 349.106 72.4508 349.606 72.6591 350.227ZM81.0185 350.227L79.8139 350.568C79.7382 350.367 79.6264 350.172 79.4787 349.983C79.3348 349.79 79.1378 349.631 78.8878 349.506C78.6378 349.381 78.3177 349.318 77.9276 349.318C77.3935 349.318 76.9484 349.441 76.5923 349.688C76.2401 349.93 76.0639 350.239 76.0639 350.614C76.0639 350.947 76.1851 351.21 76.4276 351.403C76.67 351.597 77.0488 351.758 77.5639 351.886L78.8594 352.205C79.6397 352.394 80.2211 352.684 80.6037 353.074C80.9863 353.46 81.1776 353.958 81.1776 354.568C81.1776 355.068 81.0336 355.515 80.7457 355.909C80.4616 356.303 80.0639 356.614 79.5526 356.841C79.0412 357.068 78.4465 357.182 77.7685 357.182C76.8783 357.182 76.1416 356.989 75.5582 356.602C74.9749 356.216 74.6056 355.652 74.4503 354.909L75.723 354.591C75.8442 355.061 76.0734 355.413 76.4105 355.648C76.7514 355.883 77.1965 356 77.7457 356C78.3707 356 78.867 355.867 79.2344 355.602C79.6056 355.333 79.7912 355.011 79.7912 354.636C79.7912 354.333 79.6851 354.08 79.473 353.875C79.2609 353.667 78.9351 353.511 78.4957 353.409L77.0412 353.068C76.242 352.879 75.6548 352.585 75.2798 352.188C74.9086 351.786 74.723 351.284 74.723 350.682C74.723 350.189 74.8613 349.754 75.1378 349.375C75.4181 348.996 75.7988 348.699 76.2798 348.483C76.7647 348.267 77.3139 348.159 77.9276 348.159C78.7912 348.159 79.4692 348.348 79.9616 348.727C80.4579 349.106 80.8101 349.606 81.0185 350.227ZM86.8551 357.182C86.0142 357.182 85.2888 356.996 84.679 356.625C84.0729 356.25 83.6051 355.727 83.2756 355.057C82.9498 354.383 82.7869 353.598 82.7869 352.705C82.7869 351.811 82.9498 351.023 83.2756 350.341C83.6051 349.655 84.0634 349.121 84.6506 348.739C85.2415 348.352 85.9309 348.159 86.7188 348.159C87.1733 348.159 87.6222 348.235 88.0653 348.386C88.5085 348.538 88.9119 348.784 89.2756 349.125C89.6392 349.462 89.929 349.909 90.1449 350.466C90.3608 351.023 90.4688 351.708 90.4688 352.523V353.091H83.7415V351.932H89.1051C89.1051 351.439 89.0066 351 88.8097 350.614C88.6165 350.227 88.34 349.922 87.9801 349.699C87.6241 349.475 87.2036 349.364 86.7188 349.364C86.1847 349.364 85.7225 349.496 85.3324 349.761C84.946 350.023 84.6487 350.364 84.4403 350.784C84.232 351.205 84.1278 351.655 84.1278 352.136V352.909C84.1278 353.568 84.2415 354.127 84.4688 354.585C84.6998 355.04 85.0199 355.386 85.429 355.625C85.8381 355.86 86.3134 355.977 86.8551 355.977C87.2074 355.977 87.5256 355.928 87.8097 355.83C88.0975 355.727 88.3456 355.576 88.554 355.375C88.7623 355.17 88.9233 354.917 89.0369 354.614L90.3324 354.977C90.196 355.417 89.9669 355.803 89.6449 356.136C89.3229 356.466 88.9252 356.723 88.4517 356.909C87.9782 357.091 87.446 357.182 86.8551 357.182ZM92.9858 352.091C92.9858 350.659 93.1714 349.343 93.5426 348.142C93.9176 346.937 94.4517 345.83 95.1449 344.818H96.3267C96.054 345.193 95.7983 345.655 95.5597 346.205C95.3248 346.75 95.1184 347.35 94.9403 348.006C94.7623 348.657 94.6222 349.331 94.5199 350.028C94.4214 350.725 94.3722 351.413 94.3722 352.091C94.3722 352.992 94.4593 353.907 94.6335 354.835C94.8078 355.763 95.0426 356.625 95.3381 357.42C95.6335 358.216 95.9631 358.864 96.3267 359.364H95.1449C94.4517 358.352 93.9176 357.246 93.5426 356.045C93.1714 354.841 92.9858 353.523 92.9858 352.091ZM99.6463 351.75V357H98.3054V348.273H99.6009V349.636H99.7145C99.919 349.193 100.23 348.837 100.646 348.568C101.063 348.295 101.601 348.159 102.26 348.159C102.851 348.159 103.368 348.28 103.811 348.523C104.254 348.761 104.599 349.125 104.845 349.614C105.091 350.098 105.214 350.712 105.214 351.455V357H103.874V351.545C103.874 350.86 103.696 350.326 103.339 349.943C102.983 349.557 102.495 349.364 101.874 349.364C101.446 349.364 101.063 349.456 100.726 349.642C100.393 349.828 100.129 350.098 99.9361 350.455C99.7429 350.811 99.6463 351.242 99.6463 351.75ZM110.528 352.091C110.528 353.523 110.341 354.841 109.966 356.045C109.595 357.246 109.063 358.352 108.369 359.364H107.188C107.46 358.989 107.714 358.527 107.949 357.977C108.188 357.432 108.396 356.833 108.574 356.182C108.752 355.527 108.89 354.85 108.989 354.153C109.091 353.453 109.142 352.765 109.142 352.091C109.142 351.189 109.055 350.275 108.881 349.347C108.706 348.419 108.472 347.557 108.176 346.761C107.881 345.966 107.551 345.318 107.188 344.818H108.369C109.063 345.83 109.595 346.937 109.966 348.142C110.341 349.343 110.528 350.659 110.528 352.091Z" fill="black" fill-opacity="0.5" shape-rendering="crispEdges"/>
</g>
<defs>
<filter id="filter0_d_37_1671" x="40.0454" y="241.614" width="54.6577" height="27.1364" filterUnits="userSpaceOnUse" color-interpolation-filters="sRGB">
<feFlood flood-opacity="0" result="BackgroundImageFix"/>
<feColorMatrix in="SourceAlpha" type="matrix" values="0 0 0 0 0 0 0 0 0 0 0 0 0 0 0 0 0 0 127 0" result="hardAlpha"/>
<feOffset dy="4"/>
<feGaussianBlur stdDeviation="2"/>
<feComposite in2="hardAlpha" operator="out"/>
<feColorMatrix type="matrix" values="0 0 0 0 0 0 0 0 0 0 0 0 0 0 0 0 0 0 0.25 0"/>
<feBlend mode="normal" in2="BackgroundImageFix" result="effect1_dropShadow_37_1671"/>
<feBlend mode="normal" in="SourceGraphic" in2="effect1_dropShadow_37_1671" result="shape"/>
</filter>
<filter id="filter1_d_37_1671" x="39.4091" y="344.818" width="75.1194" height="22.5455" filterUnits="userSpaceOnUse" color-interpolation-filters="sRGB">
<feFlood flood-opacity="0" result="BackgroundImageFix"/>
<feColorMatrix in="SourceAlpha" type="matrix" values="0 0 0 0 0 0 0 0 0 0 0 0 0 0 0 0 0 0 127 0" result="hardAlpha"/>
<feOffset dy="4"/>
<feGaussianBlur stdDeviation="2"/>
<feComposite in2="hardAlpha" operator="out"/>
<feColorMatrix type="matrix" values="0 0 0 0 0 0 0 0 0 0 0 0 0 0 0 0 0 0 0.25 0"/>
<feBlend mode="normal" in2="BackgroundImageFix" result="effect1_dropShadow_37_1671"/>
<feBlend mode="normal" in="SourceGraphic" in2="effect1_dropShadow_37_1671" result="shape"/>
</filter>
<linearGradient id="paint0_linear_37_1671" x1="195" y1="-1.05793e-06" x2="195" y2="844.5" gradientUnits="userSpaceOnUse">
<stop stop-color="#30B3D0"/>
<stop offset="1" stop-color="#007EC5"/>
</linearGradient>
</defs>
</svg>
