<svg width="390" height="844" viewBox="0 0 390 844" fill="none" xmlns="http://www.w3.org/2000/svg">
<rect width="390" height="844" fill="white"/>
<path d="M0 0H390V176C390 181.523 385.523 186 380 186H10C4.47715 186 0 181.523 0 176V0Z" fill="url(#paint0_linear_38_1062)"/>
<g clip-path="url(#clip0_38_1062)">
<path d="M245.816 25.4545C245.767 24.9687 245.553 24.5824 245.172 24.2955C244.792 24.0085 244.313 23.8651 243.736 23.8651C243.33 23.8651 242.972 23.9347 242.662 24.0739C242.355 24.2131 242.114 24.4062 241.938 24.6534C241.765 24.8977 241.678 25.1761 241.678 25.4886C241.678 25.7188 241.728 25.9205 241.827 26.0938C241.926 26.267 242.06 26.4162 242.228 26.5412C242.398 26.6634 242.586 26.7685 242.79 26.8565C242.998 26.9446 243.206 27.0185 243.417 27.0781L244.337 27.3423C244.615 27.419 244.894 27.517 245.172 27.6364C245.451 27.7557 245.705 27.9062 245.935 28.0881C246.168 28.267 246.354 28.4872 246.493 28.7486C246.635 29.0071 246.706 29.3182 246.706 29.6818C246.706 30.1477 246.586 30.5668 246.344 30.9389C246.103 31.3111 245.756 31.6065 245.304 31.8253C244.853 32.0412 244.311 32.1491 243.681 32.1491C243.087 32.1491 242.571 32.0511 242.134 31.8551C241.696 31.6562 241.353 31.3821 241.103 31.0327C240.853 30.6832 240.712 30.2784 240.681 29.8182H241.499C241.527 30.1619 241.641 30.4531 241.84 30.6918C242.039 30.9304 242.297 31.1122 242.615 31.2372C242.934 31.3594 243.289 31.4205 243.681 31.4205C244.115 31.4205 244.502 31.348 244.84 31.2031C245.181 31.0554 245.448 30.8509 245.641 30.5895C245.837 30.3253 245.935 30.0185 245.935 29.669C245.935 29.3736 245.858 29.1264 245.705 28.9276C245.551 28.7259 245.337 28.5568 245.061 28.4205C244.789 28.2841 244.472 28.1634 244.111 28.0582L243.067 27.7514C242.382 27.5469 241.851 27.2642 241.473 26.9034C241.096 26.5426 240.907 26.0824 240.907 25.5227C240.907 25.054 241.032 24.642 241.282 24.2869C241.534 23.929 241.875 23.6506 242.304 23.4517C242.736 23.25 243.221 23.1491 243.757 23.1491C244.3 23.1491 244.78 23.2486 245.198 23.4474C245.615 23.6463 245.946 23.9205 246.191 24.2699C246.438 24.6165 246.57 25.0114 246.587 25.4545H245.816ZM251.023 32.1364C250.438 32.1364 249.928 31.9901 249.493 31.6974C249.061 31.4048 248.726 31.0043 248.488 30.4957C248.249 29.9872 248.13 29.4077 248.13 28.7571C248.13 28.1009 248.25 27.517 248.492 27.0057C248.736 26.4943 249.074 26.0937 249.506 25.804C249.938 25.5114 250.439 25.3651 251.01 25.3651C251.448 25.3651 251.844 25.4503 252.199 25.6207C252.554 25.7884 252.847 26.0256 253.077 26.3324C253.31 26.6364 253.456 26.9915 253.516 27.3977H252.749C252.669 27.0284 252.478 26.7131 252.174 26.4517C251.873 26.1875 251.489 26.0554 251.023 26.0554C250.605 26.0554 250.236 26.169 249.915 26.3963C249.594 26.6207 249.343 26.9347 249.161 27.3381C248.982 27.7386 248.892 28.2031 248.892 28.7315C248.892 29.2628 248.98 29.733 249.157 30.142C249.333 30.5483 249.58 30.8665 249.898 31.0966C250.219 31.3267 250.594 31.4418 251.023 31.4418C251.313 31.4418 251.577 31.3878 251.816 31.2798C252.057 31.169 252.259 31.0128 252.421 30.8111C252.586 30.6094 252.696 30.3693 252.753 30.0909H253.52C253.463 30.4858 253.323 30.8381 253.098 31.1477C252.877 31.4545 252.588 31.696 252.233 31.8722C251.881 32.0483 251.478 32.1364 251.023 32.1364ZM255.904 27.9091V32H255.146V23.2727H255.904V26.4815H255.973C256.126 26.1435 256.363 25.8736 256.684 25.6719C257.008 25.4702 257.417 25.3693 257.912 25.3693C258.355 25.3693 258.744 25.4602 259.079 25.642C259.414 25.8239 259.676 26.0923 259.863 26.4474C260.051 26.8026 260.145 27.2401 260.145 27.7599V32H259.382V27.8068C259.382 27.267 259.231 26.8423 258.93 26.5327C258.632 26.2202 258.228 26.0639 257.72 26.0639C257.37 26.0639 257.059 26.1378 256.787 26.2855C256.514 26.4332 256.298 26.6463 256.139 26.9247C255.983 27.2003 255.904 27.5284 255.904 27.9091ZM266.301 29.4986V25.4545H267.06V32H266.301V30.9134H266.241C266.088 31.2486 265.845 31.5284 265.513 31.7528C265.18 31.9744 264.774 32.0852 264.294 32.0852C263.876 32.0852 263.506 31.9943 263.182 31.8125C262.858 31.6278 262.604 31.358 262.419 31.0028C262.234 30.6477 262.142 30.2116 262.142 29.6946V25.4545H262.901V29.6477C262.901 30.1591 263.051 30.571 263.352 30.8835C263.653 31.1932 264.04 31.348 264.511 31.348C264.807 31.348 265.091 31.277 265.364 31.1349C265.636 30.9929 265.861 30.7855 266.037 30.5128C266.213 30.2372 266.301 29.8991 266.301 29.4986ZM263.514 24.3295C263.369 24.3295 263.241 24.2756 263.131 24.1676C263.023 24.0568 262.969 23.929 262.969 23.7841C262.969 23.6278 263.023 23.4986 263.131 23.3963C263.241 23.2912 263.369 23.2386 263.514 23.2386C263.67 23.2386 263.8 23.2912 263.902 23.3963C264.007 23.4986 264.06 23.6278 264.06 23.7841C264.06 23.929 264.007 24.0568 263.902 24.1676C263.8 24.2756 263.67 24.3295 263.514 24.3295ZM265.696 24.3295C265.551 24.3295 265.423 24.2756 265.312 24.1676C265.205 24.0568 265.151 23.929 265.151 23.7841C265.151 23.6278 265.205 23.4986 265.312 23.3963C265.423 23.2912 265.551 23.2386 265.696 23.2386C265.852 23.2386 265.982 23.2912 266.084 23.3963C266.189 23.4986 266.241 23.6278 266.241 23.7841C266.241 23.929 266.189 24.0568 266.084 24.1676C265.982 24.2756 265.852 24.3295 265.696 24.3295ZM269.826 23.2727V32H269.068V23.2727H269.826ZM274.48 32.1364C273.869 32.1364 273.341 31.9943 272.895 31.7102C272.449 31.4233 272.103 31.027 271.859 30.5213C271.618 30.0128 271.497 29.4276 271.497 28.7656C271.497 28.1065 271.618 27.5213 271.859 27.0099C272.103 26.4957 272.44 26.0937 272.869 25.804C273.301 25.5114 273.799 25.3651 274.365 25.3651C274.72 25.3651 275.062 25.4304 275.392 25.5611C275.721 25.6889 276.017 25.8864 276.278 26.1534C276.542 26.4176 276.751 26.7514 276.904 27.1548C277.058 27.5554 277.135 28.0298 277.135 28.5781V28.9531H272.021V28.2841H276.359C276.359 27.8636 276.274 27.4858 276.103 27.1506C275.936 26.8125 275.701 26.5455 275.4 26.3494C275.102 26.1534 274.757 26.0554 274.365 26.0554C273.95 26.0554 273.585 26.1662 273.27 26.3878C272.954 26.6094 272.707 26.902 272.528 27.2656C272.352 27.6293 272.262 28.027 272.26 28.4588V28.8594C272.26 29.3793 272.349 29.8338 272.528 30.223C272.71 30.6094 272.967 30.9091 273.299 31.1222C273.632 31.3352 274.025 31.4418 274.48 31.4418C274.789 31.4418 275.061 31.3935 275.294 31.2969C275.529 31.2003 275.727 31.071 275.886 30.9091C276.048 30.7443 276.17 30.5639 276.252 30.3679L276.973 30.6023C276.873 30.8778 276.71 31.1321 276.483 31.3651C276.258 31.598 275.977 31.7855 275.639 31.9276C275.304 32.0668 274.917 32.1364 274.48 32.1364ZM278.806 32V25.4545H279.543V26.4602H279.599C279.729 26.1307 279.957 25.8651 280.281 25.6634C280.607 25.4588 280.977 25.3565 281.388 25.3565C281.451 25.3565 281.521 25.358 281.597 25.3608C281.674 25.3636 281.738 25.3665 281.789 25.3693V26.1406C281.755 26.1349 281.695 26.1264 281.61 26.1151C281.525 26.1037 281.433 26.098 281.333 26.098C280.992 26.098 280.688 26.1705 280.421 26.3153C280.157 26.4574 279.948 26.6548 279.795 26.9077C279.641 27.1605 279.565 27.4489 279.565 27.7727V32H278.806ZM285.241 32.1364C284.704 32.1364 284.234 31.9943 283.83 31.7102C283.427 31.4261 283.112 31.0298 282.884 30.5213C282.66 30.0128 282.548 29.4205 282.548 28.7443C282.548 28.071 282.66 27.4815 282.884 26.9759C283.112 26.4673 283.428 26.0724 283.835 25.7912C284.241 25.5071 284.714 25.3651 285.254 25.3651C285.651 25.3651 285.982 25.4361 286.246 25.5781C286.511 25.7173 286.722 25.8906 286.881 26.098C287.04 26.3054 287.164 26.5071 287.252 26.7031H287.32V23.2727H288.083V32H287.342V30.7855H287.252C287.164 30.9844 287.039 31.1889 286.877 31.3991C286.715 31.6065 286.501 31.7812 286.234 31.9233C285.969 32.0653 285.638 32.1364 285.241 32.1364ZM285.33 31.4418C285.754 31.4418 286.114 31.3267 286.413 31.0966C286.711 30.8636 286.938 30.544 287.094 30.1378C287.254 29.7287 287.333 29.2599 287.333 28.7315C287.333 28.2088 287.255 27.7472 287.099 27.3466C286.942 26.9432 286.715 26.6278 286.417 26.4006C286.119 26.1705 285.756 26.0554 285.33 26.0554C284.893 26.0554 284.523 26.1747 284.222 26.4134C283.924 26.6491 283.697 26.9687 283.54 27.3722C283.387 27.7756 283.31 28.2287 283.31 28.7315C283.31 29.2401 283.388 29.6989 283.545 30.108C283.701 30.517 283.928 30.8423 284.227 31.0838C284.528 31.3224 284.896 31.4418 285.33 31.4418ZM292.072 32.1491C291.677 32.1491 291.316 32.0724 290.989 31.919C290.663 31.7628 290.403 31.5384 290.21 31.2457C290.016 30.9503 289.92 30.5923 289.92 30.1719C289.92 29.848 289.981 29.5753 290.103 29.3537C290.225 29.1321 290.398 28.9503 290.623 28.8082C290.847 28.6662 291.113 28.554 291.42 28.4716C291.727 28.3892 292.065 28.3253 292.434 28.2798C292.8 28.2344 293.11 28.1946 293.363 28.1605C293.619 28.1264 293.813 28.0724 293.947 27.9986C294.08 27.9247 294.147 27.8054 294.147 27.6406V27.4872C294.147 27.0412 294.013 26.6903 293.746 26.4347C293.482 26.1761 293.102 26.0469 292.604 26.0469C292.133 26.0469 291.748 26.1506 291.45 26.358C291.154 26.5653 290.947 26.8097 290.827 27.0909L290.107 26.831C290.255 26.473 290.46 26.1875 290.721 25.9744C290.982 25.7585 291.275 25.6037 291.599 25.5099C291.923 25.4134 292.251 25.3651 292.583 25.3651C292.833 25.3651 293.093 25.3977 293.363 25.4631C293.636 25.5284 293.888 25.642 294.121 25.804C294.354 25.9631 294.543 26.1861 294.688 26.473C294.833 26.7571 294.906 27.1179 294.906 27.5554V32H294.147V30.9645H294.1C294.009 31.1577 293.874 31.3452 293.695 31.527C293.516 31.7088 293.292 31.858 293.022 31.9744C292.752 32.0909 292.435 32.1491 292.072 32.1491ZM292.174 31.4545C292.577 31.4545 292.927 31.3651 293.222 31.1861C293.518 31.0071 293.745 30.7699 293.904 30.4744C294.066 30.1761 294.147 29.848 294.147 29.4901V28.544C294.09 28.598 293.995 28.6463 293.862 28.6889C293.731 28.7315 293.579 28.7699 293.406 28.804C293.235 28.8352 293.065 28.8622 292.894 28.8849C292.724 28.9077 292.57 28.9276 292.434 28.9446C292.065 28.9901 291.749 29.0611 291.488 29.1577C291.227 29.2543 291.026 29.3878 290.887 29.5582C290.748 29.7259 290.678 29.9418 290.678 30.206C290.678 30.6037 290.82 30.9119 291.104 31.1307C291.388 31.3466 291.745 31.4545 292.174 31.4545ZM299.501 25.4545V26.1151H296.378V25.4545H299.501ZM297.354 23.8864H298.116V30.2912C298.116 30.5639 298.163 30.7784 298.257 30.9347C298.351 31.0881 298.473 31.1974 298.624 31.2628C298.774 31.3253 298.935 31.3565 299.105 31.3565C299.205 31.3565 299.29 31.3509 299.361 31.3395C299.432 31.3253 299.494 31.3111 299.548 31.2969L299.71 31.983C299.636 32.0114 299.545 32.0369 299.438 32.0597C299.33 32.0852 299.196 32.098 299.037 32.098C298.759 32.098 298.49 32.0369 298.232 31.9148C297.976 31.7926 297.766 31.6108 297.601 31.3693C297.436 31.1278 297.354 30.8281 297.354 30.4702V23.8864ZM303.8 32.1364C303.189 32.1364 302.661 31.9943 302.215 31.7102C301.769 31.4233 301.424 31.027 301.179 30.5213C300.938 30.0128 300.817 29.4276 300.817 28.7656C300.817 28.1065 300.938 27.5213 301.179 27.0099C301.424 26.4957 301.76 26.0937 302.189 25.804C302.621 25.5114 303.12 25.3651 303.685 25.3651C304.04 25.3651 304.382 25.4304 304.712 25.5611C305.042 25.6889 305.337 25.8864 305.598 26.1534C305.863 26.4176 306.071 26.7514 306.225 27.1548C306.378 27.5554 306.455 28.0298 306.455 28.5781V28.9531H301.341V28.2841H305.679C305.679 27.8636 305.594 27.4858 305.424 27.1506C305.256 26.8125 305.022 26.5455 304.721 26.3494C304.422 26.1534 304.077 26.0554 303.685 26.0554C303.27 26.0554 302.905 26.1662 302.59 26.3878C302.275 26.6094 302.027 26.902 301.848 27.2656C301.672 27.6293 301.583 28.027 301.58 28.4588V28.8594C301.58 29.3793 301.669 29.8338 301.848 30.223C302.03 30.6094 302.287 30.9091 302.62 31.1222C302.952 31.3352 303.346 31.4418 303.8 31.4418C304.11 31.4418 304.381 31.3935 304.614 31.2969C304.85 31.2003 305.047 31.071 305.206 30.9091C305.368 30.7443 305.49 30.5639 305.573 30.3679L306.293 30.6023C306.194 30.8778 306.03 31.1321 305.803 31.3651C305.578 31.598 305.297 31.7855 304.959 31.9276C304.624 32.0668 304.238 32.1364 303.8 32.1364ZM308.885 27.9091V32H308.126V25.4545H308.864V26.4815H308.932C309.085 26.1463 309.324 25.8778 309.648 25.6761C309.974 25.4716 310.378 25.3693 310.858 25.3693C311.298 25.3693 311.685 25.4616 312.017 25.6463C312.352 25.8281 312.612 26.0966 312.797 26.4517C312.984 26.8068 313.078 27.2429 313.078 27.7599V32H312.32V27.8068C312.32 27.2699 312.169 26.8452 311.868 26.5327C311.57 26.2202 311.169 26.0639 310.666 26.0639C310.322 26.0639 310.017 26.1378 309.75 26.2855C309.483 26.4332 309.271 26.6463 309.115 26.9247C308.962 27.2003 308.885 27.5284 308.885 27.9091ZM318.608 32V23.2727H319.371V26.7031H319.439C319.525 26.5071 319.647 26.3054 319.806 26.098C319.968 25.8906 320.179 25.7173 320.441 25.5781C320.705 25.4361 321.037 25.3651 321.438 25.3651C321.975 25.3651 322.446 25.5071 322.853 25.7912C323.259 26.0724 323.576 26.4673 323.803 26.9759C324.03 27.4815 324.144 28.071 324.144 28.7443C324.144 29.4205 324.03 30.0128 323.803 30.5213C323.578 31.0298 323.263 31.4261 322.857 31.7102C322.453 31.9943 321.985 32.1364 321.451 32.1364C321.053 32.1364 320.721 32.0653 320.453 31.9233C320.189 31.7812 319.976 31.6065 319.814 31.3991C319.652 31.1889 319.527 30.9844 319.439 30.7855H319.346V32H318.608ZM319.358 28.7315C319.358 29.2599 319.436 29.7287 319.593 30.1378C319.752 30.544 319.979 30.8636 320.275 31.0966C320.573 31.3267 320.934 31.4418 321.357 31.4418C321.792 31.4418 322.159 31.3224 322.461 31.0838C322.762 30.8423 322.99 30.517 323.147 30.108C323.303 29.6989 323.381 29.2401 323.381 28.7315C323.381 28.2287 323.303 27.7756 323.147 27.3722C322.993 26.9687 322.766 26.6491 322.465 26.4134C322.164 26.1747 321.794 26.0554 321.357 26.0554C320.931 26.0554 320.569 26.1705 320.27 26.4006C319.975 26.6278 319.749 26.9432 319.593 27.3466C319.436 27.7472 319.358 28.2088 319.358 28.7315ZM328.456 32.1364C327.846 32.1364 327.317 31.9943 326.871 31.7102C326.425 31.4233 326.08 31.027 325.836 30.5213C325.594 30.0128 325.473 29.4276 325.473 28.7656C325.473 28.1065 325.594 27.5213 325.836 27.0099C326.08 26.4957 326.417 26.0937 326.846 25.804C327.277 25.5114 327.776 25.3651 328.341 25.3651C328.696 25.3651 329.039 25.4304 329.368 25.5611C329.698 25.6889 329.993 25.8864 330.255 26.1534C330.519 26.4176 330.728 26.7514 330.881 27.1548C331.034 27.5554 331.111 28.0298 331.111 28.5781V28.9531H325.998V28.2841H330.336C330.336 27.8636 330.25 27.4858 330.08 27.1506C329.912 26.8125 329.678 26.5455 329.377 26.3494C329.078 26.1534 328.733 26.0554 328.341 26.0554C327.926 26.0554 327.561 26.1662 327.246 26.3878C326.931 26.6094 326.684 26.902 326.505 27.2656C326.328 27.6293 326.239 28.027 326.236 28.4588V28.8594C326.236 29.3793 326.326 29.8338 326.505 30.223C326.686 30.6094 326.944 30.9091 327.276 31.1222C327.608 31.3352 328.002 31.4418 328.456 31.4418C328.766 31.4418 329.037 31.3935 329.27 31.2969C329.506 31.2003 329.703 31.071 329.863 30.9091C330.025 30.7443 330.147 30.5639 330.229 30.3679L330.949 30.6023C330.85 30.8778 330.686 31.1321 330.459 31.3651C330.235 31.598 329.953 31.7855 329.615 31.9276C329.28 32.0668 328.894 32.1364 328.456 32.1364ZM334.611 32.1491C334.216 32.1491 333.855 32.0724 333.528 31.919C333.202 31.7628 332.942 31.5384 332.749 31.2457C332.555 30.9503 332.459 30.5923 332.459 30.1719C332.459 29.848 332.52 29.5753 332.642 29.3537C332.764 29.1321 332.938 28.9503 333.162 28.8082C333.386 28.6662 333.652 28.554 333.959 28.4716C334.266 28.3892 334.604 28.3253 334.973 28.2798C335.339 28.2344 335.649 28.1946 335.902 28.1605C336.158 28.1264 336.352 28.0724 336.486 27.9986C336.619 27.9247 336.686 27.8054 336.686 27.6406V27.4872C336.686 27.0412 336.553 26.6903 336.286 26.4347C336.021 26.1761 335.641 26.0469 335.143 26.0469C334.672 26.0469 334.287 26.1506 333.989 26.358C333.693 26.5653 333.486 26.8097 333.366 27.0909L332.646 26.831C332.794 26.473 332.999 26.1875 333.26 25.9744C333.521 25.7585 333.814 25.6037 334.138 25.5099C334.462 25.4134 334.79 25.3651 335.122 25.3651C335.372 25.3651 335.632 25.3977 335.902 25.4631C336.175 25.5284 336.428 25.642 336.661 25.804C336.893 25.9631 337.082 26.1861 337.227 26.473C337.372 26.7571 337.445 27.1179 337.445 27.5554V32H336.686V30.9645H336.639C336.548 31.1577 336.413 31.3452 336.234 31.527C336.055 31.7088 335.831 31.858 335.561 31.9744C335.291 32.0909 334.974 32.1491 334.611 32.1491ZM334.713 31.4545C335.116 31.4545 335.466 31.3651 335.761 31.1861C336.057 31.0071 336.284 30.7699 336.443 30.4744C336.605 30.1761 336.686 29.848 336.686 29.4901V28.544C336.629 28.598 336.534 28.6463 336.401 28.6889C336.27 28.7315 336.118 28.7699 335.945 28.804C335.774 28.8352 335.604 28.8622 335.433 28.8849C335.263 28.9077 335.109 28.9276 334.973 28.9446C334.604 28.9901 334.288 29.0611 334.027 29.1577C333.766 29.2543 333.565 29.3878 333.426 29.5582C333.287 29.7259 333.217 29.9418 333.217 30.206C333.217 30.6037 333.359 30.9119 333.643 31.1307C333.928 31.3466 334.284 31.4545 334.713 31.4545ZM339.462 32V25.4545H340.2V26.4602H340.255C340.386 26.1307 340.613 25.8651 340.937 25.6634C341.263 25.4588 341.633 25.3565 342.045 25.3565C342.107 25.3565 342.177 25.358 342.254 25.3608C342.33 25.3636 342.394 25.3665 342.445 25.3693V26.1406C342.411 26.1349 342.352 26.1264 342.266 26.1151C342.181 26.1037 342.089 26.098 341.989 26.098C341.648 26.098 341.344 26.1705 341.077 26.3153C340.813 26.4574 340.604 26.6548 340.451 26.9077C340.298 27.1605 340.221 27.4489 340.221 27.7727V32H339.462ZM343.897 32V23.2727H344.66V26.7031H344.728C344.814 26.5071 344.936 26.3054 345.095 26.098C345.257 25.8906 345.468 25.7173 345.73 25.5781C345.994 25.4361 346.326 25.3651 346.727 25.3651C347.264 25.3651 347.735 25.5071 348.142 25.7912C348.548 26.0724 348.865 26.4673 349.092 26.9759C349.319 27.4815 349.433 28.071 349.433 28.7443C349.433 29.4205 349.319 30.0128 349.092 30.5213C348.868 31.0298 348.552 31.4261 348.146 31.7102C347.743 31.9943 347.274 32.1364 346.74 32.1364C346.342 32.1364 346.01 32.0653 345.743 31.9233C345.478 31.7812 345.265 31.6065 345.103 31.3991C344.941 31.1889 344.816 30.9844 344.728 30.7855H344.635V32H343.897ZM344.647 28.7315C344.647 29.2599 344.725 29.7287 344.882 30.1378C345.041 30.544 345.268 30.8636 345.564 31.0966C345.862 31.3267 346.223 31.4418 346.646 31.4418C347.081 31.4418 347.449 31.3224 347.75 31.0838C348.051 30.8423 348.279 30.517 348.436 30.108C348.592 29.6989 348.67 29.2401 348.67 28.7315C348.67 28.2287 348.592 27.7756 348.436 27.3722C348.282 26.9687 348.055 26.6491 347.754 26.4134C347.453 26.1747 347.083 26.0554 346.646 26.0554C346.22 26.0554 345.858 26.1705 345.559 26.4006C345.264 26.6278 345.038 26.9432 344.882 27.3466C344.725 27.7472 344.647 28.2088 344.647 28.7315ZM353.745 32.1364C353.135 32.1364 352.606 31.9943 352.16 31.7102C351.714 31.4233 351.369 31.027 351.125 30.5213C350.883 30.0128 350.762 29.4276 350.762 28.7656C350.762 28.1065 350.883 27.5213 351.125 27.0099C351.369 26.4957 351.706 26.0937 352.135 25.804C352.566 25.5114 353.065 25.3651 353.63 25.3651C353.985 25.3651 354.328 25.4304 354.657 25.5611C354.987 25.6889 355.282 25.8864 355.544 26.1534C355.808 26.4176 356.017 26.7514 356.17 27.1548C356.324 27.5554 356.4 28.0298 356.4 28.5781V28.9531H351.287V28.2841H355.625C355.625 27.8636 355.539 27.4858 355.369 27.1506C355.201 26.8125 354.967 26.5455 354.666 26.3494C354.368 26.1534 354.022 26.0554 353.63 26.0554C353.216 26.0554 352.85 26.1662 352.535 26.3878C352.22 26.6094 351.973 26.902 351.794 27.2656C351.618 27.6293 351.528 28.027 351.525 28.4588V28.8594C351.525 29.3793 351.615 29.8338 351.794 30.223C351.975 30.6094 352.233 30.9091 352.565 31.1222C352.897 31.3352 353.291 31.4418 353.745 31.4418C354.055 31.4418 354.326 31.3935 354.559 31.2969C354.795 31.2003 354.993 31.071 355.152 30.9091C355.314 30.7443 355.436 30.5639 355.518 30.3679L356.238 30.6023C356.139 30.8778 355.975 31.1321 355.748 31.3651C355.524 31.598 355.243 31.7855 354.904 31.9276C354.569 32.0668 354.183 32.1364 353.745 32.1364ZM358.08 32V25.4545H358.843V32H358.08ZM358.468 24.3295C358.312 24.3295 358.178 24.277 358.067 24.1719C357.957 24.0639 357.901 23.9347 357.901 23.7841C357.901 23.6335 357.957 23.5057 358.067 23.4006C358.178 23.2926 358.312 23.2386 358.468 23.2386C358.624 23.2386 358.758 23.2926 358.869 23.4006C358.979 23.5057 359.035 23.6335 359.035 23.7841C359.035 23.9347 358.979 24.0639 358.869 24.1719C358.758 24.277 358.624 24.3295 358.468 24.3295ZM363.427 25.4545V26.1151H360.304V25.4545H363.427ZM361.279 23.8864H362.042V30.2912C362.042 30.5639 362.089 30.7784 362.183 30.9347C362.277 31.0881 362.399 31.1974 362.549 31.2628C362.7 31.3253 362.86 31.3565 363.031 31.3565C363.13 31.3565 363.216 31.3509 363.287 31.3395C363.358 31.3253 363.42 31.3111 363.474 31.2969L363.636 31.983C363.562 32.0114 363.471 32.0369 363.363 32.0597C363.255 32.0852 363.122 32.098 362.963 32.098C362.684 32.098 362.416 32.0369 362.157 31.9148C361.902 31.7926 361.691 31.6108 361.527 31.3693C361.362 31.1278 361.279 30.8281 361.279 30.4702V23.8864ZM367.726 32.1364C367.115 32.1364 366.587 31.9943 366.141 31.7102C365.695 31.4233 365.349 31.027 365.105 30.5213C364.864 30.0128 364.743 29.4276 364.743 28.7656C364.743 28.1065 364.864 27.5213 365.105 27.0099C365.349 26.4957 365.686 26.0937 366.115 25.804C366.547 25.5114 367.045 25.3651 367.611 25.3651C367.966 25.3651 368.308 25.4304 368.638 25.5611C368.967 25.6889 369.263 25.8864 369.524 26.1534C369.788 26.4176 369.997 26.7514 370.151 27.1548C370.304 27.5554 370.381 28.0298 370.381 28.5781V28.9531H365.267V28.2841H369.605C369.605 27.8636 369.52 27.4858 369.349 27.1506C369.182 26.8125 368.947 26.5455 368.646 26.3494C368.348 26.1534 368.003 26.0554 367.611 26.0554C367.196 26.0554 366.831 26.1662 366.516 26.3878C366.2 26.6094 365.953 26.902 365.774 27.2656C365.598 27.6293 365.509 28.027 365.506 28.4588V28.8594C365.506 29.3793 365.595 29.8338 365.774 30.223C365.956 30.6094 366.213 30.9091 366.545 31.1222C366.878 31.3352 367.271 31.4418 367.726 31.4418C368.036 31.4418 368.307 31.3935 368.54 31.2969C368.776 31.2003 368.973 31.071 369.132 30.9091C369.294 30.7443 369.416 30.5639 369.499 30.3679L370.219 30.6023C370.119 30.8778 369.956 31.1321 369.729 31.3651C369.504 31.598 369.223 31.7855 368.885 31.9276C368.55 32.0668 368.163 32.1364 367.726 32.1364ZM372.811 27.9091V32H372.052V25.4545H372.789V26.4815H372.858C373.011 26.1463 373.25 25.8778 373.574 25.6761C373.9 25.4716 374.304 25.3693 374.784 25.3693C375.224 25.3693 375.61 25.4616 375.943 25.6463C376.278 25.8281 376.538 26.0966 376.723 26.4517C376.91 26.8068 377.004 27.2429 377.004 27.7599V32H376.245V27.8068C376.245 27.2699 376.095 26.8452 375.794 26.5327C375.495 26.2202 375.095 26.0639 374.592 26.0639C374.248 26.0639 373.943 26.1378 373.676 26.2855C373.409 26.4332 373.197 26.6463 373.041 26.9247C372.887 27.2003 372.811 27.5284 372.811 27.9091Z" fill="white" fill-opacity="0.8"/>
</g>
<path d="M37 28H25.83L30.71 23.12C31.1 22.73 31.1 22.09 30.71 21.7C30.6175 21.6073 30.5076 21.5338 30.3867 21.4836C30.2657 21.4334 30.136 21.4076 30.005 21.4076C29.8741 21.4076 29.7444 21.4334 29.6234 21.4836C29.5024 21.5338 29.3926 21.6073 29.3 21.7L22.71 28.29C22.6173 28.3825 22.5438 28.4924 22.4936 28.6134C22.4434 28.7344 22.4176 28.864 22.4176 28.995C22.4176 29.126 22.4434 29.2557 22.4936 29.3766C22.5438 29.4976 22.6173 29.6075 22.71 29.7L29.3 36.29C29.3926 36.3826 29.5025 36.456 29.6235 36.5061C29.7445 36.5562 29.8741 36.582 30.005 36.582C30.136 36.582 30.2656 36.5562 30.3866 36.5061C30.5076 36.456 30.6175 36.3826 30.71 36.29C30.8026 36.1974 30.8761 36.0875 30.9262 35.9665C30.9763 35.8456 31.0021 35.7159 31.0021 35.585C31.0021 35.4541 30.9763 35.3244 30.9262 35.2035C30.8761 35.0825 30.8026 34.9726 30.71 34.88L25.83 30H37C37.55 30 38 29.55 38 29C38 28.45 37.55 28 37 28Z" fill="white" fill-opacity="0.79"/>
<path d="M50.8139 33V32.3991L55.6591 24.9886H50.7884V24.2727H56.6094V24.8736L51.7599 32.2841H56.652V33H50.8139ZM62.5785 30.4986V26.4545H63.337V33H62.5785V31.9134H62.5188C62.3654 32.2486 62.1225 32.5284 61.7901 32.7528C61.4577 32.9744 61.0515 33.0852 60.5714 33.0852C60.1538 33.0852 59.783 32.9943 59.4592 32.8125C59.1353 32.6278 58.881 32.358 58.6964 32.0028C58.5117 31.6477 58.4194 31.2116 58.4194 30.6946V26.4545H59.1779V30.6477C59.1779 31.1591 59.3285 31.571 59.6296 31.8835C59.9308 32.1932 60.3171 32.348 60.7887 32.348C61.0842 32.348 61.3683 32.277 61.641 32.1349C61.9137 31.9929 62.1381 31.7855 62.3143 31.5128C62.4904 31.2372 62.5785 30.8991 62.5785 30.4986ZM65.3452 33V26.4545H66.0824V27.4602H66.1378C66.2685 27.1307 66.4957 26.8651 66.8196 26.6634C67.1463 26.4588 67.5156 26.3565 67.9276 26.3565C67.9901 26.3565 68.0597 26.358 68.1364 26.3608C68.2131 26.3636 68.277 26.3665 68.3281 26.3693V27.1406C68.294 27.1349 68.2344 27.1264 68.1491 27.1151C68.0639 27.1037 67.9716 27.098 67.8722 27.098C67.5313 27.098 67.2273 27.1705 66.9602 27.3153C66.696 27.4574 66.4872 27.6548 66.3338 27.9077C66.1804 28.1605 66.1037 28.4489 66.1037 28.7727V33H65.3452ZM73.7816 30.4986V26.4545H74.5401V33H73.7816V31.9134H73.7219C73.5685 32.2486 73.3256 32.5284 72.9933 32.7528C72.6609 32.9744 72.2546 33.0852 71.7745 33.0852C71.3569 33.0852 70.9862 32.9943 70.6623 32.8125C70.3384 32.6278 70.0842 32.358 69.8995 32.0028C69.7148 31.6477 69.6225 31.2116 69.6225 30.6946V26.4545H70.381V30.6477C70.381 31.1591 70.5316 31.571 70.8327 31.8835C71.1339 32.1932 71.5202 32.348 71.9918 32.348C72.2873 32.348 72.5714 32.277 72.8441 32.1349C73.1168 31.9929 73.3413 31.7855 73.5174 31.5128C73.6935 31.2372 73.7816 30.8991 73.7816 30.4986ZM70.9947 25.3295C70.8498 25.3295 70.7219 25.2756 70.6112 25.1676C70.5032 25.0568 70.4492 24.929 70.4492 24.7841C70.4492 24.6278 70.5032 24.4986 70.6112 24.3963C70.7219 24.2912 70.8498 24.2386 70.9947 24.2386C71.1509 24.2386 71.2802 24.2912 71.3825 24.3963C71.4876 24.4986 71.5401 24.6278 71.5401 24.7841C71.5401 24.929 71.4876 25.0568 71.3825 25.1676C71.2802 25.2756 71.1509 25.3295 70.9947 25.3295ZM73.1765 25.3295C73.0316 25.3295 72.9038 25.2756 72.793 25.1676C72.685 25.0568 72.631 24.929 72.631 24.7841C72.631 24.6278 72.685 24.4986 72.793 24.3963C72.9038 24.2912 73.0316 24.2386 73.1765 24.2386C73.3327 24.2386 73.462 24.2912 73.5643 24.3963C73.6694 24.4986 73.7219 24.6278 73.7219 24.7841C73.7219 24.929 73.6694 25.0568 73.5643 25.1676C73.462 25.2756 73.3327 25.3295 73.1765 25.3295ZM79.1051 33.1364C78.5199 33.1364 78.0099 32.9901 77.5753 32.6974C77.1435 32.4048 76.8082 32.0043 76.5696 31.4957C76.331 30.9872 76.2116 30.4077 76.2116 29.7571C76.2116 29.1009 76.3324 28.517 76.5739 28.0057C76.8182 27.4943 77.1563 27.0937 77.5881 26.804C78.0199 26.5114 78.5213 26.3651 79.0923 26.3651C79.5298 26.3651 79.9261 26.4503 80.2812 26.6207C80.6364 26.7884 80.929 27.0256 81.1591 27.3324C81.392 27.6364 81.5384 27.9915 81.598 28.3977H80.831C80.7514 28.0284 80.5597 27.7131 80.2557 27.4517C79.9545 27.1875 79.571 27.0554 79.1051 27.0554C78.6875 27.0554 78.3182 27.169 77.9972 27.3963C77.6761 27.6207 77.4247 27.9347 77.2429 28.3381C77.0639 28.7386 76.9744 29.2031 76.9744 29.7315C76.9744 30.2628 77.0625 30.733 77.2386 31.142C77.4148 31.5483 77.6619 31.8665 77.9801 32.0966C78.3011 32.3267 78.6761 32.4418 79.1051 32.4418C79.3949 32.4418 79.6591 32.3878 79.8977 32.2798C80.1392 32.169 80.3409 32.0128 80.5028 31.8111C80.6676 31.6094 80.7784 31.3693 80.8352 31.0909H81.6023C81.5455 31.4858 81.4048 31.8381 81.1804 32.1477C80.9588 32.4545 80.6705 32.696 80.3153 32.8722C79.9631 33.0483 79.5597 33.1364 79.1051 33.1364ZM83.9183 30.5284L83.9098 29.5355H84.0803L87.1484 26.4545H88.1072L85.0774 29.4886L85.0092 29.5014L83.9183 30.5284ZM83.228 33V24.2727H83.9865V33H83.228ZM87.3061 33L84.647 29.6378L85.1925 29.1136L88.2777 33H87.3061Z" fill="white" fill-opacity="0.8"/>
<path d="M24.3182 89.5455H26.1591L32.4915 104.75H32.6449L38.9773 89.5455H40.8182V107H39.3182V92.9119H39.1818L33.2926 107H31.8438L25.9545 92.9119H25.8182V107H24.3182V89.5455ZM48.7997 107.298C48.0099 107.298 47.2884 107.145 46.6349 106.838C45.9815 106.526 45.4616 106.077 45.0753 105.491C44.6889 104.901 44.4957 104.185 44.4957 103.344C44.4957 102.696 44.6179 102.151 44.8622 101.707C45.1065 101.264 45.4531 100.901 45.902 100.616C46.3509 100.332 46.8821 100.108 47.4957 99.9432C48.1094 99.7784 48.7855 99.6506 49.5241 99.5597C50.2571 99.4687 50.8764 99.3892 51.3821 99.321C51.8935 99.2528 52.2827 99.1449 52.5497 98.9972C52.8168 98.8494 52.9503 98.6108 52.9503 98.2812V97.9744C52.9503 97.0824 52.6832 96.3807 52.1491 95.8693C51.6207 95.3523 50.8594 95.0938 49.8651 95.0938C48.9219 95.0938 48.152 95.3011 47.5554 95.7159C46.9645 96.1307 46.5497 96.6193 46.3111 97.1818L44.8707 96.6619C45.1662 95.946 45.5753 95.375 46.098 94.9489C46.6207 94.517 47.206 94.2074 47.8537 94.0199C48.5014 93.8267 49.1577 93.7301 49.8224 93.7301C50.3224 93.7301 50.8423 93.7955 51.3821 93.9261C51.9276 94.0568 52.4332 94.2841 52.8991 94.608C53.3651 94.9261 53.7429 95.3722 54.0327 95.946C54.3224 96.5142 54.4673 97.2358 54.4673 98.1108V107H52.9503V104.929H52.8565C52.6747 105.315 52.4048 105.69 52.0469 106.054C51.6889 106.418 51.2401 106.716 50.7003 106.949C50.1605 107.182 49.527 107.298 48.7997 107.298ZM49.0043 105.909C49.8111 105.909 50.5099 105.73 51.1009 105.372C51.6918 105.014 52.1463 104.54 52.4645 103.949C52.7884 103.352 52.9503 102.696 52.9503 101.98V100.088C52.8366 100.196 52.6463 100.293 52.3793 100.378C52.1179 100.463 51.8139 100.54 51.4673 100.608C51.1264 100.67 50.7855 100.724 50.4446 100.77C50.1037 100.815 49.7969 100.855 49.5241 100.889C48.7855 100.98 48.1548 101.122 47.6321 101.315C47.1094 101.509 46.7088 101.776 46.4304 102.116C46.152 102.452 46.0128 102.884 46.0128 103.412C46.0128 104.207 46.2969 104.824 46.8651 105.261C47.4332 105.693 48.1463 105.909 49.0043 105.909ZM59.4403 93.9091L62.8153 99.4915L66.1903 93.9091H67.9545L63.7443 100.455L67.9545 107H66.1903L62.8153 101.597L59.4403 107H57.6847L61.8438 100.455L57.6847 93.9091H59.4403ZM71.1527 107V93.9091H72.6783V107H71.1527ZM71.9283 91.6591C71.6158 91.6591 71.3487 91.554 71.1271 91.3438C70.9055 91.1278 70.7947 90.8693 70.7947 90.5682C70.7947 90.267 70.9055 90.0114 71.1271 89.8011C71.3487 89.5852 71.6158 89.4773 71.9283 89.4773C72.2408 89.4773 72.5078 89.5852 72.7294 89.8011C72.951 90.0114 73.0618 90.267 73.0618 90.5682C73.0618 90.8693 72.951 91.1278 72.7294 91.3438C72.5078 91.554 72.2408 91.6591 71.9283 91.6591ZM76.6903 107V93.9091H78.1648V95.9205H78.3011C78.5625 95.2443 78.9972 94.7131 79.6051 94.3267C80.2188 93.9347 80.9545 93.7386 81.8125 93.7386C82.7159 93.7386 83.4574 93.9517 84.0369 94.3778C84.6222 94.7983 85.0597 95.3778 85.3494 96.1165H85.4602C85.7557 95.3892 86.2358 94.8125 86.9006 94.3864C87.571 93.9545 88.3835 93.7386 89.3381 93.7386C90.554 93.7386 91.5142 94.1222 92.2188 94.8892C92.9233 95.6506 93.2756 96.7642 93.2756 98.2301V107H91.7585V98.2301C91.7585 97.196 91.4943 96.4205 90.9659 95.9034C90.4375 95.3864 89.7415 95.1278 88.8778 95.1278C87.8778 95.1278 87.108 95.4347 86.5682 96.0483C86.0284 96.6619 85.7585 97.4403 85.7585 98.3835V107H84.2074V98.0938C84.2074 97.2074 83.9602 96.4915 83.4659 95.946C82.9716 95.4006 82.2756 95.1278 81.3778 95.1278C80.7756 95.1278 80.233 95.2756 79.75 95.571C79.2727 95.8665 78.8949 96.2784 78.6165 96.8068C78.3438 97.3295 78.2074 97.9318 78.2074 98.6136V107H76.6903ZM97.3089 107V93.9091H98.8345V107H97.3089ZM98.0845 91.6591C97.772 91.6591 97.505 91.554 97.2834 91.3438C97.0618 91.1278 96.951 90.8693 96.951 90.5682C96.951 90.267 97.0618 90.0114 97.2834 89.8011C97.505 89.5852 97.772 89.4773 98.0845 89.4773C98.397 89.4773 98.6641 89.5852 98.8857 89.8011C99.1072 90.0114 99.218 90.267 99.218 90.5682C99.218 90.8693 99.1072 91.1278 98.8857 91.3438C98.6641 91.554 98.397 91.6591 98.0845 91.6591ZM104.364 89.5455V107H102.847V89.5455H104.364ZM108.395 107V93.9091H109.92V107H108.395ZM109.17 91.6591C108.858 91.6591 108.591 91.554 108.369 91.3438C108.148 91.1278 108.037 90.8693 108.037 90.5682C108.037 90.267 108.148 90.0114 108.369 89.8011C108.591 89.5852 108.858 89.4773 109.17 89.4773C109.483 89.4773 109.75 89.5852 109.972 89.8011C110.193 90.0114 110.304 90.267 110.304 90.5682C110.304 90.8693 110.193 91.1278 109.972 91.3438C109.75 91.554 109.483 91.6591 109.17 91.6591ZM117.589 107.298C116.799 107.298 116.077 107.145 115.424 106.838C114.771 106.526 114.251 106.077 113.864 105.491C113.478 104.901 113.285 104.185 113.285 103.344C113.285 102.696 113.407 102.151 113.651 101.707C113.896 101.264 114.242 100.901 114.691 100.616C115.14 100.332 115.671 100.108 116.285 99.9432C116.898 99.7784 117.575 99.6506 118.313 99.5597C119.046 99.4687 119.665 99.3892 120.171 99.321C120.683 99.2528 121.072 99.1449 121.339 98.9972C121.606 98.8494 121.739 98.6108 121.739 98.2812V97.9744C121.739 97.0824 121.472 96.3807 120.938 95.8693C120.41 95.3523 119.648 95.0938 118.654 95.0938C117.711 95.0938 116.941 95.3011 116.344 95.7159C115.754 96.1307 115.339 96.6193 115.1 97.1818L113.66 96.6619C113.955 95.946 114.364 95.375 114.887 94.9489C115.41 94.517 115.995 94.2074 116.643 94.0199C117.29 93.8267 117.947 93.7301 118.612 93.7301C119.112 93.7301 119.631 93.7955 120.171 93.9261C120.717 94.0568 121.222 94.2841 121.688 94.608C122.154 94.9261 122.532 95.3722 122.822 95.946C123.112 96.5142 123.256 97.2358 123.256 98.1108V107H121.739V104.929H121.646C121.464 105.315 121.194 105.69 120.836 106.054C120.478 106.418 120.029 106.716 119.489 106.949C118.95 107.182 118.316 107.298 117.589 107.298ZM117.793 105.909C118.6 105.909 119.299 105.73 119.89 105.372C120.481 105.014 120.935 104.54 121.254 103.949C121.577 103.352 121.739 102.696 121.739 101.98V100.088C121.626 100.196 121.435 100.293 121.168 100.378C120.907 100.463 120.603 100.54 120.256 100.608C119.915 100.67 119.575 100.724 119.234 100.77C118.893 100.815 118.586 100.855 118.313 100.889C117.575 100.98 116.944 101.122 116.421 101.315C115.898 101.509 115.498 101.776 115.219 102.116C114.941 102.452 114.802 102.884 114.802 103.412C114.802 104.207 115.086 104.824 115.654 105.261C116.222 105.693 116.935 105.909 117.793 105.909ZM128.809 98.8182V107H127.292V93.9091H128.766V95.9631H128.903C129.21 95.2926 129.687 94.7557 130.335 94.3523C130.988 93.9432 131.795 93.7386 132.755 93.7386C133.636 93.7386 134.408 93.9233 135.073 94.2926C135.744 94.6562 136.263 95.1932 136.633 95.9034C137.008 96.6136 137.195 97.4858 137.195 98.5199V107H135.678V98.6136C135.678 97.5398 135.377 96.6903 134.775 96.0653C134.178 95.4403 133.377 95.1278 132.371 95.1278C131.684 95.1278 131.073 95.2756 130.539 95.571C130.005 95.8665 129.582 96.2926 129.269 96.8494C128.962 97.4006 128.809 98.0568 128.809 98.8182ZM159.889 89.5455H161.483V101.102C161.483 102.29 161.205 103.352 160.648 104.29C160.091 105.222 159.315 105.957 158.321 106.497C157.332 107.031 156.182 107.298 154.869 107.298C153.563 107.298 152.412 107.028 151.418 106.489C150.423 105.949 149.648 105.213 149.091 104.281C148.534 103.349 148.256 102.29 148.256 101.102V89.5455H149.849V100.991C149.849 101.918 150.057 102.744 150.472 103.472C150.886 104.193 151.469 104.761 152.219 105.176C152.974 105.591 153.858 105.798 154.869 105.798C155.881 105.798 156.764 105.591 157.52 105.176C158.276 104.761 158.858 104.193 159.267 103.472C159.682 102.744 159.889 101.918 159.889 100.991V89.5455ZM167.317 89.5455V107H165.8V89.5455H167.317ZM171.331 107V93.9091H172.805V95.9205H172.916C173.178 95.2614 173.632 94.7301 174.28 94.3267C174.933 93.9176 175.672 93.7131 176.496 93.7131C176.621 93.7131 176.76 93.7159 176.913 93.7216C177.067 93.7273 177.195 93.733 177.297 93.7386V95.2812C177.229 95.2699 177.109 95.2528 176.939 95.2301C176.768 95.2074 176.584 95.196 176.385 95.196C175.703 95.196 175.095 95.3409 174.561 95.6307C174.033 95.9148 173.615 96.3097 173.308 96.8153C173.001 97.321 172.848 97.8977 172.848 98.5455V107H171.331ZM179.903 107V93.9091H181.428V107H179.903ZM180.678 91.6591C180.366 91.6591 180.099 91.554 179.877 91.3438C179.656 91.1278 179.545 90.8693 179.545 90.5682C179.545 90.267 179.656 90.0114 179.877 89.8011C180.099 89.5852 180.366 89.4773 180.678 89.4773C180.991 89.4773 181.258 89.5852 181.479 89.8011C181.701 90.0114 181.812 90.267 181.812 90.5682C181.812 90.8693 181.701 91.1278 181.479 91.3438C181.258 91.554 180.991 91.6591 180.678 91.6591ZM190.554 107.273C189.384 107.273 188.364 106.98 187.494 106.395C186.631 105.81 185.96 105.009 185.483 103.991C185.006 102.974 184.767 101.815 184.767 100.514C184.767 99.2017 185.009 98.0341 185.491 97.0114C185.98 95.9886 186.656 95.1875 187.52 94.608C188.384 94.0227 189.386 93.7301 190.528 93.7301C191.403 93.7301 192.196 93.9006 192.906 94.2415C193.616 94.5767 194.202 95.0511 194.662 95.6648C195.128 96.2727 195.42 96.983 195.54 97.7955H194.006C193.847 97.0568 193.463 96.4261 192.855 95.9034C192.253 95.375 191.486 95.1108 190.554 95.1108C189.719 95.1108 188.98 95.3381 188.338 95.7926C187.696 96.2415 187.193 96.8693 186.83 97.6761C186.472 98.4773 186.293 99.4062 186.293 100.463C186.293 101.526 186.469 102.466 186.821 103.284C187.173 104.097 187.668 104.733 188.304 105.193C188.946 105.653 189.696 105.884 190.554 105.884C191.134 105.884 191.662 105.776 192.139 105.56C192.622 105.338 193.026 105.026 193.349 104.622C193.679 104.219 193.901 103.739 194.014 103.182H195.548C195.435 103.972 195.153 104.676 194.705 105.295C194.261 105.909 193.685 106.392 192.974 106.744C192.27 107.097 191.463 107.273 190.554 107.273ZM200.317 98.8182V107H198.8V89.5455H200.317V95.9631H200.453C200.76 95.2869 201.234 94.7472 201.876 94.3438C202.524 93.9403 203.342 93.7386 204.331 93.7386C205.217 93.7386 205.996 93.9205 206.666 94.2841C207.337 94.6477 207.859 95.1847 208.234 95.8949C208.609 96.6051 208.797 97.4801 208.797 98.5199V107H207.271V98.6136C207.271 97.5341 206.97 96.6847 206.368 96.0653C205.771 95.4403 204.964 95.1278 203.947 95.1278C203.249 95.1278 202.626 95.2756 202.081 95.571C201.536 95.8665 201.104 96.2926 200.786 96.8494C200.473 97.4006 200.317 98.0568 200.317 98.8182Z" fill="white"/>
<path d="M66.1719 159H65.3366L68.5114 150.273H69.3636L72.5384 159H71.7031L68.9673 151.308H68.9077L66.1719 159ZM66.7727 155.655H71.1023V156.371H66.7727V155.655ZM67.8466 149.148C67.7017 149.148 67.5739 149.094 67.4631 148.986C67.3551 148.875 67.3011 148.747 67.3011 148.602C67.3011 148.446 67.3551 148.317 67.4631 148.214C67.5739 148.109 67.7017 148.057 67.8466 148.057C68.0028 148.057 68.1321 148.109 68.2344 148.214C68.3395 148.317 68.392 148.446 68.392 148.602C68.392 148.747 68.3395 148.875 68.2344 148.986C68.1321 149.094 68.0028 149.148 67.8466 149.148ZM70.0284 149.148C69.8835 149.148 69.7557 149.094 69.6449 148.986C69.5369 148.875 69.483 148.747 69.483 148.602C69.483 148.446 69.5369 148.317 69.6449 148.214C69.7557 148.109 69.8835 148.057 70.0284 148.057C70.1847 148.057 70.3139 148.109 70.4162 148.214C70.5213 148.317 70.5739 148.446 70.5739 148.602C70.5739 148.747 70.5213 148.875 70.4162 148.986C70.3139 149.094 70.1847 149.148 70.0284 149.148ZM74.6349 154.909V159H73.8764V152.455H74.6136V153.482H74.6818C74.8352 153.146 75.0739 152.878 75.3977 152.676C75.7244 152.472 76.1278 152.369 76.608 152.369C77.0483 152.369 77.4347 152.462 77.767 152.646C78.1023 152.828 78.3622 153.097 78.5469 153.452C78.7344 153.807 78.8281 154.243 78.8281 154.76V159H78.0696V154.807C78.0696 154.27 77.919 153.845 77.6179 153.533C77.3196 153.22 76.919 153.064 76.4162 153.064C76.0724 153.064 75.767 153.138 75.5 153.286C75.233 153.433 75.0213 153.646 74.8651 153.925C74.7116 154.2 74.6349 154.528 74.6349 154.909ZM83.1822 159.136C82.6452 159.136 82.1751 158.994 81.7717 158.71C81.3683 158.426 81.0529 158.03 80.8256 157.521C80.6012 157.013 80.489 156.42 80.489 155.744C80.489 155.071 80.6012 154.482 80.8256 153.976C81.0529 153.467 81.3697 153.072 81.7759 152.791C82.1822 152.507 82.6552 152.365 83.195 152.365C83.5927 152.365 83.9237 152.436 84.1879 152.578C84.4521 152.717 84.6637 152.891 84.8228 153.098C84.9819 153.305 85.1055 153.507 85.1935 153.703H85.2617V150.273H86.0245V159H85.283V157.786H85.1935C85.1055 157.984 84.9805 158.189 84.8185 158.399C84.6566 158.607 84.4421 158.781 84.1751 158.923C83.9109 159.065 83.5799 159.136 83.1822 159.136ZM83.2717 158.442C83.695 158.442 84.0558 158.327 84.354 158.097C84.6523 157.864 84.8796 157.544 85.0359 157.138C85.195 156.729 85.2745 156.26 85.2745 155.732C85.2745 155.209 85.1964 154.747 85.0401 154.347C84.8839 153.943 84.6566 153.628 84.3583 153.401C84.06 153.17 83.6978 153.055 83.2717 153.055C82.8342 153.055 82.4648 153.175 82.1637 153.413C81.8654 153.649 81.6381 153.969 81.4819 154.372C81.3285 154.776 81.2518 155.229 81.2518 155.732C81.2518 156.24 81.3299 156.699 81.4862 157.108C81.6424 157.517 81.8697 157.842 82.168 158.084C82.4691 158.322 82.837 158.442 83.2717 158.442ZM90.8313 159.136C90.2205 159.136 89.6921 158.994 89.2461 158.71C88.8001 158.423 88.4549 158.027 88.2106 157.521C87.9691 157.013 87.8484 156.428 87.8484 155.766C87.8484 155.107 87.9691 154.521 88.2106 154.01C88.4549 153.496 88.7915 153.094 89.2205 152.804C89.6523 152.511 90.1509 152.365 90.7163 152.365C91.0714 152.365 91.4137 152.43 91.7433 152.561C92.0728 152.689 92.3683 152.886 92.6296 153.153C92.8938 153.418 93.1026 153.751 93.256 154.155C93.4094 154.555 93.4862 155.03 93.4862 155.578V155.953H88.3725V155.284H92.7106C92.7106 154.864 92.6254 154.486 92.4549 154.151C92.2873 153.812 92.0529 153.545 91.7518 153.349C91.4535 153.153 91.1083 153.055 90.7163 153.055C90.3015 153.055 89.9364 153.166 89.6211 153.388C89.3058 153.609 89.0586 153.902 88.8796 154.266C88.7035 154.629 88.614 155.027 88.6112 155.459V155.859C88.6112 156.379 88.7006 156.834 88.8796 157.223C89.0614 157.609 89.3185 157.909 89.6509 158.122C89.9833 158.335 90.3768 158.442 90.8313 158.442C91.141 158.442 91.4123 158.393 91.6452 158.297C91.881 158.2 92.0785 158.071 92.2376 157.909C92.3995 157.744 92.5217 157.564 92.604 157.368L93.3242 157.602C93.2248 157.878 93.0614 158.132 92.8342 158.365C92.6097 158.598 92.3285 158.786 91.9904 158.928C91.6552 159.067 91.2688 159.136 90.8313 159.136ZM95.1577 159V152.455H95.8949V153.46H95.9503C96.081 153.131 96.3082 152.865 96.6321 152.663C96.9588 152.459 97.3281 152.357 97.7401 152.357C97.8026 152.357 97.8722 152.358 97.9489 152.361C98.0256 152.364 98.0895 152.366 98.1406 152.369V153.141C98.1065 153.135 98.0469 153.126 97.9616 153.115C97.8764 153.104 97.7841 153.098 97.6847 153.098C97.3438 153.098 97.0398 153.17 96.7727 153.315C96.5085 153.457 96.2997 153.655 96.1463 153.908C95.9929 154.161 95.9162 154.449 95.9162 154.773V159H95.1577ZM103.594 156.499V152.455H104.353V159H103.594V157.913H103.534C103.381 158.249 103.138 158.528 102.806 158.753C102.473 158.974 102.067 159.085 101.587 159.085C101.169 159.085 100.799 158.994 100.475 158.812C100.151 158.628 99.8967 158.358 99.712 158.003C99.5273 157.648 99.435 157.212 99.435 156.695V152.455H100.194V156.648C100.194 157.159 100.344 157.571 100.645 157.884C100.946 158.193 101.333 158.348 101.804 158.348C102.1 158.348 102.384 158.277 102.657 158.135C102.929 157.993 103.154 157.786 103.33 157.513C103.506 157.237 103.594 156.899 103.594 156.499ZM107.119 154.909V159H106.361V152.455H107.098V153.482H107.166C107.32 153.146 107.558 152.878 107.882 152.676C108.209 152.472 108.612 152.369 109.092 152.369C109.533 152.369 109.919 152.462 110.251 152.646C110.587 152.828 110.847 153.097 111.031 153.452C111.219 153.807 111.312 154.243 111.312 154.76V159H110.554V154.807C110.554 154.27 110.403 153.845 110.102 153.533C109.804 153.22 109.403 153.064 108.901 153.064C108.557 153.064 108.251 153.138 107.984 153.286C107.717 153.433 107.506 153.646 107.349 153.925C107.196 154.2 107.119 154.528 107.119 154.909ZM115.807 161.591C115.361 161.591 114.971 161.533 114.635 161.416C114.3 161.303 114.017 161.146 113.787 160.947C113.557 160.749 113.378 160.526 113.25 160.278L113.873 159.869C113.966 160.034 114.091 160.196 114.248 160.355C114.407 160.514 114.613 160.646 114.865 160.751C115.121 160.857 115.435 160.909 115.807 160.909C116.387 160.909 116.854 160.764 117.209 160.474C117.567 160.185 117.746 159.734 117.746 159.124V157.649H117.678C117.59 157.848 117.463 158.047 117.299 158.246C117.134 158.442 116.918 158.605 116.651 158.736C116.387 158.866 116.059 158.932 115.667 158.932C115.144 158.932 114.679 158.803 114.273 158.544C113.87 158.286 113.551 157.916 113.319 157.436C113.088 156.953 112.973 156.378 112.973 155.71C112.973 155.048 113.086 154.466 113.31 153.963C113.537 153.46 113.854 153.068 114.26 152.787C114.667 152.506 115.14 152.365 115.679 152.365C116.08 152.365 116.412 152.436 116.676 152.578C116.941 152.717 117.152 152.891 117.311 153.098C117.473 153.305 117.6 153.507 117.691 153.703H117.767V152.455H118.509V159.17C118.509 159.724 118.391 160.18 118.155 160.538C117.919 160.896 117.598 161.161 117.192 161.331C116.786 161.504 116.324 161.591 115.807 161.591ZM115.756 158.237C116.176 158.237 116.536 158.136 116.834 157.935C117.132 157.73 117.361 157.437 117.52 157.057C117.679 156.676 117.759 156.223 117.759 155.697C117.759 155.186 117.681 154.733 117.525 154.338C117.368 153.94 117.141 153.628 116.843 153.401C116.547 153.17 116.185 153.055 115.756 153.055C115.319 153.055 114.949 153.173 114.648 153.409C114.347 153.645 114.12 153.963 113.966 154.364C113.813 154.761 113.736 155.206 113.736 155.697C113.736 156.197 113.814 156.639 113.971 157.023C114.127 157.403 114.355 157.702 114.657 157.918C114.958 158.131 115.324 158.237 115.756 158.237ZM123.163 159.136C122.553 159.136 122.024 158.994 121.578 158.71C121.132 158.423 120.787 158.027 120.543 157.521C120.301 157.013 120.18 156.428 120.18 155.766C120.18 155.107 120.301 154.521 120.543 154.01C120.787 153.496 121.124 153.094 121.553 152.804C121.984 152.511 122.483 152.365 123.048 152.365C123.403 152.365 123.746 152.43 124.075 152.561C124.405 152.689 124.7 152.886 124.962 153.153C125.226 153.418 125.435 153.751 125.588 154.155C125.741 154.555 125.818 155.03 125.818 155.578V155.953H120.705V155.284H125.043C125.043 154.864 124.957 154.486 124.787 154.151C124.619 153.812 124.385 153.545 124.084 153.349C123.786 153.153 123.44 153.055 123.048 153.055C122.634 153.055 122.268 153.166 121.953 153.388C121.638 153.609 121.391 153.902 121.212 154.266C121.036 154.629 120.946 155.027 120.943 155.459V155.859C120.943 156.379 121.033 156.834 121.212 157.223C121.393 157.609 121.651 157.909 121.983 158.122C122.315 158.335 122.709 158.442 123.163 158.442C123.473 158.442 123.744 158.393 123.977 158.297C124.213 158.2 124.411 158.071 124.57 157.909C124.732 157.744 124.854 157.564 124.936 157.368L125.656 157.602C125.557 157.878 125.393 158.132 125.166 158.365C124.942 158.598 124.661 158.786 124.322 158.928C123.987 159.067 123.601 159.136 123.163 159.136ZM128.248 154.909V159H127.49V152.455H128.227V153.482H128.295C128.449 153.146 128.687 152.878 129.011 152.676C129.338 152.472 129.741 152.369 130.221 152.369C130.662 152.369 131.048 152.462 131.38 152.646C131.716 152.828 131.975 153.097 132.16 153.452C132.348 153.807 132.441 154.243 132.441 154.76V159H131.683V154.807C131.683 154.27 131.532 153.845 131.231 153.533C130.933 153.22 130.532 153.064 130.029 153.064C129.686 153.064 129.38 153.138 129.113 153.286C128.846 153.433 128.635 153.646 128.478 153.925C128.325 154.2 128.248 154.528 128.248 154.909ZM142.212 153.891L141.517 154.087C141.449 153.891 141.352 153.713 141.227 153.554C141.102 153.395 140.939 153.268 140.737 153.175C140.538 153.081 140.291 153.034 139.996 153.034C139.553 153.034 139.189 153.139 138.905 153.349C138.621 153.56 138.479 153.831 138.479 154.163C138.479 154.445 138.575 154.673 138.768 154.849C138.964 155.023 139.266 155.161 139.672 155.263L140.661 155.506C141.209 155.639 141.619 155.851 141.892 156.141C142.168 156.43 142.305 156.794 142.305 157.232C142.305 157.601 142.203 157.929 141.999 158.216C141.794 158.503 141.509 158.729 141.142 158.893C140.778 159.055 140.357 159.136 139.876 159.136C139.237 159.136 138.71 158.993 138.295 158.706C137.881 158.416 137.615 157.999 137.499 157.453L138.227 157.274C138.321 157.663 138.504 157.957 138.777 158.156C139.053 158.355 139.415 158.455 139.864 158.455C140.366 158.455 140.768 158.342 141.07 158.118C141.371 157.891 141.521 157.607 141.521 157.266C141.521 157.001 141.433 156.78 141.257 156.601C141.081 156.419 140.814 156.286 140.456 156.2L139.386 155.945C138.818 155.808 138.398 155.592 138.125 155.297C137.852 155.001 137.716 154.635 137.716 154.197C137.716 153.837 137.814 153.52 138.01 153.247C138.206 152.972 138.476 152.756 138.82 152.599C139.163 152.443 139.555 152.365 139.996 152.365C140.595 152.365 141.074 152.501 141.432 152.774C141.793 153.044 142.053 153.416 142.212 153.891ZM143.966 161.455V152.455H144.703V153.703H144.793C144.884 153.507 145.009 153.307 145.168 153.102C145.327 152.895 145.537 152.72 145.799 152.578C146.063 152.436 146.395 152.365 146.796 152.365C147.336 152.365 147.807 152.507 148.211 152.791C148.617 153.072 148.932 153.467 149.157 153.976C149.384 154.482 149.498 155.071 149.498 155.744C149.498 156.42 149.384 157.013 149.157 157.521C148.932 158.03 148.617 158.426 148.211 158.71C147.807 158.994 147.338 159.136 146.804 159.136C146.409 159.136 146.078 159.065 145.811 158.923C145.547 158.781 145.333 158.607 145.168 158.399C145.006 158.189 144.881 157.984 144.793 157.786H144.725V161.455H143.966ZM144.716 155.732C144.716 156.26 144.794 156.729 144.951 157.138C145.11 157.544 145.337 157.864 145.632 158.097C145.931 158.327 146.292 158.442 146.715 158.442C147.15 158.442 147.516 158.322 147.814 158.084C148.115 157.842 148.344 157.517 148.5 157.108C148.659 156.699 148.739 156.24 148.739 155.732C148.739 155.229 148.661 154.776 148.505 154.372C148.351 153.969 148.124 153.649 147.823 153.413C147.522 153.175 147.152 153.055 146.715 153.055C146.289 153.055 145.926 153.17 145.628 153.401C145.33 153.628 145.103 153.943 144.946 154.347C144.793 154.747 144.716 155.209 144.716 155.732ZM153.808 159.136C153.197 159.136 152.669 158.994 152.223 158.71C151.777 158.423 151.431 158.027 151.187 157.521C150.946 157.013 150.825 156.428 150.825 155.766C150.825 155.107 150.946 154.521 151.187 154.01C151.431 153.496 151.768 153.094 152.197 152.804C152.629 152.511 153.127 152.365 153.693 152.365C154.048 152.365 154.39 152.43 154.72 152.561C155.049 152.689 155.345 152.886 155.606 153.153C155.87 153.418 156.079 153.751 156.233 154.155C156.386 154.555 156.463 155.03 156.463 155.578V155.953H151.349V155.284H155.687C155.687 154.864 155.602 154.486 155.431 154.151C155.264 153.812 155.029 153.545 154.728 153.349C154.43 153.153 154.085 153.055 153.693 153.055C153.278 153.055 152.913 153.166 152.598 153.388C152.282 153.609 152.035 153.902 151.856 154.266C151.68 154.629 151.591 155.027 151.588 155.459V155.859C151.588 156.379 151.677 156.834 151.856 157.223C152.038 157.609 152.295 157.909 152.627 158.122C152.96 158.335 153.353 158.442 153.808 158.442C154.118 158.442 154.389 158.393 154.622 158.297C154.858 158.2 155.055 158.071 155.214 157.909C155.376 157.744 155.498 157.564 155.581 157.368L156.301 157.602C156.201 157.878 156.038 158.132 155.811 158.365C155.586 158.598 155.305 158.786 154.967 158.928C154.632 159.067 154.245 159.136 153.808 159.136ZM158.143 159V152.455H158.906V159H158.143ZM158.531 151.33C158.374 151.33 158.241 151.277 158.13 151.172C158.019 151.064 157.964 150.935 157.964 150.784C157.964 150.634 158.019 150.506 158.13 150.401C158.241 150.293 158.374 150.239 158.531 150.239C158.687 150.239 158.82 150.293 158.931 150.401C159.042 150.506 159.097 150.634 159.097 150.784C159.097 150.935 159.042 151.064 158.931 151.172C158.82 151.277 158.687 151.33 158.531 151.33ZM163.468 159.136C162.883 159.136 162.373 158.99 161.939 158.697C161.507 158.405 161.172 158.004 160.933 157.496C160.694 156.987 160.575 156.408 160.575 155.757C160.575 155.101 160.696 154.517 160.937 154.006C161.181 153.494 161.52 153.094 161.951 152.804C162.383 152.511 162.885 152.365 163.456 152.365C163.893 152.365 164.289 152.45 164.645 152.621C165 152.788 165.292 153.026 165.522 153.332C165.755 153.636 165.902 153.991 165.961 154.398H165.194C165.115 154.028 164.923 153.713 164.619 153.452C164.318 153.187 163.934 153.055 163.468 153.055C163.051 153.055 162.681 153.169 162.36 153.396C162.039 153.621 161.788 153.935 161.606 154.338C161.427 154.739 161.338 155.203 161.338 155.732C161.338 156.263 161.426 156.733 161.602 157.142C161.778 157.548 162.025 157.866 162.343 158.097C162.664 158.327 163.039 158.442 163.468 158.442C163.758 158.442 164.022 158.388 164.261 158.28C164.502 158.169 164.704 158.013 164.866 157.811C165.031 157.609 165.142 157.369 165.199 157.091H165.966C165.909 157.486 165.768 157.838 165.544 158.148C165.322 158.455 165.034 158.696 164.679 158.872C164.326 159.048 163.923 159.136 163.468 159.136ZM168.35 154.909V159H167.591V150.273H168.35V153.482H168.418C168.571 153.143 168.809 152.874 169.13 152.672C169.453 152.47 169.863 152.369 170.357 152.369C170.8 152.369 171.189 152.46 171.525 152.642C171.86 152.824 172.121 153.092 172.309 153.447C172.496 153.803 172.59 154.24 172.59 154.76V159H171.827V154.807C171.827 154.267 171.676 153.842 171.375 153.533C171.077 153.22 170.674 153.064 170.165 153.064C169.816 153.064 169.505 153.138 169.232 153.286C168.959 153.433 168.743 153.646 168.584 153.925C168.428 154.2 168.35 154.528 168.35 154.909ZM177.234 159.136C176.623 159.136 176.094 158.994 175.648 158.71C175.202 158.423 174.857 158.027 174.613 157.521C174.371 157.013 174.251 156.428 174.251 155.766C174.251 155.107 174.371 154.521 174.613 154.01C174.857 153.496 175.194 153.094 175.623 152.804C176.055 152.511 176.553 152.365 177.119 152.365C177.474 152.365 177.816 152.43 178.146 152.561C178.475 152.689 178.771 152.886 179.032 153.153C179.296 153.418 179.505 153.751 179.658 154.155C179.812 154.555 179.888 155.03 179.888 155.578V155.953H174.775V155.284H179.113C179.113 154.864 179.028 154.486 178.857 154.151C178.69 153.812 178.455 153.545 178.154 153.349C177.856 153.153 177.511 153.055 177.119 153.055C176.704 153.055 176.339 153.166 176.023 153.388C175.708 153.609 175.461 153.902 175.282 154.266C175.106 154.629 175.016 155.027 175.013 155.459V155.859C175.013 156.379 175.103 156.834 175.282 157.223C175.464 157.609 175.721 157.909 176.053 158.122C176.386 158.335 176.779 158.442 177.234 158.442C177.543 158.442 177.815 158.393 178.048 158.297C178.283 158.2 178.481 158.071 178.64 157.909C178.802 157.744 178.924 157.564 179.006 157.368L179.727 157.602C179.627 157.878 179.464 158.132 179.237 158.365C179.012 158.598 178.731 158.786 178.393 158.928C178.058 159.067 177.671 159.136 177.234 159.136ZM181.56 159V152.455H182.297V153.46H182.353C182.483 153.131 182.711 152.865 183.034 152.663C183.361 152.459 183.73 152.357 184.142 152.357C184.205 152.357 184.275 152.358 184.351 152.361C184.428 152.364 184.492 152.366 184.543 152.369V153.141C184.509 153.135 184.449 153.126 184.364 153.115C184.279 153.104 184.186 153.098 184.087 153.098C183.746 153.098 183.442 153.17 183.175 153.315C182.911 153.457 182.702 153.655 182.549 153.908C182.395 154.161 182.319 154.449 182.319 154.773V159H181.56ZM186.596 154.909V159H185.837V152.455H186.575V153.482H186.643C186.796 153.146 187.035 152.878 187.359 152.676C187.685 152.472 188.089 152.369 188.569 152.369C189.009 152.369 189.396 152.462 189.728 152.646C190.063 152.828 190.323 153.097 190.508 153.452C190.695 153.807 190.789 154.243 190.789 154.76V159H190.031V154.807C190.031 154.27 189.88 153.845 189.579 153.533C189.281 153.22 188.88 153.064 188.377 153.064C188.033 153.064 187.728 153.138 187.461 153.286C187.194 153.433 186.982 153.646 186.826 153.925C186.673 154.2 186.596 154.528 186.596 154.909Z" fill="white" fill-opacity="0.8"/>
<path d="M44 156.6L49.9 150.7C50.0833 150.517 50.3167 150.425 50.6 150.425C50.8833 150.425 51.1167 150.517 51.3 150.7C51.4833 150.883 51.575 151.117 51.575 151.4C51.575 151.683 51.4833 151.917 51.3 152.1L44.7 158.7C44.5 158.9 44.2667 159 44 159C43.7333 159 43.5 158.9 43.3 158.7L40.7 156.1C40.5167 155.917 40.425 155.683 40.425 155.4C40.425 155.117 40.5167 154.883 40.7 154.7C40.8833 154.517 41.1167 154.425 41.4 154.425C41.6833 154.425 41.9167 154.517 42.1 154.7L44 156.6Z" fill="#78FF7D"/>
<rect x="18.5" y="140.5" width="189" height="29" rx="14.5" stroke="white" stroke-opacity="0.8"/>
<rect x="225" y="140" width="153" height="30" rx="15" fill="#D54242"/>
<path d="M277.898 152.455C277.849 151.969 277.635 151.582 277.254 151.295C276.874 151.009 276.395 150.865 275.818 150.865C275.412 150.865 275.054 150.935 274.744 151.074C274.438 151.213 274.196 151.406 274.02 151.653C273.847 151.898 273.76 152.176 273.76 152.489C273.76 152.719 273.81 152.92 273.909 153.094C274.009 153.267 274.142 153.416 274.31 153.541C274.48 153.663 274.668 153.768 274.872 153.857C275.08 153.945 275.288 154.018 275.499 154.078L276.419 154.342C276.697 154.419 276.976 154.517 277.254 154.636C277.533 154.756 277.787 154.906 278.017 155.088C278.25 155.267 278.436 155.487 278.575 155.749C278.717 156.007 278.788 156.318 278.788 156.682C278.788 157.148 278.668 157.567 278.426 157.939C278.185 158.311 277.838 158.607 277.386 158.825C276.935 159.041 276.393 159.149 275.763 159.149C275.169 159.149 274.653 159.051 274.216 158.855C273.778 158.656 273.435 158.382 273.185 158.033C272.935 157.683 272.794 157.278 272.763 156.818H273.581C273.609 157.162 273.723 157.453 273.922 157.692C274.121 157.93 274.379 158.112 274.697 158.237C275.016 158.359 275.371 158.42 275.763 158.42C276.197 158.42 276.584 158.348 276.922 158.203C277.263 158.055 277.53 157.851 277.723 157.589C277.919 157.325 278.017 157.018 278.017 156.669C278.017 156.374 277.94 156.126 277.787 155.928C277.634 155.726 277.419 155.557 277.143 155.42C276.871 155.284 276.554 155.163 276.193 155.058L275.149 154.751C274.464 154.547 273.933 154.264 273.555 153.903C273.178 153.543 272.989 153.082 272.989 152.523C272.989 152.054 273.114 151.642 273.364 151.287C273.616 150.929 273.957 150.651 274.386 150.452C274.818 150.25 275.303 150.149 275.839 150.149C276.382 150.149 276.862 150.249 277.28 150.447C277.697 150.646 278.028 150.92 278.273 151.27C278.52 151.616 278.652 152.011 278.669 152.455H277.898ZM283.105 159.136C282.52 159.136 282.01 158.99 281.575 158.697C281.143 158.405 280.808 158.004 280.57 157.496C280.331 156.987 280.212 156.408 280.212 155.757C280.212 155.101 280.332 154.517 280.574 154.006C280.818 153.494 281.156 153.094 281.588 152.804C282.02 152.511 282.521 152.365 283.092 152.365C283.53 152.365 283.926 152.45 284.281 152.621C284.636 152.788 284.929 153.026 285.159 153.332C285.392 153.636 285.538 153.991 285.598 154.398H284.831C284.751 154.028 284.56 153.713 284.256 153.452C283.955 153.187 283.571 153.055 283.105 153.055C282.688 153.055 282.318 153.169 281.997 153.396C281.676 153.621 281.425 153.935 281.243 154.338C281.064 154.739 280.974 155.203 280.974 155.732C280.974 156.263 281.063 156.733 281.239 157.142C281.415 157.548 281.662 157.866 281.98 158.097C282.301 158.327 282.676 158.442 283.105 158.442C283.395 158.442 283.659 158.388 283.898 158.28C284.139 158.169 284.341 158.013 284.503 157.811C284.668 157.609 284.778 157.369 284.835 157.091H285.602C285.545 157.486 285.405 157.838 285.18 158.148C284.959 158.455 284.67 158.696 284.315 158.872C283.963 159.048 283.56 159.136 283.105 159.136ZM287.987 154.909V159H287.228V150.273H287.987V153.482H288.055C288.208 153.143 288.445 152.874 288.766 152.672C289.09 152.47 289.499 152.369 289.994 152.369C290.437 152.369 290.826 152.46 291.161 152.642C291.496 152.824 291.758 153.092 291.945 153.447C292.133 153.803 292.227 154.24 292.227 154.76V159H291.464V154.807C291.464 154.267 291.313 153.842 291.012 153.533C290.714 153.22 290.31 153.064 289.802 153.064C289.452 153.064 289.141 153.138 288.869 153.286C288.596 153.433 288.38 153.646 288.221 153.925C288.065 154.2 287.987 154.528 287.987 154.909ZM298.383 156.499V152.455H299.142V159H298.383V157.913H298.324C298.17 158.249 297.927 158.528 297.595 158.753C297.262 158.974 296.856 159.085 296.376 159.085C295.958 159.085 295.588 158.994 295.264 158.812C294.94 158.628 294.686 158.358 294.501 158.003C294.316 157.648 294.224 157.212 294.224 156.695V152.455H294.983V156.648C294.983 157.159 295.133 157.571 295.434 157.884C295.735 158.193 296.122 158.348 296.593 158.348C296.889 158.348 297.173 158.277 297.446 158.135C297.718 157.993 297.943 157.786 298.119 157.513C298.295 157.237 298.383 156.899 298.383 156.499ZM295.596 151.33C295.451 151.33 295.324 151.276 295.213 151.168C295.105 151.057 295.051 150.929 295.051 150.784C295.051 150.628 295.105 150.499 295.213 150.396C295.324 150.291 295.451 150.239 295.596 150.239C295.752 150.239 295.882 150.291 295.984 150.396C296.089 150.499 296.142 150.628 296.142 150.784C296.142 150.929 296.089 151.057 295.984 151.168C295.882 151.276 295.752 151.33 295.596 151.33ZM297.778 151.33C297.633 151.33 297.505 151.276 297.395 151.168C297.287 151.057 297.233 150.929 297.233 150.784C297.233 150.628 297.287 150.499 297.395 150.396C297.505 150.291 297.633 150.239 297.778 150.239C297.934 150.239 298.064 150.291 298.166 150.396C298.271 150.499 298.324 150.628 298.324 150.784C298.324 150.929 298.271 151.057 298.166 151.168C298.064 151.276 297.934 151.33 297.778 151.33ZM301.908 150.273V159H301.15V150.273H301.908ZM306.562 159.136C305.951 159.136 305.423 158.994 304.977 158.71C304.531 158.423 304.185 158.027 303.941 157.521C303.7 157.013 303.579 156.428 303.579 155.766C303.579 155.107 303.7 154.521 303.941 154.01C304.185 153.496 304.522 153.094 304.951 152.804C305.383 152.511 305.881 152.365 306.447 152.365C306.802 152.365 307.144 152.43 307.474 152.561C307.803 152.689 308.099 152.886 308.36 153.153C308.624 153.418 308.833 153.751 308.987 154.155C309.14 154.555 309.217 155.03 309.217 155.578V155.953H304.103V155.284H308.441C308.441 154.864 308.356 154.486 308.185 154.151C308.018 153.812 307.783 153.545 307.482 153.349C307.184 153.153 306.839 153.055 306.447 153.055C306.032 153.055 305.667 153.166 305.352 153.388C305.036 153.609 304.789 153.902 304.61 154.266C304.434 154.629 304.344 155.027 304.342 155.459V155.859C304.342 156.379 304.431 156.834 304.61 157.223C304.792 157.609 305.049 157.909 305.381 158.122C305.714 158.335 306.107 158.442 306.562 158.442C306.871 158.442 307.143 158.393 307.376 158.297C307.612 158.2 307.809 158.071 307.968 157.909C308.13 157.744 308.252 157.564 308.335 157.368L309.055 157.602C308.955 157.878 308.792 158.132 308.565 158.365C308.34 158.598 308.059 158.786 307.721 158.928C307.386 159.067 306.999 159.136 306.562 159.136ZM310.888 159V152.455H311.625V153.46H311.681C311.811 153.131 312.039 152.865 312.363 152.663C312.689 152.459 313.059 152.357 313.471 152.357C313.533 152.357 313.603 152.358 313.679 152.361C313.756 152.364 313.82 152.366 313.871 152.369V153.141C313.837 153.135 313.777 153.126 313.692 153.115C313.607 153.104 313.515 153.098 313.415 153.098C313.074 153.098 312.77 153.17 312.503 153.315C312.239 153.457 312.03 153.655 311.877 153.908C311.723 154.161 311.647 154.449 311.647 154.773V159H310.888ZM319.299 150.273V159H318.54V150.273H319.299ZM323.85 159.136C323.285 159.136 322.785 158.993 322.35 158.706C321.918 158.419 321.58 158.023 321.336 157.517C321.092 157.009 320.969 156.422 320.969 155.757C320.969 155.087 321.092 154.497 321.336 153.989C321.58 153.477 321.918 153.08 322.35 152.795C322.785 152.509 323.285 152.365 323.85 152.365C324.415 152.365 324.914 152.509 325.346 152.795C325.778 153.082 326.116 153.48 326.36 153.989C326.607 154.497 326.731 155.087 326.731 155.757C326.731 156.422 326.609 157.009 326.364 157.517C326.12 158.023 325.781 158.419 325.346 158.706C324.914 158.993 324.415 159.136 323.85 159.136ZM323.85 158.442C324.305 158.442 324.69 158.32 325.005 158.075C325.32 157.831 325.559 157.506 325.721 157.099C325.886 156.693 325.968 156.246 325.968 155.757C325.968 155.268 325.886 154.82 325.721 154.411C325.559 154.001 325.32 153.673 325.005 153.426C324.69 153.179 324.305 153.055 323.85 153.055C323.398 153.055 323.013 153.179 322.695 153.426C322.38 153.673 322.14 154.001 321.975 154.411C321.813 154.82 321.732 155.268 321.732 155.757C321.732 156.246 321.813 156.693 321.975 157.099C322.14 157.506 322.38 157.831 322.695 158.075C323.011 158.32 323.396 158.442 323.85 158.442ZM322.759 151.33C322.614 151.33 322.487 151.276 322.376 151.168C322.268 151.057 322.214 150.929 322.214 150.784C322.214 150.628 322.268 150.499 322.376 150.396C322.487 150.291 322.614 150.239 322.759 150.239C322.915 150.239 323.045 150.291 323.147 150.396C323.252 150.499 323.305 150.628 323.305 150.784C323.305 150.929 323.252 151.057 323.147 151.168C323.045 151.276 322.915 151.33 322.759 151.33ZM324.941 151.33C324.796 151.33 324.668 151.276 324.558 151.168C324.45 151.057 324.396 150.929 324.396 150.784C324.396 150.628 324.45 150.499 324.558 150.396C324.668 150.291 324.796 150.239 324.941 150.239C325.097 150.239 325.227 150.291 325.329 150.396C325.434 150.499 325.487 150.628 325.487 150.784C325.487 150.929 325.434 151.057 325.329 151.168C325.227 151.276 325.097 151.33 324.941 151.33ZM332.794 153.891L332.099 154.087C332.031 153.891 331.934 153.713 331.809 153.554C331.684 153.395 331.521 153.268 331.319 153.175C331.12 153.081 330.873 153.034 330.578 153.034C330.135 153.034 329.771 153.139 329.487 153.349C329.203 153.56 329.061 153.831 329.061 154.163C329.061 154.445 329.157 154.673 329.35 154.849C329.547 155.023 329.848 155.161 330.254 155.263L331.243 155.506C331.791 155.639 332.201 155.851 332.474 156.141C332.75 156.43 332.887 156.794 332.887 157.232C332.887 157.601 332.785 157.929 332.581 158.216C332.376 158.503 332.091 158.729 331.724 158.893C331.36 159.055 330.939 159.136 330.458 159.136C329.819 159.136 329.292 158.993 328.877 158.706C328.463 158.416 328.197 157.999 328.081 157.453L328.809 157.274C328.903 157.663 329.086 157.957 329.359 158.156C329.635 158.355 329.997 158.455 330.446 158.455C330.949 158.455 331.35 158.342 331.652 158.118C331.953 157.891 332.103 157.607 332.103 157.266C332.103 157.001 332.015 156.78 331.839 156.601C331.663 156.419 331.396 156.286 331.038 156.2L329.968 155.945C329.4 155.808 328.98 155.592 328.707 155.297C328.434 155.001 328.298 154.635 328.298 154.197C328.298 153.837 328.396 153.52 328.592 153.247C328.788 152.972 329.058 152.756 329.402 152.599C329.745 152.443 330.137 152.365 330.578 152.365C331.177 152.365 331.656 152.501 332.014 152.774C332.375 153.044 332.635 153.416 332.794 153.891ZM337.105 159.136C336.52 159.136 336.01 158.99 335.575 158.697C335.143 158.405 334.808 158.004 334.57 157.496C334.331 156.987 334.212 156.408 334.212 155.757C334.212 155.101 334.332 154.517 334.574 154.006C334.818 153.494 335.156 153.094 335.588 152.804C336.02 152.511 336.521 152.365 337.092 152.365C337.53 152.365 337.926 152.45 338.281 152.621C338.636 152.788 338.929 153.026 339.159 153.332C339.392 153.636 339.538 153.991 339.598 154.398H338.831C338.751 154.028 338.56 153.713 338.256 153.452C337.955 153.187 337.571 153.055 337.105 153.055C336.688 153.055 336.318 153.169 335.997 153.396C335.676 153.621 335.425 153.935 335.243 154.338C335.064 154.739 334.974 155.203 334.974 155.732C334.974 156.263 335.063 156.733 335.239 157.142C335.415 157.548 335.662 157.866 335.98 158.097C336.301 158.327 336.676 158.442 337.105 158.442C337.395 158.442 337.659 158.388 337.898 158.28C338.139 158.169 338.341 158.013 338.503 157.811C338.668 157.609 338.778 157.369 338.835 157.091H339.602C339.545 157.486 339.405 157.838 339.18 158.148C338.959 158.455 338.67 158.696 338.315 158.872C337.963 159.048 337.56 159.136 337.105 159.136ZM341.987 154.909V159H341.228V150.273H341.987V153.482H342.055C342.208 153.143 342.445 152.874 342.766 152.672C343.09 152.47 343.499 152.369 343.994 152.369C344.437 152.369 344.826 152.46 345.161 152.642C345.496 152.824 345.758 153.092 345.945 153.447C346.133 153.803 346.227 154.24 346.227 154.76V159H345.464V154.807C345.464 154.267 345.313 153.842 345.012 153.533C344.714 153.22 344.31 153.064 343.802 153.064C343.452 153.064 343.141 153.138 342.869 153.286C342.596 153.433 342.38 153.646 342.221 153.925C342.065 154.2 341.987 154.528 341.987 154.909ZM350.87 159.136C350.26 159.136 349.731 158.994 349.285 158.71C348.839 158.423 348.494 158.027 348.25 157.521C348.008 157.013 347.887 156.428 347.887 155.766C347.887 155.107 348.008 154.521 348.25 154.01C348.494 153.496 348.831 153.094 349.26 152.804C349.691 152.511 350.19 152.365 350.755 152.365C351.11 152.365 351.453 152.43 351.782 152.561C352.112 152.689 352.407 152.886 352.669 153.153C352.933 153.418 353.142 153.751 353.295 154.155C353.449 154.555 353.525 155.03 353.525 155.578V155.953H348.412V155.284H352.75C352.75 154.864 352.664 154.486 352.494 154.151C352.326 153.812 352.092 153.545 351.791 153.349C351.493 153.153 351.147 153.055 350.755 153.055C350.341 153.055 349.975 153.166 349.66 153.388C349.345 153.609 349.098 153.902 348.919 154.266C348.743 154.629 348.653 155.027 348.65 155.459V155.859C348.65 156.379 348.74 156.834 348.919 157.223C349.1 157.609 349.358 157.909 349.69 158.122C350.022 158.335 350.416 158.442 350.87 158.442C351.18 158.442 351.451 158.393 351.684 158.297C351.92 158.2 352.118 158.071 352.277 157.909C352.439 157.744 352.561 157.564 352.643 157.368L353.363 157.602C353.264 157.878 353.1 158.132 352.873 158.365C352.649 158.598 352.368 158.786 352.029 158.928C351.694 159.067 351.308 159.136 350.87 159.136ZM355.955 154.909V159H355.197V152.455H355.934V153.482H356.002C356.156 153.146 356.394 152.878 356.718 152.676C357.045 152.472 357.448 152.369 357.928 152.369C358.369 152.369 358.755 152.462 359.087 152.646C359.423 152.828 359.683 153.097 359.867 153.452C360.055 153.807 360.148 154.243 360.148 154.76V159H359.39V154.807C359.39 154.27 359.239 153.845 358.938 153.533C358.64 153.22 358.239 153.064 357.737 153.064C357.393 153.064 357.087 153.138 356.82 153.286C356.553 153.433 356.342 153.646 356.185 153.925C356.032 154.2 355.955 154.528 355.955 154.909Z" fill="white"/>
<path d="M247 162C247 163.1 247.9 164 249 164H257C258.1 164 259 163.1 259 162V152C259 150.9 258.1 150 257 150H249C247.9 150 247 150.9 247 152V162ZM250 152H256C256.55 152 257 152.45 257 153V161C257 161.55 256.55 162 256 162H250C249.45 162 249 161.55 249 161V153C249 152.45 249.45 152 250 152ZM256.5 147L255.79 146.29C255.61 146.11 255.35 146 255.09 146H250.91C250.65 146 250.39 146.11 250.21 146.29L249.5 147H247C246.45 147 246 147.45 246 148C246 148.55 246.45 149 247 149H259C259.55 149 260 148.55 260 148C260 147.45 259.55 147 259 147H256.5Z" fill="white"/>
<rect x="11" y="224" width="368" height="33" rx="16.5" fill="black" fill-opacity="0.2"/>
<path d="M47.0568 236.273H48.3182L51.2841 243.517H51.3864L54.3523 236.273H55.6136V245H54.625V238.369H54.5398L51.8125 245H50.858L48.1307 238.369H48.0455V245H47.0568V236.273ZM59.5224 245.153C59.1076 245.153 58.7312 245.075 58.3931 244.919C58.055 244.76 57.7866 244.531 57.5877 244.233C57.3888 243.932 57.2894 243.568 57.2894 243.142C57.2894 242.767 57.3633 242.463 57.511 242.23C57.6587 241.994 57.8562 241.81 58.1033 241.676C58.3505 241.543 58.6232 241.443 58.9215 241.378C59.2227 241.31 59.5252 241.256 59.8292 241.216C60.2269 241.165 60.5494 241.126 60.7965 241.101C61.0465 241.072 61.2283 241.026 61.342 240.96C61.4585 240.895 61.5167 240.781 61.5167 240.619V240.585C61.5167 240.165 61.4016 239.838 61.1715 239.605C60.9442 239.372 60.5991 239.256 60.136 239.256C59.6559 239.256 59.2795 239.361 59.0067 239.571C58.734 239.781 58.5423 240.006 58.4315 240.244L57.4769 239.903C57.6474 239.506 57.8746 239.196 58.1587 238.974C58.4457 238.75 58.7582 238.594 59.0962 238.506C59.4371 238.415 59.7724 238.369 60.1019 238.369C60.3121 238.369 60.5536 238.395 60.8263 238.446C61.1019 238.494 61.3675 238.595 61.6232 238.749C61.8817 238.902 62.0962 239.134 62.2667 239.443C62.4371 239.753 62.5224 240.168 62.5224 240.688V245H61.5167V244.114H61.4656C61.3974 244.256 61.2837 244.408 61.1246 244.57C60.9656 244.732 60.7539 244.869 60.4897 244.983C60.2255 245.097 59.9031 245.153 59.5224 245.153ZM59.6758 244.25C60.0735 244.25 60.4087 244.172 60.6815 244.016C60.957 243.859 61.1644 243.658 61.3036 243.411C61.4457 243.163 61.5167 242.903 61.5167 242.631V241.71C61.4741 241.761 61.3803 241.808 61.2354 241.851C61.0934 241.891 60.9286 241.926 60.7411 241.957C60.5565 241.986 60.3761 242.011 60.1999 242.034C60.0266 242.054 59.886 242.071 59.7781 242.085C59.5167 242.119 59.2724 242.175 59.0451 242.251C58.8207 242.325 58.6388 242.437 58.4996 242.588C58.3633 242.736 58.2951 242.937 58.2951 243.193C58.2951 243.543 58.4244 243.807 58.6829 243.986C58.9442 244.162 59.2752 244.25 59.6758 244.25ZM65.108 238.455L66.6761 241.131L68.2443 238.455H69.4034L67.2898 241.727L69.4034 245H68.2443L66.6761 242.46L65.108 245H63.9489L66.0284 241.727L63.9489 238.455H65.108ZM70.8384 245V238.455H71.8441V245H70.8384ZM71.3498 237.364C71.1538 237.364 70.9847 237.297 70.8427 237.163C70.7035 237.03 70.6339 236.869 70.6339 236.682C70.6339 236.494 70.7035 236.334 70.8427 236.2C70.9847 236.067 71.1538 236 71.3498 236C71.5458 236 71.7134 236.067 71.8526 236.2C71.9947 236.334 72.0657 236.494 72.0657 236.682C72.0657 236.869 71.9947 237.03 71.8526 237.163C71.7134 237.297 71.5458 237.364 71.3498 237.364ZM73.6861 245V238.455H74.6577V239.477H74.7429C74.8793 239.128 75.0994 238.857 75.4034 238.663C75.7074 238.467 76.0724 238.369 76.4986 238.369C76.9304 238.369 77.2898 238.467 77.5767 238.663C77.8665 238.857 78.0923 239.128 78.2543 239.477H78.3224C78.4901 239.139 78.7415 238.871 79.0767 238.672C79.4119 238.47 79.8139 238.369 80.2827 238.369C80.8679 238.369 81.3466 238.553 81.7188 238.919C82.0909 239.283 82.277 239.849 82.277 240.619V245H81.2713V240.619C81.2713 240.136 81.1392 239.791 80.875 239.584C80.6108 239.376 80.2997 239.273 79.9418 239.273C79.4815 239.273 79.125 239.412 78.8722 239.69C78.6193 239.966 78.4929 240.315 78.4929 240.739V245H77.4702V240.517C77.4702 240.145 77.3494 239.845 77.108 239.618C76.8665 239.388 76.5554 239.273 76.1747 239.273C75.9134 239.273 75.669 239.342 75.4418 239.482C75.2173 239.621 75.0355 239.814 74.8963 240.061C74.7599 240.305 74.6918 240.588 74.6918 240.909V245H73.6861ZM84.1158 245V238.455H85.1214V245H84.1158ZM84.6271 237.364C84.4311 237.364 84.2621 237.297 84.12 237.163C83.9808 237.03 83.9112 236.869 83.9112 236.682C83.9112 236.494 83.9808 236.334 84.12 236.2C84.2621 236.067 84.4311 236 84.6271 236C84.8232 236 84.9908 236.067 85.13 236.2C85.272 236.334 85.343 236.494 85.343 236.682C85.343 236.869 85.272 237.03 85.13 237.163C84.9908 237.297 84.8232 237.364 84.6271 237.364ZM87.9691 236.273V245H86.9634V236.273H87.9691ZM89.8111 245V238.455H90.8168V245H89.8111ZM90.3224 237.364C90.1264 237.364 89.9574 237.297 89.8153 237.163C89.6761 237.03 89.6065 236.869 89.6065 236.682C89.6065 236.494 89.6761 236.334 89.8153 236.2C89.9574 236.067 90.1264 236 90.3224 236C90.5185 236 90.6861 236.067 90.8253 236.2C90.9673 236.334 91.0384 236.494 91.0384 236.682C91.0384 236.869 90.9673 237.03 90.8253 237.163C90.6861 237.297 90.5185 237.364 90.3224 237.364ZM94.5849 245.153C94.1701 245.153 93.7937 245.075 93.4556 244.919C93.1175 244.76 92.8491 244.531 92.6502 244.233C92.4513 243.932 92.3519 243.568 92.3519 243.142C92.3519 242.767 92.4258 242.463 92.5735 242.23C92.7212 241.994 92.9187 241.81 93.1658 241.676C93.413 241.543 93.6857 241.443 93.984 241.378C94.2852 241.31 94.5877 241.256 94.8917 241.216C95.2894 241.165 95.6119 241.126 95.859 241.101C96.109 241.072 96.2908 241.026 96.4045 240.96C96.521 240.895 96.5792 240.781 96.5792 240.619V240.585C96.5792 240.165 96.4641 239.838 96.234 239.605C96.0067 239.372 95.6616 239.256 95.1985 239.256C94.7184 239.256 94.342 239.361 94.0692 239.571C93.7965 239.781 93.6048 240.006 93.494 240.244L92.5394 239.903C92.7099 239.506 92.9371 239.196 93.2212 238.974C93.5082 238.75 93.8207 238.594 94.1587 238.506C94.4996 238.415 94.8349 238.369 95.1644 238.369C95.3746 238.369 95.6161 238.395 95.8888 238.446C96.1644 238.494 96.43 238.595 96.6857 238.749C96.9442 238.902 97.1587 239.134 97.3292 239.443C97.4996 239.753 97.5849 240.168 97.5849 240.688V245H96.5792V244.114H96.5281C96.4599 244.256 96.3462 244.408 96.1871 244.57C96.0281 244.732 95.8164 244.869 95.5522 244.983C95.288 245.097 94.9656 245.153 94.5849 245.153ZM94.7383 244.25C95.136 244.25 95.4712 244.172 95.744 244.016C96.0195 243.859 96.2269 243.658 96.3661 243.411C96.5082 243.163 96.5792 242.903 96.5792 242.631V241.71C96.5366 241.761 96.4428 241.808 96.2979 241.851C96.1559 241.891 95.9911 241.926 95.8036 241.957C95.619 241.986 95.4386 242.011 95.2624 242.034C95.0891 242.054 94.9485 242.071 94.8406 242.085C94.5792 242.119 94.3349 242.175 94.1076 242.251C93.8832 242.325 93.7013 242.437 93.5621 242.588C93.4258 242.736 93.3576 242.937 93.3576 243.193C93.3576 243.543 93.4869 243.807 93.7454 243.986C94.0067 244.162 94.3377 244.25 94.7383 244.25ZM100.426 241.062V245H99.4205V238.455H100.392V239.477H100.477C100.631 239.145 100.864 238.878 101.176 238.676C101.489 238.472 101.892 238.369 102.386 238.369C102.83 238.369 103.217 238.46 103.55 238.642C103.882 238.821 104.141 239.094 104.325 239.46C104.51 239.824 104.602 240.284 104.602 240.841V245H103.597V240.909C103.597 240.395 103.463 239.994 103.196 239.707C102.929 239.418 102.563 239.273 102.097 239.273C101.776 239.273 101.489 239.342 101.236 239.482C100.986 239.621 100.788 239.824 100.643 240.091C100.499 240.358 100.426 240.682 100.426 241.062Z" fill="white"/>
<rect x="11" y="277" width="368" height="33" rx="16.5" fill="black" fill-opacity="0.2"/>
<path d="M52.7841 289.273H53.8409V295.051C53.8409 295.648 53.7003 296.18 53.419 296.649C53.1406 297.115 52.7472 297.483 52.2386 297.753C51.7301 298.02 51.1335 298.153 50.4489 298.153C49.7642 298.153 49.1676 298.02 48.6591 297.753C48.1506 297.483 47.7557 297.115 47.4744 296.649C47.196 296.18 47.0568 295.648 47.0568 295.051V289.273H48.1136V294.966C48.1136 295.392 48.2074 295.771 48.3949 296.104C48.5824 296.433 48.8494 296.693 49.196 296.884C49.5455 297.071 49.9631 297.165 50.4489 297.165C50.9347 297.165 51.3523 297.071 51.7017 296.884C52.0511 296.693 52.3182 296.433 52.5028 296.104C52.6903 295.771 52.7841 295.392 52.7841 294.966V289.273ZM56.8207 289.273V298H55.815V289.273H56.8207ZM58.6626 298V291.455H59.6342V292.443H59.7024C59.8217 292.119 60.0376 291.857 60.3501 291.655C60.6626 291.453 61.0149 291.352 61.407 291.352C61.4808 291.352 61.5732 291.354 61.6839 291.357C61.7947 291.359 61.8786 291.364 61.9354 291.369V292.392C61.9013 292.384 61.8232 292.371 61.701 292.354C61.5817 292.334 61.4553 292.324 61.3217 292.324C61.0036 292.324 60.7195 292.391 60.4695 292.524C60.2223 292.655 60.0263 292.837 59.8814 293.07C59.7393 293.3 59.6683 293.562 59.6683 293.858V298H58.6626ZM63.1275 298V291.455H64.1332V298H63.1275ZM63.6388 290.364C63.4428 290.364 63.2738 290.297 63.1317 290.163C62.9925 290.03 62.9229 289.869 62.9229 289.682C62.9229 289.494 62.9925 289.334 63.1317 289.2C63.2738 289.067 63.4428 289 63.6388 289C63.8349 289 64.0025 289.067 64.1417 289.2C64.2837 289.334 64.3548 289.494 64.3548 289.682C64.3548 289.869 64.2837 290.03 64.1417 290.163C64.0025 290.297 63.8349 290.364 63.6388 290.364ZM68.6342 298.136C68.0206 298.136 67.4922 297.991 67.049 297.702C66.6058 297.412 66.2649 297.013 66.0263 296.504C65.7876 295.996 65.6683 295.415 65.6683 294.761C65.6683 294.097 65.7905 293.51 66.0348 293.001C66.282 292.49 66.6257 292.091 67.0661 291.804C67.5092 291.514 68.0263 291.369 68.6172 291.369C69.0774 291.369 69.4922 291.455 69.8615 291.625C70.2308 291.795 70.5334 292.034 70.7692 292.341C71.005 292.648 71.1513 293.006 71.2081 293.415H70.2024C70.1257 293.116 69.9553 292.852 69.6911 292.622C69.4297 292.389 69.0774 292.273 68.6342 292.273C68.2422 292.273 67.8984 292.375 67.603 292.58C67.3104 292.781 67.0817 293.067 66.9169 293.436C66.755 293.803 66.674 294.233 66.674 294.727C66.674 295.233 66.7536 295.673 66.9126 296.048C67.0746 296.423 67.3018 296.714 67.5945 296.922C67.8899 297.129 68.2365 297.233 68.6342 297.233C68.8956 297.233 69.1328 297.188 69.3459 297.097C69.5589 297.006 69.7393 296.875 69.8871 296.705C70.0348 296.534 70.1399 296.33 70.2024 296.091H71.2081C71.1513 296.477 71.0107 296.825 70.7862 297.135C70.5646 297.442 70.2706 297.686 69.9041 297.868C69.5405 298.047 69.1172 298.136 68.6342 298.136ZM73.6839 294.062V298H72.6783V289.273H73.6839V292.477H73.7692C73.9226 292.139 74.1527 291.871 74.4595 291.672C74.7692 291.47 75.1811 291.369 75.6953 291.369C76.1413 291.369 76.532 291.459 76.8672 291.638C77.2024 291.814 77.4624 292.085 77.647 292.452C77.8345 292.815 77.9283 293.278 77.9283 293.841V298H76.9226V293.909C76.9226 293.389 76.7876 292.987 76.5178 292.703C76.2507 292.416 75.88 292.273 75.4055 292.273C75.076 292.273 74.7805 292.342 74.5192 292.482C74.2607 292.621 74.0561 292.824 73.9055 293.091C73.7578 293.358 73.6839 293.682 73.6839 294.062Z" fill="white"/>
<rect x="11" y="330" width="368" height="33" rx="16.5" fill="black" fill-opacity="0.2"/>
<path d="M53.0227 345C52.929 344.713 52.8054 344.456 52.652 344.229C52.5014 343.999 52.321 343.803 52.1108 343.641C51.9034 343.479 51.6676 343.355 51.4034 343.27C51.1392 343.185 50.8494 343.142 50.5341 343.142C50.017 343.142 49.5469 343.276 49.1236 343.543C48.7003 343.81 48.3636 344.203 48.1136 344.723C47.8636 345.243 47.7386 345.881 47.7386 346.636C47.7386 347.392 47.8651 348.03 48.1179 348.55C48.3707 349.07 48.7131 349.463 49.1449 349.73C49.5767 349.997 50.0625 350.131 50.6023 350.131C51.1023 350.131 51.5426 350.024 51.9233 349.811C52.3068 349.595 52.6051 349.291 52.8182 348.899C53.0341 348.504 53.142 348.04 53.142 347.506L53.4659 347.574H50.8409V346.636H54.1648V347.574C54.1648 348.293 54.0114 348.918 53.7045 349.449C53.4006 349.98 52.9801 350.392 52.4432 350.685C51.9091 350.974 51.2955 351.119 50.6023 351.119C49.8295 351.119 49.1506 350.938 48.5653 350.574C47.983 350.21 47.5284 349.693 47.2017 349.023C46.8778 348.352 46.7159 347.557 46.7159 346.636C46.7159 345.946 46.8082 345.325 46.9929 344.774C47.1804 344.22 47.4446 343.749 47.7855 343.359C48.1264 342.97 48.5298 342.672 48.9957 342.464C49.4616 342.257 49.9744 342.153 50.5341 342.153C50.9943 342.153 51.4233 342.223 51.821 342.362C52.2216 342.499 52.5781 342.693 52.8906 342.946C53.206 343.196 53.4688 343.496 53.679 343.845C53.8892 344.192 54.0341 344.577 54.1136 345H53.0227ZM58.5827 351.136C57.9521 351.136 57.408 350.997 56.9506 350.719C56.4961 350.438 56.1452 350.045 55.8981 349.543C55.6538 349.037 55.5316 348.449 55.5316 347.778C55.5316 347.108 55.6538 346.517 55.8981 346.006C56.1452 345.491 56.489 345.091 56.9293 344.804C57.3725 344.514 57.8896 344.369 58.4805 344.369C58.8214 344.369 59.158 344.426 59.4904 344.54C59.8228 344.653 60.1254 344.838 60.3981 345.094C60.6708 345.347 60.8881 345.682 61.0501 346.099C61.212 346.517 61.293 347.031 61.293 347.642V348.068H56.2475V347.199H60.2702C60.2702 346.83 60.1964 346.5 60.0487 346.21C59.9038 345.92 59.6964 345.692 59.4265 345.524C59.1594 345.357 58.8441 345.273 58.4805 345.273C58.0799 345.273 57.7333 345.372 57.4407 345.571C57.1509 345.767 56.9279 346.023 56.7717 346.338C56.6154 346.653 56.5373 346.991 56.5373 347.352V347.932C56.5373 348.426 56.6225 348.845 56.793 349.189C56.9663 349.53 57.2063 349.79 57.5131 349.969C57.82 350.145 58.1765 350.233 58.5827 350.233C58.8469 350.233 59.0856 350.196 59.2987 350.122C59.5146 350.045 59.7006 349.932 59.8569 349.781C60.0131 349.628 60.1339 349.437 60.2191 349.21L61.1907 349.483C61.0884 349.812 60.9165 350.102 60.6751 350.352C60.4336 350.599 60.1353 350.793 59.7802 350.932C59.4251 351.068 59.0259 351.136 58.5827 351.136ZM62.9592 351V342.273H63.9648V345.494H64.0501C64.1239 345.381 64.2262 345.236 64.3569 345.06C64.4904 344.881 64.6808 344.722 64.9279 344.582C65.1779 344.44 65.516 344.369 65.9421 344.369C66.4933 344.369 66.979 344.507 67.3995 344.783C67.82 345.058 68.1481 345.449 68.3839 345.955C68.6197 346.46 68.7376 347.057 68.7376 347.744C68.7376 348.438 68.6197 349.038 68.3839 349.547C68.1481 350.053 67.8214 350.445 67.4038 350.723C66.9862 350.999 66.5046 351.136 65.9592 351.136C65.5387 351.136 65.2021 351.067 64.9492 350.928C64.6964 350.786 64.5018 350.625 64.3654 350.446C64.229 350.264 64.1239 350.114 64.0501 349.994H63.9308V351H62.9592ZM63.9478 347.727C63.9478 348.222 64.0202 348.658 64.1651 349.036C64.31 349.411 64.5217 349.705 64.8001 349.918C65.0785 350.128 65.4194 350.233 65.8228 350.233C66.2433 350.233 66.5941 350.122 66.8754 349.901C67.1594 349.676 67.3725 349.375 67.5146 348.997C67.6594 348.616 67.7319 348.193 67.7319 347.727C67.7319 347.267 67.6609 346.852 67.5188 346.483C67.3796 346.111 67.168 345.817 66.8839 345.601C66.6026 345.382 66.2489 345.273 65.8228 345.273C65.4137 345.273 65.07 345.376 64.7915 345.584C64.5131 345.788 64.3029 346.075 64.1609 346.445C64.0188 346.811 63.9478 347.239 63.9478 347.727ZM74.4009 348.324V344.455H75.4066V351H74.4009V349.892H74.3327C74.1793 350.224 73.9407 350.507 73.6168 350.74C73.293 350.97 72.8839 351.085 72.3896 351.085C71.9805 351.085 71.6168 350.996 71.2987 350.817C70.9805 350.635 70.7305 350.362 70.5487 349.999C70.3668 349.632 70.2759 349.17 70.2759 348.614V344.455H71.2816V348.545C71.2816 349.023 71.4151 349.403 71.6822 349.688C71.9521 349.972 72.2958 350.114 72.7134 350.114C72.9634 350.114 73.2177 350.05 73.4762 349.922C73.7376 349.794 73.9563 349.598 74.1325 349.334C74.3114 349.07 74.4009 348.733 74.4009 348.324ZM77.2486 351V344.455H78.2202V345.443H78.2884C78.4077 345.119 78.6236 344.857 78.9361 344.655C79.2486 344.453 79.6009 344.352 79.9929 344.352C80.0668 344.352 80.1591 344.354 80.2699 344.357C80.3807 344.359 80.4645 344.364 80.5213 344.369V345.392C80.4872 345.384 80.4091 345.371 80.2869 345.354C80.1676 345.334 80.0412 345.324 79.9077 345.324C79.5895 345.324 79.3054 345.391 79.0554 345.524C78.8082 345.655 78.6122 345.837 78.4673 346.07C78.3253 346.3 78.2543 346.562 78.2543 346.858V351H77.2486ZM84.9702 344.455V345.307H81.5781V344.455H84.9702ZM82.5668 342.886H83.5724V349.125C83.5724 349.409 83.6136 349.622 83.696 349.764C83.7813 349.903 83.8892 349.997 84.0199 350.045C84.1534 350.091 84.294 350.114 84.4418 350.114C84.5526 350.114 84.6435 350.108 84.7145 350.097C84.7855 350.082 84.8423 350.071 84.8849 350.062L85.0895 350.966C85.0213 350.991 84.9261 351.017 84.804 351.043C84.6818 351.071 84.527 351.085 84.3395 351.085C84.0554 351.085 83.777 351.024 83.5043 350.902C83.2344 350.78 83.0099 350.594 82.831 350.344C82.6548 350.094 82.5668 349.778 82.5668 349.398V342.886ZM91.0021 345.92L90.0987 346.176C90.0419 346.026 89.9581 345.879 89.8473 345.737C89.7393 345.592 89.5916 345.473 89.4041 345.379C89.2166 345.286 88.9766 345.239 88.6839 345.239C88.2834 345.239 87.9496 345.331 87.6825 345.516C87.4183 345.697 87.2862 345.929 87.2862 346.21C87.2862 346.46 87.3771 346.658 87.5589 346.803C87.7408 346.947 88.0249 347.068 88.4112 347.165L89.3828 347.403C89.968 347.545 90.4041 347.763 90.6911 348.055C90.978 348.345 91.1214 348.719 91.1214 349.176C91.1214 349.551 91.0135 349.886 90.7976 350.182C90.5845 350.477 90.2862 350.71 89.9027 350.881C89.5192 351.051 89.0732 351.136 88.5646 351.136C87.897 351.136 87.3445 350.991 86.907 350.702C86.4695 350.412 86.1925 349.989 86.076 349.432L87.0305 349.193C87.1214 349.545 87.2933 349.81 87.5462 349.986C87.8018 350.162 88.1357 350.25 88.5476 350.25C89.0163 350.25 89.3885 350.151 89.6641 349.952C89.9425 349.75 90.0817 349.509 90.0817 349.227C90.0817 349 90.0021 348.81 89.843 348.656C89.6839 348.5 89.4396 348.384 89.1101 348.307L88.0192 348.051C87.4197 347.909 86.9794 347.689 86.6982 347.391C86.4197 347.089 86.2805 346.713 86.2805 346.261C86.2805 345.892 86.3842 345.565 86.5916 345.281C86.8018 344.997 87.0874 344.774 87.4482 344.612C87.8118 344.45 88.2237 344.369 88.6839 344.369C89.3317 344.369 89.8402 344.511 90.2095 344.795C90.5817 345.08 90.8459 345.455 91.0021 345.92ZM95.1069 351.136C94.5614 351.136 94.0799 350.999 93.6623 350.723C93.2447 350.445 92.918 350.053 92.6822 349.547C92.4464 349.038 92.3285 348.438 92.3285 347.744C92.3285 347.057 92.4464 346.46 92.6822 345.955C92.918 345.449 93.2461 345.058 93.6665 344.783C94.087 344.507 94.5728 344.369 95.1239 344.369C95.5501 344.369 95.8867 344.44 96.1339 344.582C96.3839 344.722 96.5742 344.881 96.7049 345.06C96.8384 345.236 96.9421 345.381 97.016 345.494H97.1012V342.273H98.1069V351H97.1353V349.994H97.016C96.9421 350.114 96.837 350.264 96.7006 350.446C96.5643 350.625 96.3697 350.786 96.1168 350.928C95.864 351.067 95.5273 351.136 95.1069 351.136ZM95.2433 350.233C95.6467 350.233 95.9876 350.128 96.266 349.918C96.5444 349.705 96.756 349.411 96.9009 349.036C97.0458 348.658 97.1183 348.222 97.1183 347.727C97.1183 347.239 97.0472 346.811 96.9052 346.445C96.7631 346.075 96.5529 345.788 96.2745 345.584C95.9961 345.376 95.6523 345.273 95.2433 345.273C94.8171 345.273 94.462 345.382 94.1779 345.601C93.8967 345.817 93.685 346.111 93.543 346.483C93.4038 346.852 93.3342 347.267 93.3342 347.727C93.3342 348.193 93.4052 348.616 93.5472 348.997C93.6921 349.375 93.9052 349.676 94.1864 349.901C94.4705 350.122 94.8228 350.233 95.2433 350.233ZM102.015 351.153C101.6 351.153 101.223 351.075 100.885 350.919C100.547 350.76 100.279 350.531 100.08 350.233C99.881 349.932 99.7816 349.568 99.7816 349.142C99.7816 348.767 99.8555 348.463 100.003 348.23C100.151 347.994 100.348 347.81 100.596 347.676C100.843 347.543 101.115 347.443 101.414 347.378C101.715 347.31 102.017 347.256 102.321 347.216C102.719 347.165 103.042 347.126 103.289 347.101C103.539 347.072 103.721 347.026 103.834 346.96C103.951 346.895 104.009 346.781 104.009 346.619V346.585C104.009 346.165 103.894 345.838 103.664 345.605C103.436 345.372 103.091 345.256 102.628 345.256C102.148 345.256 101.772 345.361 101.499 345.571C101.226 345.781 101.034 346.006 100.924 346.244L99.9691 345.903C100.14 345.506 100.367 345.196 100.651 344.974C100.938 344.75 101.25 344.594 101.588 344.506C101.929 344.415 102.265 344.369 102.594 344.369C102.804 344.369 103.046 344.395 103.319 344.446C103.594 344.494 103.86 344.595 104.115 344.749C104.374 344.902 104.588 345.134 104.759 345.443C104.929 345.753 105.015 346.168 105.015 346.688V351H104.009V350.114H103.958C103.89 350.256 103.776 350.408 103.617 350.57C103.458 350.732 103.246 350.869 102.982 350.983C102.718 351.097 102.395 351.153 102.015 351.153ZM102.168 350.25C102.566 350.25 102.901 350.172 103.174 350.016C103.449 349.859 103.657 349.658 103.796 349.411C103.938 349.163 104.009 348.903 104.009 348.631V347.71C103.966 347.761 103.873 347.808 103.728 347.851C103.586 347.891 103.421 347.926 103.233 347.957C103.049 347.986 102.868 348.011 102.692 348.034C102.519 348.054 102.378 348.071 102.27 348.085C102.009 348.119 101.765 348.175 101.537 348.251C101.313 348.325 101.131 348.437 100.992 348.588C100.855 348.736 100.787 348.937 100.787 349.193C100.787 349.543 100.917 349.807 101.175 349.986C101.436 350.162 101.767 350.25 102.168 350.25ZM109.697 344.455V345.307H106.305V344.455H109.697ZM107.293 342.886H108.299V349.125C108.299 349.409 108.34 349.622 108.423 349.764C108.508 349.903 108.616 349.997 108.746 350.045C108.88 350.091 109.021 350.114 109.168 350.114C109.279 350.114 109.37 350.108 109.441 350.097C109.512 350.082 109.569 350.071 109.612 350.062L109.816 350.966C109.748 350.991 109.653 351.017 109.531 351.043C109.408 351.071 109.254 351.085 109.066 351.085C108.782 351.085 108.504 351.024 108.231 350.902C107.961 350.78 107.737 350.594 107.558 350.344C107.381 350.094 107.293 349.778 107.293 349.398V342.886ZM115.335 348.324V344.455H116.34V351H115.335V349.892H115.266C115.113 350.224 114.874 350.507 114.55 350.74C114.227 350.97 113.817 351.085 113.323 351.085C112.914 351.085 112.55 350.996 112.232 350.817C111.914 350.635 111.664 350.362 111.482 349.999C111.3 349.632 111.21 349.17 111.21 348.614V344.455H112.215V348.545C112.215 349.023 112.349 349.403 112.616 349.688C112.886 349.972 113.229 350.114 113.647 350.114C113.897 350.114 114.151 350.05 114.41 349.922C114.671 349.794 114.89 349.598 115.066 349.334C115.245 349.07 115.335 348.733 115.335 348.324ZM118.182 351V344.455H119.154V345.477H119.239C119.375 345.128 119.596 344.857 119.9 344.663C120.203 344.467 120.569 344.369 120.995 344.369C121.426 344.369 121.786 344.467 122.073 344.663C122.363 344.857 122.588 345.128 122.75 345.477H122.819C122.986 345.139 123.238 344.871 123.573 344.672C123.908 344.47 124.31 344.369 124.779 344.369C125.364 344.369 125.843 344.553 126.215 344.919C126.587 345.283 126.773 345.849 126.773 346.619V351H125.767V346.619C125.767 346.136 125.635 345.791 125.371 345.584C125.107 345.376 124.796 345.273 124.438 345.273C123.978 345.273 123.621 345.412 123.368 345.69C123.115 345.966 122.989 346.315 122.989 346.739V351H121.966V346.517C121.966 346.145 121.846 345.845 121.604 345.618C121.363 345.388 121.051 345.273 120.671 345.273C120.409 345.273 120.165 345.342 119.938 345.482C119.713 345.621 119.532 345.814 119.392 346.061C119.256 346.305 119.188 346.588 119.188 346.909V351H118.182ZM129.924 348.545V348.494C129.93 347.952 129.987 347.52 130.095 347.199C130.203 346.878 130.356 346.618 130.555 346.419C130.754 346.22 130.993 346.037 131.271 345.869C131.439 345.767 131.589 345.646 131.723 345.507C131.856 345.365 131.961 345.202 132.038 345.017C132.118 344.832 132.157 344.628 132.157 344.403C132.157 344.125 132.092 343.884 131.961 343.679C131.831 343.474 131.656 343.317 131.437 343.206C131.218 343.095 130.975 343.04 130.708 343.04C130.475 343.04 130.251 343.088 130.035 343.185C129.819 343.281 129.639 343.433 129.494 343.641C129.349 343.848 129.265 344.119 129.243 344.455H128.169C128.191 343.972 128.316 343.558 128.544 343.214C128.774 342.871 129.076 342.608 129.451 342.426C129.829 342.244 130.248 342.153 130.708 342.153C131.208 342.153 131.643 342.253 132.012 342.452C132.385 342.651 132.672 342.923 132.873 343.27C133.078 343.616 133.18 344.011 133.18 344.455C133.18 344.767 133.132 345.05 133.035 345.303C132.941 345.555 132.805 345.781 132.626 345.98C132.45 346.179 132.237 346.355 131.987 346.509C131.737 346.665 131.537 346.83 131.386 347.003C131.235 347.173 131.126 347.376 131.058 347.612C130.99 347.848 130.953 348.142 130.947 348.494V348.545H129.924ZM130.47 351.068C130.26 351.068 130.079 350.993 129.929 350.842C129.778 350.692 129.703 350.511 129.703 350.301C129.703 350.091 129.778 349.911 129.929 349.76C130.079 349.609 130.26 349.534 130.47 349.534C130.68 349.534 130.86 349.609 131.011 349.76C131.162 349.911 131.237 350.091 131.237 350.301C131.237 350.44 131.201 350.568 131.13 350.685C131.062 350.801 130.97 350.895 130.853 350.966C130.74 351.034 130.612 351.068 130.47 351.068Z" fill="white"/>
<defs>
<linearGradient id="paint0_linear_38_1062" x1="195" y1="-1.05793e-06" x2="195" y2="844.5" gradientUnits="userSpaceOnUse">
<stop stop-color="#30B3D0"/>
<stop offset="1" stop-color="#007EC5"/>
</linearGradient>
<clipPath id="clip0_38_1062">
<rect width="165" height="30" fill="white" transform="translate(213 15)"/>
</clipPath>
</defs>
</svg>
