<svg width="390" height="844" viewBox="0 0 390 844" fill="none" xmlns="http://www.w3.org/2000/svg">
<rect width="390" height="844" fill="white"/>
<rect x="47" y="76" width="296" height="107" rx="6" fill="url(#paint0_linear_33_789)"/>
<g clip-path="url(#clip0_33_789)">
<path d="M100.5 147.625C101.527 147.625 102.389 147.277 103.085 146.581C103.778 145.887 104.125 145.027 104.125 144V133.125H115.091C116.118 133.125 116.964 132.777 117.628 132.081C118.293 131.387 118.625 130.527 118.625 129.5C118.625 128.473 118.277 127.611 117.581 126.915C116.887 126.222 116.027 125.875 115 125.875H104.125V114.909C104.125 113.882 103.778 113.036 103.085 112.372C102.389 111.707 101.527 111.375 100.5 111.375C99.4729 111.375 98.6126 111.722 97.919 112.415C97.223 113.111 96.875 113.973 96.875 115V125.875H85.9094C84.8823 125.875 84.0365 126.222 83.3719 126.915C82.7073 127.611 82.375 128.473 82.375 129.5C82.375 130.527 82.7218 131.387 83.4154 132.081C84.1114 132.777 84.9729 133.125 86 133.125H96.875V144.091C96.875 145.118 97.223 145.964 97.919 146.628C98.6126 147.293 99.4729 147.625 100.5 147.625ZM100.5 165.75C95.4854 165.75 90.7729 164.798 86.3625 162.894C81.9521 160.992 78.1156 158.409 74.8531 155.147C71.5906 151.884 69.0084 148.048 67.1065 143.637C65.2022 139.227 64.25 134.515 64.25 129.5C64.25 124.485 65.2022 119.773 67.1065 115.363C69.0084 110.952 71.5906 107.116 74.8531 103.853C78.1156 100.591 81.9521 98.0072 86.3625 96.1029C90.7729 94.201 95.4854 93.25 100.5 93.25C105.515 93.25 110.227 94.201 114.637 96.1029C119.048 98.0072 122.884 100.591 126.147 103.853C129.409 107.116 131.992 110.952 133.894 115.363C135.798 119.773 136.75 124.485 136.75 129.5C136.75 134.515 135.798 139.227 133.894 143.637C131.992 148.048 129.409 151.884 126.147 155.147C122.884 158.409 119.048 160.992 114.637 162.894C110.227 164.798 105.515 165.75 100.5 165.75ZM100.5 158.5C108.535 158.5 115.378 155.676 121.028 150.028C126.676 144.378 129.5 137.535 129.5 129.5C129.5 121.465 126.676 114.622 121.028 108.972C115.378 103.324 108.535 100.5 100.5 100.5C92.4646 100.5 85.623 103.324 79.9752 108.972C74.3251 114.622 71.5 121.465 71.5 129.5C71.5 137.535 74.3251 144.378 79.9752 150.028C85.623 155.676 92.4646 158.5 100.5 158.5Z" fill="white"/>
</g>
<path d="M201.334 124.091V135H199.576L194.436 127.569H194.346V135H192.369V124.091H194.138L199.273 131.527H199.369V124.091H201.334ZM207.775 135.16C206.954 135.16 206.246 134.989 205.649 134.648C205.056 134.304 204.6 133.817 204.28 133.189C203.961 132.557 203.801 131.813 203.801 130.957C203.801 130.115 203.961 129.377 204.28 128.741C204.603 128.102 205.054 127.605 205.633 127.25C206.212 126.891 206.892 126.712 207.673 126.712C208.178 126.712 208.653 126.793 209.101 126.957C209.552 127.116 209.95 127.365 210.294 127.702C210.642 128.04 210.916 128.469 211.114 128.991C211.313 129.51 211.413 130.128 211.413 130.845V131.436H204.706V130.137H209.564C209.561 129.767 209.481 129.439 209.325 129.151C209.168 128.86 208.95 128.631 208.669 128.464C208.392 128.297 208.069 128.214 207.7 128.214C207.306 128.214 206.96 128.31 206.661 128.501C206.363 128.69 206.13 128.938 205.963 129.247C205.8 129.553 205.717 129.888 205.713 130.254V131.388C205.713 131.864 205.8 132.273 205.974 132.614C206.148 132.951 206.391 133.21 206.704 133.391C207.016 133.569 207.382 133.658 207.801 133.658C208.082 133.658 208.336 133.619 208.563 133.54C208.79 133.459 208.987 133.34 209.154 133.184C209.321 133.027 209.447 132.834 209.532 132.603L211.333 132.805C211.219 133.281 211.003 133.697 210.683 134.052C210.367 134.403 209.962 134.677 209.468 134.872C208.975 135.064 208.41 135.16 207.775 135.16ZM219.009 131.559V126.818H220.937V135H219.067V133.546H218.982C218.798 134.004 218.494 134.379 218.071 134.67C217.652 134.961 217.136 135.107 216.521 135.107C215.985 135.107 215.511 134.988 215.099 134.75C214.691 134.508 214.371 134.158 214.14 133.7C213.909 133.239 213.794 132.681 213.794 132.028V126.818H215.722V131.729C215.722 132.248 215.864 132.66 216.148 132.965C216.432 133.271 216.805 133.423 217.267 133.423C217.551 133.423 217.826 133.354 218.093 133.216C218.359 133.077 218.577 132.871 218.748 132.598C218.922 132.321 219.009 131.974 219.009 131.559ZM227.292 135.16C226.472 135.16 225.763 134.989 225.167 134.648C224.574 134.304 224.117 133.817 223.798 133.189C223.478 132.557 223.318 131.813 223.318 130.957C223.318 130.115 223.478 129.377 223.798 128.741C224.121 128.102 224.572 127.605 225.151 127.25C225.73 126.891 226.41 126.712 227.191 126.712C227.695 126.712 228.171 126.793 228.618 126.957C229.069 127.116 229.467 127.365 229.812 127.702C230.16 128.04 230.433 128.469 230.632 128.991C230.831 129.51 230.93 130.128 230.93 130.845V131.436H224.224V130.137H229.082C229.078 129.767 228.998 129.439 228.842 129.151C228.686 128.86 228.468 128.631 228.187 128.464C227.91 128.297 227.587 128.214 227.218 128.214C226.823 128.214 226.477 128.31 226.179 128.501C225.881 128.69 225.648 128.938 225.481 129.247C225.318 129.553 225.234 129.888 225.231 130.254V131.388C225.231 131.864 225.318 132.273 225.492 132.614C225.666 132.951 225.909 133.21 226.221 133.391C226.534 133.569 226.9 133.658 227.319 133.658C227.599 133.658 227.853 133.619 228.08 133.54C228.308 133.459 228.505 133.34 228.672 133.184C228.839 133.027 228.965 132.834 229.05 132.603L230.85 132.805C230.737 133.281 230.52 133.697 230.201 134.052C229.884 134.403 229.48 134.677 228.986 134.872C228.492 135.064 227.928 135.16 227.292 135.16ZM243.796 127.09C243.746 126.625 243.537 126.262 243.168 126.003C242.802 125.744 242.326 125.614 241.74 125.614C241.328 125.614 240.975 125.676 240.68 125.801C240.385 125.925 240.16 126.094 240.004 126.307C239.847 126.52 239.767 126.763 239.764 127.037C239.764 127.264 239.815 127.461 239.918 127.628C240.025 127.795 240.169 127.937 240.35 128.054C240.531 128.168 240.731 128.263 240.952 128.342C241.172 128.42 241.394 128.485 241.617 128.539L242.64 128.794C243.052 128.89 243.448 129.02 243.828 129.183C244.212 129.347 244.554 129.553 244.856 129.801C245.162 130.05 245.403 130.35 245.581 130.701C245.758 131.053 245.847 131.465 245.847 131.937C245.847 132.576 245.684 133.139 245.357 133.626C245.03 134.109 244.558 134.487 243.94 134.76C243.326 135.03 242.582 135.165 241.708 135.165C240.859 135.165 240.122 135.034 239.497 134.771C238.876 134.508 238.39 134.125 238.038 133.62C237.69 133.116 237.502 132.502 237.473 131.777H239.418C239.446 132.157 239.563 132.473 239.769 132.725C239.975 132.978 240.243 133.166 240.573 133.29C240.907 133.414 241.28 133.477 241.692 133.477C242.122 133.477 242.498 133.413 242.821 133.285C243.148 133.153 243.404 132.972 243.588 132.741C243.773 132.507 243.867 132.234 243.871 131.921C243.867 131.637 243.784 131.403 243.62 131.218C243.457 131.03 243.228 130.874 242.933 130.749C242.642 130.621 242.301 130.508 241.91 130.408L240.669 130.089C239.771 129.858 239.061 129.508 238.539 129.039C238.02 128.567 237.761 127.94 237.761 127.159C237.761 126.516 237.935 125.953 238.283 125.471C238.635 124.988 239.112 124.613 239.716 124.347C240.32 124.077 241.003 123.942 241.767 123.942C242.541 123.942 243.219 124.077 243.801 124.347C244.387 124.613 244.847 124.984 245.181 125.46C245.515 125.932 245.687 126.475 245.698 127.09H243.796ZM248.273 135V126.818H250.202V135H248.273ZM249.243 125.657C248.938 125.657 248.675 125.556 248.455 125.353C248.234 125.147 248.124 124.901 248.124 124.613C248.124 124.322 248.234 124.075 248.455 123.873C248.675 123.667 248.938 123.564 249.243 123.564C249.552 123.564 249.815 123.667 250.031 123.873C250.251 124.075 250.362 124.322 250.362 124.613C250.362 124.901 250.251 125.147 250.031 125.353C249.815 125.556 249.552 125.657 249.243 125.657ZM257.02 126.818V128.31H252.317V126.818H257.02ZM253.478 124.858H255.406V132.539C255.406 132.798 255.445 132.997 255.523 133.136C255.605 133.271 255.712 133.363 255.843 133.413C255.974 133.462 256.12 133.487 256.28 133.487C256.401 133.487 256.511 133.478 256.61 133.461C256.713 133.443 256.791 133.427 256.844 133.413L257.169 134.92C257.066 134.956 256.919 134.995 256.727 135.037C256.539 135.08 256.308 135.105 256.035 135.112C255.552 135.126 255.117 135.053 254.73 134.893C254.343 134.73 254.035 134.478 253.808 134.137C253.584 133.796 253.474 133.37 253.478 132.859V124.858ZM259.276 135V133.775L263.495 128.485V128.416H259.415V126.818H265.855V128.134L261.838 133.333V133.402H265.993V135H259.276ZM273.771 131.559V126.818H275.699V135H273.829V133.546H273.744C273.559 134.004 273.256 134.379 272.833 134.67C272.414 134.961 271.897 135.107 271.283 135.107C270.747 135.107 270.273 134.988 269.861 134.75C269.452 134.508 269.133 134.158 268.902 133.7C268.671 133.239 268.556 132.681 268.556 132.028V126.818H270.484V131.729C270.484 132.248 270.626 132.66 270.91 132.965C271.194 133.271 271.567 133.423 272.029 133.423C272.313 133.423 272.588 133.354 272.854 133.216C273.121 133.077 273.339 132.871 273.51 132.598C273.684 132.321 273.771 131.974 273.771 131.559ZM280.36 130.206V135H278.432V126.818H280.275V128.208H280.371C280.559 127.75 280.859 127.386 281.271 127.116C281.686 126.847 282.199 126.712 282.81 126.712C283.375 126.712 283.867 126.832 284.286 127.074C284.708 127.315 285.035 127.665 285.266 128.123C285.5 128.581 285.616 129.137 285.612 129.79V135H283.684V130.089C283.684 129.542 283.542 129.114 283.258 128.805C282.977 128.496 282.588 128.342 282.091 128.342C281.754 128.342 281.454 128.416 281.191 128.565C280.932 128.711 280.727 128.922 280.578 129.199C280.433 129.476 280.36 129.812 280.36 130.206ZM291.881 138.239C291.188 138.239 290.593 138.145 290.096 137.956C289.599 137.772 289.199 137.523 288.898 137.211C288.596 136.898 288.386 136.552 288.269 136.172L290.006 135.751C290.084 135.911 290.197 136.069 290.346 136.225C290.496 136.385 290.696 136.516 290.948 136.619C291.204 136.726 291.525 136.779 291.913 136.779C292.459 136.779 292.912 136.646 293.271 136.38C293.629 136.117 293.809 135.684 293.809 135.08V133.53H293.713C293.614 133.729 293.468 133.933 293.276 134.142C293.088 134.352 292.838 134.528 292.525 134.67C292.216 134.812 291.827 134.883 291.359 134.883C290.73 134.883 290.16 134.735 289.649 134.441C289.141 134.142 288.736 133.699 288.434 133.109C288.136 132.516 287.987 131.774 287.987 130.882C287.987 129.984 288.136 129.226 288.434 128.608C288.736 127.987 289.143 127.516 289.654 127.196C290.165 126.873 290.735 126.712 291.364 126.712C291.843 126.712 292.237 126.793 292.546 126.957C292.859 127.116 293.107 127.31 293.292 127.537C293.477 127.761 293.617 127.972 293.713 128.171H293.819V126.818H295.721V135.133C295.721 135.833 295.554 136.412 295.22 136.87C294.887 137.328 294.43 137.67 293.851 137.898C293.273 138.125 292.616 138.239 291.881 138.239ZM291.897 133.37C292.305 133.37 292.653 133.271 292.941 133.072C293.228 132.873 293.447 132.587 293.596 132.214C293.745 131.841 293.819 131.394 293.819 130.872C293.819 130.357 293.745 129.906 293.596 129.519C293.45 129.132 293.234 128.832 292.946 128.619C292.662 128.402 292.312 128.294 291.897 128.294C291.467 128.294 291.108 128.406 290.821 128.629C290.533 128.853 290.316 129.16 290.171 129.551C290.025 129.938 289.952 130.378 289.952 130.872C289.952 131.373 290.025 131.811 290.171 132.188C290.32 132.56 290.538 132.852 290.826 133.061C291.117 133.267 291.474 133.37 291.897 133.37Z" fill="white"/>
<rect x="47.5" y="193.5" width="295" height="106" rx="5.5" fill="white"/>
<g clip-path="url(#clip1_33_789)">
<path d="M100.5 224.388C101.5 224.388 102.49 224.584 103.413 224.967C104.337 225.35 105.176 225.91 105.883 226.617C106.59 227.324 107.15 228.163 107.533 229.087C107.916 230.01 108.113 231 108.113 232C108.113 233 107.916 233.99 107.533 234.913C107.15 235.837 106.59 236.676 105.883 237.383C105.176 238.09 104.337 238.65 103.413 239.033C102.49 239.416 101.5 239.613 100.5 239.613C98.481 239.613 96.5448 238.81 95.1171 237.383C93.6895 235.955 92.8875 234.019 92.8875 232C92.8875 229.981 93.6895 228.045 95.1171 226.617C96.5448 225.19 98.481 224.388 100.5 224.388ZM100.5 257.012C111.266 257.012 122.613 262.305 122.613 264.625V268.613H78.3875V264.625C78.3875 262.305 89.7337 257.012 100.5 257.012ZM100.5 217.5C92.4888 217.5 86 223.989 86 232C86 240.011 92.4888 246.5 100.5 246.5C108.511 246.5 115 240.011 115 232C115 223.989 108.511 217.5 100.5 217.5ZM100.5 250.125C90.8212 250.125 71.5 254.982 71.5 264.625V275.5H129.5V264.625C129.5 254.982 110.179 250.125 100.5 250.125Z" fill="black"/>
</g>
<path d="M206.944 226.09C206.894 225.625 206.684 225.262 206.315 225.003C205.949 224.744 205.473 224.614 204.887 224.614C204.476 224.614 204.122 224.676 203.827 224.801C203.533 224.925 203.307 225.094 203.151 225.307C202.995 225.52 202.915 225.763 202.911 226.037C202.911 226.264 202.963 226.461 203.066 226.628C203.172 226.795 203.316 226.937 203.497 227.054C203.678 227.168 203.879 227.263 204.099 227.342C204.319 227.42 204.541 227.485 204.765 227.539L205.788 227.794C206.2 227.89 206.596 228.02 206.976 228.183C207.359 228.347 207.702 228.553 208.004 228.801C208.309 229.05 208.55 229.35 208.728 229.701C208.906 230.053 208.994 230.465 208.994 230.937C208.994 231.576 208.831 232.139 208.504 232.626C208.178 233.109 207.705 233.487 207.087 233.76C206.473 234.03 205.729 234.165 204.856 234.165C204.007 234.165 203.27 234.034 202.645 233.771C202.023 233.508 201.537 233.125 201.185 232.62C200.837 232.116 200.649 231.502 200.621 230.777H202.565C202.593 231.157 202.711 231.473 202.917 231.725C203.123 231.978 203.391 232.166 203.721 232.29C204.055 232.414 204.428 232.477 204.84 232.477C205.269 232.477 205.646 232.413 205.969 232.285C206.295 232.153 206.551 231.972 206.736 231.741C206.92 231.507 207.015 231.234 207.018 230.921C207.015 230.637 206.931 230.403 206.768 230.218C206.604 230.03 206.375 229.874 206.081 229.749C205.789 229.621 205.449 229.508 205.058 229.408L203.817 229.089C202.918 228.858 202.208 228.508 201.686 228.039C201.168 227.567 200.908 226.94 200.908 226.159C200.908 225.516 201.082 224.953 201.43 224.471C201.782 223.988 202.26 223.613 202.863 223.347C203.467 223.077 204.151 222.942 204.914 222.942C205.688 222.942 206.367 223.077 206.949 223.347C207.535 223.613 207.995 223.984 208.329 224.46C208.662 224.932 208.835 225.475 208.845 226.09H206.944ZM215.507 225.818V227.31H210.803V225.818H215.507ZM211.964 223.858H213.893V231.539C213.893 231.798 213.932 231.997 214.01 232.136C214.091 232.271 214.198 232.363 214.329 232.413C214.461 232.462 214.606 232.487 214.766 232.487C214.887 232.487 214.997 232.478 215.096 232.461C215.199 232.443 215.277 232.427 215.331 232.413L215.656 233.92C215.553 233.956 215.405 233.995 215.214 234.037C215.025 234.08 214.795 234.105 214.521 234.112C214.038 234.126 213.603 234.053 213.216 233.893C212.829 233.73 212.522 233.478 212.295 233.137C212.071 232.796 211.961 232.37 211.964 231.859V223.858ZM223.084 230.559V225.818H225.012V234H223.143V232.546H223.057C222.873 233.004 222.569 233.379 222.147 233.67C221.727 233.961 221.211 234.107 220.596 234.107C220.06 234.107 219.586 233.988 219.174 233.75C218.766 233.508 218.446 233.158 218.215 232.7C217.985 232.239 217.869 231.681 217.869 231.028V225.818H219.797V230.729C219.797 231.248 219.939 231.66 220.224 231.965C220.508 232.271 220.881 232.423 221.342 232.423C221.626 232.423 221.902 232.354 222.168 232.216C222.434 232.077 222.653 231.871 222.823 231.598C222.997 231.321 223.084 230.974 223.084 230.559ZM230.781 234.144C230.139 234.144 229.563 233.979 229.056 233.648C228.548 233.318 228.146 232.839 227.852 232.21C227.557 231.582 227.41 230.818 227.41 229.92C227.41 229.011 227.559 228.244 227.857 227.619C228.159 226.99 228.565 226.516 229.077 226.196C229.588 225.873 230.158 225.712 230.787 225.712C231.266 225.712 231.66 225.793 231.969 225.957C232.278 226.116 232.523 226.31 232.704 226.537C232.885 226.761 233.026 226.972 233.125 227.171H233.205V223.091H235.139V234H233.242V232.711H233.125C233.026 232.91 232.882 233.121 232.694 233.345C232.505 233.565 232.257 233.753 231.948 233.909C231.639 234.066 231.25 234.144 230.781 234.144ZM231.319 232.562C231.728 232.562 232.076 232.452 232.363 232.232C232.651 232.008 232.869 231.697 233.019 231.299C233.168 230.902 233.242 230.438 233.242 229.909C233.242 229.38 233.168 228.92 233.019 228.529C232.873 228.139 232.656 227.835 232.369 227.619C232.085 227.402 231.735 227.294 231.319 227.294C230.89 227.294 230.531 227.406 230.243 227.629C229.956 227.853 229.739 228.162 229.594 228.556C229.448 228.95 229.375 229.401 229.375 229.909C229.375 230.42 229.448 230.877 229.594 231.278C229.743 231.676 229.961 231.99 230.249 232.221C230.54 232.448 230.897 232.562 231.319 232.562ZM241.566 234.16C240.745 234.16 240.037 233.989 239.44 233.648C238.847 233.304 238.391 232.817 238.071 232.189C237.752 231.557 237.592 230.813 237.592 229.957C237.592 229.115 237.752 228.377 238.071 227.741C238.394 227.102 238.845 226.605 239.424 226.25C240.003 225.891 240.683 225.712 241.464 225.712C241.969 225.712 242.444 225.793 242.892 225.957C243.343 226.116 243.741 226.365 244.085 226.702C244.433 227.04 244.707 227.469 244.905 227.991C245.104 228.51 245.204 229.128 245.204 229.845V230.436H238.497V229.137H243.355C243.352 228.767 243.272 228.439 243.116 228.151C242.959 227.86 242.741 227.631 242.46 227.464C242.183 227.297 241.86 227.214 241.491 227.214C241.097 227.214 240.751 227.31 240.452 227.501C240.154 227.69 239.921 227.938 239.754 228.247C239.591 228.553 239.508 228.888 239.504 229.254V230.388C239.504 230.864 239.591 231.273 239.765 231.614C239.939 231.951 240.182 232.21 240.495 232.391C240.807 232.569 241.173 232.658 241.592 232.658C241.873 232.658 242.127 232.619 242.354 232.54C242.581 232.459 242.778 232.34 242.945 232.184C243.112 232.027 243.238 231.834 243.323 231.603L245.124 231.805C245.01 232.281 244.794 232.697 244.474 233.052C244.158 233.403 243.753 233.677 243.259 233.872C242.766 234.064 242.201 234.16 241.566 234.16ZM249.513 229.206V234H247.585V225.818H249.428V227.208H249.524C249.712 226.75 250.012 226.386 250.424 226.116C250.84 225.847 251.353 225.712 251.964 225.712C252.528 225.712 253.02 225.832 253.439 226.074C253.862 226.315 254.188 226.665 254.419 227.123C254.654 227.581 254.769 228.137 254.765 228.79V234H252.837V229.089C252.837 228.542 252.695 228.114 252.411 227.805C252.13 227.496 251.742 227.342 251.244 227.342C250.907 227.342 250.607 227.416 250.344 227.565C250.085 227.711 249.881 227.922 249.732 228.199C249.586 228.476 249.513 228.812 249.513 229.206ZM261.561 225.818V227.31H256.858V225.818H261.561ZM258.019 223.858H259.947V231.539C259.947 231.798 259.986 231.997 260.064 232.136C260.146 232.271 260.253 232.363 260.384 232.413C260.515 232.462 260.661 232.487 260.821 232.487C260.942 232.487 261.052 232.478 261.151 232.461C261.254 232.443 261.332 232.427 261.385 232.413L261.71 233.92C261.607 233.956 261.46 233.995 261.268 234.037C261.08 234.08 260.849 234.105 260.576 234.112C260.093 234.126 259.658 234.053 259.271 233.893C258.884 233.73 258.576 233.478 258.349 233.137C258.125 232.796 258.015 232.37 258.019 231.859V223.858ZM267.458 234.16C266.638 234.16 265.929 233.989 265.333 233.648C264.74 233.304 264.283 232.817 263.964 232.189C263.644 231.557 263.484 230.813 263.484 229.957C263.484 229.115 263.644 228.377 263.964 227.741C264.287 227.102 264.738 226.605 265.317 226.25C265.896 225.891 266.576 225.712 267.357 225.712C267.861 225.712 268.337 225.793 268.784 225.957C269.235 226.116 269.633 226.365 269.978 226.702C270.326 227.04 270.599 227.469 270.798 227.991C270.997 228.51 271.096 229.128 271.096 229.845V230.436H264.39V229.137H269.248C269.244 228.767 269.164 228.439 269.008 228.151C268.852 227.86 268.634 227.631 268.353 227.464C268.076 227.297 267.753 227.214 267.384 227.214C266.989 227.214 266.643 227.31 266.345 227.501C266.047 227.69 265.814 227.938 265.647 228.247C265.484 228.553 265.4 228.888 265.397 229.254V230.388C265.397 230.864 265.484 231.273 265.658 231.614C265.832 231.951 266.075 232.21 266.387 232.391C266.7 232.569 267.066 232.658 267.485 232.658C267.765 232.658 268.019 232.619 268.246 232.54C268.474 232.459 268.671 232.34 268.838 232.184C269.005 232.027 269.131 231.834 269.216 231.603L271.016 231.805C270.903 232.281 270.686 232.697 270.367 233.052C270.05 233.403 269.646 233.677 269.152 233.872C268.658 234.064 268.094 234.16 267.458 234.16ZM275.406 229.206V234H273.478V225.818H275.321V227.208H275.417C275.605 226.75 275.905 226.386 276.317 226.116C276.732 225.847 277.245 225.712 277.856 225.712C278.421 225.712 278.913 225.832 279.332 226.074C279.754 226.315 280.081 226.665 280.312 227.123C280.546 227.581 280.662 228.137 280.658 228.79V234H278.73V229.089C278.73 228.542 278.588 228.114 278.304 227.805C278.023 227.496 277.634 227.342 277.137 227.342C276.8 227.342 276.5 227.416 276.237 227.565C275.978 227.711 275.773 227.922 275.624 228.199C275.479 228.476 275.406 228.812 275.406 229.206ZM287.821 222.58L284.306 235.641H282.617L286.133 222.58H287.821ZM218.043 244.09C217.993 243.625 217.783 243.262 217.414 243.003C217.048 242.744 216.573 242.614 215.987 242.614C215.575 242.614 215.221 242.676 214.927 242.801C214.632 242.925 214.406 243.094 214.25 243.307C214.094 243.52 214.014 243.763 214.01 244.037C214.01 244.264 214.062 244.461 214.165 244.628C214.271 244.795 214.415 244.937 214.596 245.054C214.777 245.168 214.978 245.263 215.198 245.342C215.418 245.42 215.64 245.485 215.864 245.539L216.887 245.794C217.299 245.89 217.695 246.02 218.075 246.183C218.458 246.347 218.801 246.553 219.103 246.801C219.408 247.05 219.65 247.35 219.827 247.701C220.005 248.053 220.093 248.465 220.093 248.937C220.093 249.576 219.93 250.139 219.603 250.626C219.277 251.109 218.804 251.487 218.187 251.76C217.572 252.03 216.828 252.165 215.955 252.165C215.106 252.165 214.369 252.034 213.744 251.771C213.123 251.508 212.636 251.125 212.285 250.62C211.937 250.116 211.748 249.502 211.72 248.777H213.664C213.693 249.157 213.81 249.473 214.016 249.725C214.222 249.978 214.49 250.166 214.82 250.29C215.154 250.414 215.527 250.477 215.939 250.477C216.368 250.477 216.745 250.413 217.068 250.285C217.395 250.153 217.65 249.972 217.835 249.741C218.02 249.507 218.114 249.234 218.117 248.921C218.114 248.637 218.03 248.403 217.867 248.218C217.704 248.03 217.475 247.874 217.18 247.749C216.889 247.621 216.548 247.508 216.157 247.408L214.916 247.089C214.017 246.858 213.307 246.508 212.785 246.039C212.267 245.567 212.008 244.94 212.008 244.159C212.008 243.516 212.182 242.953 212.53 242.471C212.881 241.988 213.359 241.613 213.962 241.347C214.566 241.077 215.25 240.942 216.013 240.942C216.787 240.942 217.466 241.077 218.048 241.347C218.634 241.613 219.094 241.984 219.428 242.46C219.761 242.932 219.934 243.475 219.944 244.09H218.043ZM226.089 252.16C225.272 252.16 224.571 251.98 223.985 251.622C223.403 251.263 222.953 250.768 222.637 250.136C222.325 249.5 222.169 248.768 222.169 247.941C222.169 247.11 222.328 246.377 222.648 245.741C222.968 245.102 223.419 244.605 224.001 244.25C224.587 243.891 225.279 243.712 226.078 243.712C226.742 243.712 227.33 243.834 227.841 244.079C228.356 244.321 228.767 244.663 229.072 245.107C229.377 245.548 229.551 246.062 229.594 246.652H227.751C227.676 246.258 227.499 245.929 227.218 245.667C226.941 245.4 226.57 245.267 226.105 245.267C225.711 245.267 225.365 245.374 225.066 245.587C224.768 245.796 224.535 246.098 224.368 246.492C224.205 246.886 224.123 247.359 224.123 247.909C224.123 248.467 224.205 248.946 224.368 249.347C224.532 249.745 224.761 250.052 225.056 250.269C225.354 250.482 225.704 250.588 226.105 250.588C226.389 250.588 226.643 250.535 226.867 250.429C227.094 250.319 227.284 250.161 227.437 249.955C227.589 249.749 227.694 249.498 227.751 249.203H229.594C229.548 249.782 229.377 250.295 229.083 250.743C228.788 251.187 228.387 251.535 227.879 251.787C227.371 252.036 226.774 252.16 226.089 252.16ZM233.856 247.206V252H231.927V241.091H233.813V245.208H233.909C234.101 244.747 234.397 244.383 234.798 244.116C235.203 243.847 235.718 243.712 236.343 243.712C236.911 243.712 237.407 243.831 237.829 244.069C238.252 244.306 238.579 244.654 238.809 245.113C239.044 245.571 239.161 246.13 239.161 246.79V252H237.233V247.089C237.233 246.538 237.091 246.11 236.807 245.805C236.526 245.496 236.132 245.342 235.624 245.342C235.283 245.342 234.978 245.416 234.708 245.565C234.441 245.711 234.232 245.922 234.079 246.199C233.93 246.476 233.856 246.812 233.856 247.206ZM247.091 248.559V243.818H249.02V252H247.15V250.546H247.065C246.88 251.004 246.576 251.379 246.154 251.67C245.735 251.961 245.218 252.107 244.604 252.107C244.068 252.107 243.593 251.988 243.182 251.75C242.773 251.508 242.454 251.158 242.223 250.7C241.992 250.239 241.877 249.681 241.877 249.028V243.818H243.805V248.729C243.805 249.248 243.947 249.66 244.231 249.965C244.515 250.271 244.888 250.423 245.35 250.423C245.634 250.423 245.909 250.354 246.175 250.216C246.441 250.077 246.66 249.871 246.83 249.598C247.004 249.321 247.091 248.974 247.091 248.559ZM243.863 242.614C243.583 242.614 243.34 242.515 243.134 242.316C242.931 242.117 242.83 241.883 242.83 241.613C242.83 241.329 242.931 241.091 243.134 240.899C243.34 240.704 243.583 240.606 243.863 240.606C244.151 240.606 244.392 240.704 244.588 240.899C244.787 241.091 244.886 241.329 244.886 241.613C244.886 241.883 244.787 242.117 244.588 242.316C244.392 242.515 244.151 242.614 243.863 242.614ZM247.059 242.614C246.779 242.614 246.536 242.515 246.33 242.316C246.127 242.117 246.026 241.883 246.026 241.613C246.026 241.329 246.127 241.091 246.33 240.899C246.536 240.704 246.779 240.606 247.059 240.606C247.347 240.606 247.589 240.704 247.784 240.899C247.983 241.091 248.082 241.329 248.082 241.613C248.082 241.883 247.983 242.117 247.784 242.316C247.589 242.515 247.347 242.614 247.059 242.614ZM253.681 241.091V252H251.752V241.091H253.681ZM260.036 252.16C259.215 252.16 258.507 251.989 257.91 251.648C257.317 251.304 256.861 250.817 256.541 250.189C256.222 249.557 256.062 248.813 256.062 247.957C256.062 247.115 256.222 246.377 256.541 245.741C256.865 245.102 257.316 244.605 257.894 244.25C258.473 243.891 259.153 243.712 259.935 243.712C260.439 243.712 260.915 243.793 261.362 243.957C261.813 244.116 262.211 244.365 262.555 244.702C262.903 245.04 263.177 245.469 263.376 245.991C263.574 246.51 263.674 247.128 263.674 247.845V248.436H256.968V247.137H261.826C261.822 246.767 261.742 246.439 261.586 246.151C261.43 245.86 261.211 245.631 260.931 245.464C260.654 245.297 260.331 245.214 259.961 245.214C259.567 245.214 259.221 245.31 258.922 245.501C258.624 245.69 258.392 245.938 258.225 246.247C258.061 246.553 257.978 246.888 257.974 247.254V248.388C257.974 248.864 258.061 249.273 258.235 249.614C258.409 249.951 258.653 250.21 258.965 250.391C259.278 250.569 259.643 250.658 260.062 250.658C260.343 250.658 260.597 250.619 260.824 250.54C261.051 250.459 261.248 250.34 261.415 250.184C261.582 250.027 261.708 249.834 261.794 249.603L263.594 249.805C263.48 250.281 263.264 250.697 262.944 251.052C262.628 251.403 262.223 251.677 261.73 251.872C261.236 252.064 260.671 252.16 260.036 252.16ZM266.055 252V243.818H267.925V245.182H268.01C268.159 244.71 268.415 244.346 268.777 244.09C269.143 243.831 269.56 243.701 270.029 243.701C270.135 243.701 270.254 243.706 270.386 243.717C270.521 243.724 270.633 243.737 270.721 243.754V245.528C270.64 245.5 270.51 245.475 270.333 245.453C270.159 245.429 269.99 245.416 269.827 245.416C269.475 245.416 269.159 245.493 268.878 245.645C268.601 245.794 268.383 246.002 268.223 246.268C268.063 246.535 267.983 246.842 267.983 247.19V252H266.055ZM276.722 240.58L273.207 253.641H271.518L275.034 240.58H276.722ZM208.027 270V259.091H210.003V268.343H214.808V270H208.027ZM220.81 270.16C219.99 270.16 219.281 269.989 218.685 269.648C218.092 269.304 217.635 268.817 217.316 268.189C216.996 267.557 216.836 266.813 216.836 265.957C216.836 265.115 216.996 264.377 217.316 263.741C217.639 263.102 218.09 262.605 218.669 262.25C219.248 261.891 219.928 261.712 220.709 261.712C221.213 261.712 221.689 261.793 222.137 261.957C222.588 262.116 222.985 262.365 223.33 262.702C223.678 263.04 223.951 263.469 224.15 263.991C224.349 264.51 224.448 265.128 224.448 265.845V266.436H217.742V265.137H222.6C222.596 264.767 222.517 264.439 222.36 264.151C222.204 263.86 221.986 263.631 221.705 263.464C221.428 263.297 221.105 263.214 220.736 263.214C220.341 263.214 219.995 263.31 219.697 263.501C219.399 263.69 219.166 263.938 218.999 264.247C218.836 264.553 218.752 264.888 218.749 265.254V266.388C218.749 266.864 218.836 267.273 219.01 267.614C219.184 267.951 219.427 268.21 219.74 268.391C220.052 268.569 220.418 268.658 220.837 268.658C221.117 268.658 221.371 268.619 221.599 268.54C221.826 268.459 222.023 268.34 222.19 268.184C222.357 268.027 222.483 267.834 222.568 267.603L224.368 267.805C224.255 268.281 224.038 268.697 223.719 269.052C223.403 269.403 222.998 269.677 222.504 269.872C222.01 270.064 221.446 270.16 220.81 270.16ZM226.83 270V261.818H228.699V263.182H228.785C228.934 262.71 229.189 262.346 229.552 262.09C229.917 261.831 230.335 261.701 230.803 261.701C230.91 261.701 231.029 261.706 231.16 261.717C231.295 261.724 231.407 261.737 231.496 261.754V263.528C231.414 263.5 231.285 263.475 231.107 263.453C230.933 263.429 230.764 263.416 230.601 263.416C230.249 263.416 229.933 263.493 229.653 263.645C229.376 263.794 229.157 264.002 228.998 264.268C228.838 264.535 228.758 264.842 228.758 265.19V270H226.83ZM235.455 265.206V270H233.527V261.818H235.37V263.208H235.466C235.654 262.75 235.954 262.386 236.366 262.116C236.782 261.847 237.295 261.712 237.905 261.712C238.47 261.712 238.962 261.832 239.381 262.074C239.804 262.315 240.13 262.665 240.361 263.123C240.595 263.581 240.711 264.137 240.707 264.79V270H238.779V265.089C238.779 264.542 238.637 264.114 238.353 263.805C238.072 263.496 237.684 263.342 237.186 263.342C236.849 263.342 236.549 263.416 236.286 263.565C236.027 263.711 235.823 263.922 235.674 264.199C235.528 264.476 235.455 264.812 235.455 265.206ZM247.04 270.16C246.219 270.16 245.511 269.989 244.914 269.648C244.321 269.304 243.865 268.817 243.545 268.189C243.226 267.557 243.066 266.813 243.066 265.957C243.066 265.115 243.226 264.377 243.545 263.741C243.869 263.102 244.32 262.605 244.898 262.25C245.477 261.891 246.157 261.712 246.938 261.712C247.443 261.712 247.919 261.793 248.366 261.957C248.817 262.116 249.215 262.365 249.559 262.702C249.907 263.04 250.181 263.469 250.38 263.991C250.578 264.51 250.678 265.128 250.678 265.845V266.436H243.972V265.137H248.829C248.826 264.767 248.746 264.439 248.59 264.151C248.434 263.86 248.215 263.631 247.935 263.464C247.658 263.297 247.334 263.214 246.965 263.214C246.571 263.214 246.225 263.31 245.926 263.501C245.628 263.69 245.396 263.938 245.229 264.247C245.065 264.553 244.982 264.888 244.978 265.254V266.388C244.978 266.864 245.065 267.273 245.239 267.614C245.413 267.951 245.657 268.21 245.969 268.391C246.282 268.569 246.647 268.658 247.066 268.658C247.347 268.658 247.601 268.619 247.828 268.54C248.055 268.459 248.252 268.34 248.419 268.184C248.586 268.027 248.712 267.834 248.797 267.603L250.598 267.805C250.484 268.281 250.268 268.697 249.948 269.052C249.632 269.403 249.227 269.677 248.734 269.872C248.24 270.064 247.675 270.16 247.04 270.16ZM254.987 265.206V270H253.059V261.818H254.902V263.208H254.998C255.186 262.75 255.486 262.386 255.898 262.116C256.314 261.847 256.827 261.712 257.438 261.712C258.002 261.712 258.494 261.832 258.913 262.074C259.336 262.315 259.662 262.665 259.893 263.123C260.128 263.581 260.243 264.137 260.24 264.79V270H258.311V265.089C258.311 264.542 258.169 264.114 257.885 263.805C257.605 263.496 257.216 263.342 256.719 263.342C256.381 263.342 256.081 263.416 255.818 263.565C255.559 263.711 255.355 263.922 255.206 264.199C255.06 264.476 254.987 264.812 254.987 265.206ZM265.986 270.144C265.343 270.144 264.768 269.979 264.26 269.648C263.752 269.318 263.351 268.839 263.056 268.21C262.762 267.582 262.614 266.818 262.614 265.92C262.614 265.011 262.763 264.244 263.062 263.619C263.363 262.99 263.77 262.516 264.281 262.196C264.793 261.873 265.363 261.712 265.991 261.712C266.471 261.712 266.865 261.793 267.174 261.957C267.483 262.116 267.728 262.31 267.909 262.537C268.09 262.761 268.23 262.972 268.33 263.171H268.41V259.091H270.343V270H268.447V268.711H268.33C268.23 268.91 268.086 269.121 267.898 269.345C267.71 269.565 267.461 269.753 267.153 269.909C266.844 270.066 266.455 270.144 265.986 270.144ZM266.524 268.562C266.932 268.562 267.28 268.452 267.568 268.232C267.856 268.008 268.074 267.697 268.223 267.299C268.372 266.902 268.447 266.438 268.447 265.909C268.447 265.38 268.372 264.92 268.223 264.529C268.078 264.139 267.861 263.835 267.573 263.619C267.289 263.402 266.939 263.294 266.524 263.294C266.094 263.294 265.736 263.406 265.448 263.629C265.16 263.853 264.944 264.162 264.798 264.556C264.653 264.95 264.58 265.401 264.58 265.909C264.58 266.42 264.653 266.877 264.798 267.278C264.947 267.676 265.166 267.99 265.453 268.221C265.744 268.448 266.101 268.562 266.524 268.562ZM276.77 270.16C275.95 270.16 275.241 269.989 274.645 269.648C274.052 269.304 273.595 268.817 273.276 268.189C272.956 267.557 272.796 266.813 272.796 265.957C272.796 265.115 272.956 264.377 273.276 263.741C273.599 263.102 274.05 262.605 274.629 262.25C275.208 261.891 275.888 261.712 276.669 261.712C277.173 261.712 277.649 261.793 278.097 261.957C278.547 262.116 278.945 262.365 279.29 262.702C279.638 263.04 279.911 263.469 280.11 263.991C280.309 264.51 280.408 265.128 280.408 265.845V266.436H273.702V265.137H278.56C278.556 264.767 278.476 264.439 278.32 264.151C278.164 263.86 277.946 263.631 277.665 263.464C277.388 263.297 277.065 263.214 276.696 263.214C276.301 263.214 275.955 263.31 275.657 263.501C275.359 263.69 275.126 263.938 274.959 264.247C274.796 264.553 274.712 264.888 274.709 265.254V266.388C274.709 266.864 274.796 267.273 274.97 267.614C275.144 267.951 275.387 268.21 275.699 268.391C276.012 268.569 276.378 268.658 276.797 268.658C277.077 268.658 277.331 268.619 277.559 268.54C277.786 268.459 277.983 268.34 278.15 268.184C278.317 268.027 278.443 267.834 278.528 267.603L280.328 267.805C280.215 268.281 279.998 268.697 279.679 269.052C279.362 269.403 278.958 269.677 278.464 269.872C277.97 270.064 277.406 270.16 276.77 270.16Z" fill="#4D4D4D"/>
<rect x="47.5" y="193.5" width="295" height="106" rx="5.5" stroke="black"/>
<rect x="47.5" y="310.5" width="295" height="106" rx="5.5" fill="white"/>
<g clip-path="url(#clip2_33_789)">
<path d="M60.625 385.25C59.5979 385.25 58.7376 384.902 58.044 384.206C57.348 383.512 57 382.652 57 381.625V379.541C57 376.882 58.3292 374.752 60.9875 373.15C63.6458 371.55 67.15 370.75 71.5 370.75C72.2854 370.75 73.0261 370.78 73.7221 370.841C74.4157 370.901 75.0948 370.992 75.7594 371.113C74.9135 372.321 74.2937 373.62 73.8997 375.009C73.5083 376.399 73.3125 377.879 73.3125 379.45V385.25H60.625ZM82.375 385.25C81.3479 385.25 80.4864 384.902 79.7904 384.206C79.0968 383.512 78.75 382.652 78.75 381.625V379.45C78.75 375.523 80.7595 372.335 84.7784 369.887C88.7949 367.442 94.0354 366.219 100.5 366.219C107.025 366.219 112.281 367.442 116.269 369.887C120.256 372.335 122.25 375.523 122.25 379.45V381.625C122.25 382.652 121.902 383.512 121.206 384.206C120.512 384.902 119.652 385.25 118.625 385.25H82.375ZM127.688 385.25V379.45C127.688 377.879 127.476 376.399 127.053 375.009C126.63 373.62 126.026 372.321 125.241 371.113C125.905 370.992 126.586 370.901 127.282 370.841C127.975 370.78 128.715 370.75 129.5 370.75C133.85 370.75 137.354 371.55 140.012 373.15C142.671 374.752 144 376.882 144 379.541V381.625C144 382.652 143.652 383.512 142.956 384.206C142.262 384.902 141.402 385.25 140.375 385.25H127.688ZM100.5 373.469C97.0563 373.469 93.975 373.936 91.2562 374.872C88.5375 375.809 86.9365 376.852 86.4531 378H114.547C114.003 376.792 112.388 375.734 109.7 374.828C107.011 373.922 103.944 373.469 100.5 373.469ZM71.5 367.125C69.5063 367.125 67.8001 366.414 66.3815 364.993C64.9605 363.575 64.25 361.869 64.25 359.875C64.25 357.881 64.9605 356.174 66.3815 354.753C67.8001 353.334 69.5063 352.625 71.5 352.625C73.4937 352.625 75.1999 353.334 76.6185 354.753C78.0395 356.174 78.75 357.881 78.75 359.875C78.75 361.869 78.0395 363.575 76.6185 364.993C75.1999 366.414 73.4937 367.125 71.5 367.125ZM129.5 367.125C127.506 367.125 125.799 366.414 124.378 364.993C122.959 363.575 122.25 361.869 122.25 359.875C122.25 357.881 122.959 356.174 124.378 354.753C125.799 353.334 127.506 352.625 129.5 352.625C131.494 352.625 133.201 353.334 134.622 354.753C136.041 356.174 136.75 357.881 136.75 359.875C136.75 361.869 136.041 363.575 134.622 364.993C133.201 366.414 131.494 367.125 129.5 367.125ZM100.5 363.5C97.4792 363.5 94.9115 362.443 92.7969 360.328C90.6823 358.214 89.625 355.646 89.625 352.625C89.625 349.604 90.6823 347.036 92.7969 344.922C94.9115 342.807 97.4792 341.75 100.5 341.75C103.521 341.75 106.089 342.807 108.203 344.922C110.318 347.036 111.375 349.604 111.375 352.625C111.375 355.646 110.318 358.214 108.203 360.328C106.089 362.443 103.521 363.5 100.5 363.5ZM100.5 349C99.4729 349 98.6126 349.347 97.919 350.04C97.223 350.736 96.875 351.598 96.875 352.625C96.875 353.652 97.223 354.512 97.919 355.206C98.6126 355.902 99.4729 356.25 100.5 356.25C101.527 356.25 102.389 355.902 103.085 355.206C103.778 354.512 104.125 353.652 104.125 352.625C104.125 351.598 103.778 350.736 103.085 350.04C102.389 349.347 101.527 349 100.5 349Z" fill="black"/>
</g>
<path d="M214.24 369V358.091H216.216V363.103H216.349L220.605 358.091H223.018L218.799 362.986L223.055 369H220.68L217.425 364.323L216.216 365.751V369H214.24ZM226.984 358.091V369H225.056V358.091H226.984ZM232.071 369.165C231.553 369.165 231.086 369.073 230.67 368.888C230.258 368.7 229.932 368.423 229.69 368.057C229.452 367.691 229.333 367.24 229.333 366.704C229.333 366.243 229.419 365.861 229.589 365.559C229.759 365.257 229.992 365.016 230.287 364.835C230.582 364.653 230.914 364.517 231.283 364.424C231.656 364.328 232.041 364.259 232.439 364.217C232.918 364.167 233.307 364.123 233.605 364.083C233.904 364.041 234.12 363.977 234.255 363.892C234.394 363.803 234.463 363.666 234.463 363.482V363.45C234.463 363.048 234.344 362.738 234.106 362.517C233.868 362.297 233.525 362.187 233.078 362.187C232.606 362.187 232.231 362.29 231.954 362.496C231.681 362.702 231.496 362.945 231.4 363.226L229.6 362.97C229.742 362.473 229.976 362.058 230.303 361.724C230.629 361.386 231.029 361.134 231.501 360.967C231.974 360.797 232.496 360.712 233.067 360.712C233.462 360.712 233.854 360.758 234.245 360.85C234.635 360.942 234.992 361.095 235.315 361.308C235.638 361.518 235.898 361.804 236.093 362.166C236.292 362.528 236.391 362.981 236.391 363.524V369H234.538V367.876H234.474C234.356 368.103 234.191 368.316 233.978 368.515C233.769 368.711 233.504 368.869 233.185 368.989C232.868 369.107 232.497 369.165 232.071 369.165ZM232.572 367.748C232.959 367.748 233.295 367.672 233.579 367.519C233.863 367.363 234.081 367.157 234.234 366.901C234.39 366.646 234.468 366.367 234.468 366.065V365.101C234.408 365.151 234.305 365.197 234.159 365.239C234.017 365.282 233.857 365.319 233.68 365.351C233.502 365.383 233.327 365.412 233.153 365.436C232.979 365.461 232.828 365.483 232.7 365.5C232.412 365.539 232.155 365.603 231.927 365.692C231.7 365.781 231.521 365.905 231.389 366.065C231.258 366.221 231.192 366.424 231.192 366.672C231.192 367.027 231.322 367.295 231.581 367.477C231.84 367.658 232.171 367.748 232.572 367.748ZM245.547 362.981L243.789 363.173C243.739 362.995 243.652 362.828 243.528 362.672C243.407 362.516 243.244 362.39 243.038 362.294C242.832 362.198 242.58 362.15 242.281 362.15C241.88 362.15 241.543 362.237 241.269 362.411C241 362.585 240.866 362.81 240.87 363.087C240.866 363.325 240.953 363.519 241.131 363.668C241.312 363.817 241.61 363.94 242.026 364.036L243.421 364.334C244.196 364.501 244.771 364.765 245.147 365.127C245.527 365.49 245.719 365.964 245.723 366.55C245.719 367.065 245.568 367.519 245.27 367.913C244.975 368.304 244.565 368.609 244.039 368.83C243.514 369.05 242.91 369.16 242.228 369.16C241.227 369.16 240.421 368.95 239.81 368.531C239.199 368.109 238.835 367.521 238.718 366.768L240.598 366.587C240.683 366.956 240.865 367.235 241.142 367.423C241.419 367.612 241.779 367.706 242.223 367.706C242.681 367.706 243.049 367.612 243.326 367.423C243.606 367.235 243.746 367.002 243.746 366.725C243.746 366.491 243.656 366.298 243.475 366.145C243.297 365.992 243.02 365.875 242.644 365.793L241.248 365.5C240.463 365.337 239.883 365.062 239.506 364.675C239.13 364.284 238.943 363.79 238.947 363.194C238.943 362.69 239.08 362.253 239.357 361.884C239.638 361.511 240.027 361.223 240.524 361.021C241.024 360.815 241.601 360.712 242.255 360.712C243.214 360.712 243.968 360.916 244.519 361.324C245.073 361.733 245.415 362.285 245.547 362.981ZM254.529 362.981L252.771 363.173C252.722 362.995 252.635 362.828 252.51 362.672C252.39 362.516 252.226 362.39 252.02 362.294C251.814 362.198 251.562 362.15 251.264 362.15C250.863 362.15 250.525 362.237 250.252 362.411C249.982 362.585 249.849 362.81 249.852 363.087C249.849 363.325 249.936 363.519 250.113 363.668C250.294 363.817 250.593 363.94 251.008 364.036L252.404 364.334C253.178 364.501 253.753 364.765 254.13 365.127C254.51 365.49 254.701 365.964 254.705 366.55C254.701 367.065 254.55 367.519 254.252 367.913C253.957 368.304 253.547 368.609 253.022 368.83C252.496 369.05 251.892 369.16 251.211 369.16C250.209 369.16 249.403 368.95 248.792 368.531C248.182 368.109 247.818 367.521 247.7 366.768L249.581 366.587C249.666 366.956 249.847 367.235 250.124 367.423C250.401 367.612 250.761 367.706 251.205 367.706C251.663 367.706 252.031 367.612 252.308 367.423C252.588 367.235 252.729 367.002 252.729 366.725C252.729 366.491 252.638 366.298 252.457 366.145C252.28 365.992 252.003 365.875 251.626 365.793L250.231 365.5C249.446 365.337 248.865 365.062 248.489 364.675C248.112 364.284 247.926 363.79 247.929 363.194C247.926 362.69 248.063 362.253 248.34 361.884C248.62 361.511 249.009 361.223 249.506 361.021C250.007 360.815 250.584 360.712 251.237 360.712C252.196 360.712 252.951 360.916 253.501 361.324C254.055 361.733 254.398 362.285 254.529 362.981ZM260.667 369.16C259.847 369.16 259.138 368.989 258.542 368.648C257.949 368.304 257.492 367.817 257.173 367.189C256.853 366.557 256.693 365.813 256.693 364.957C256.693 364.115 256.853 363.377 257.173 362.741C257.496 362.102 257.947 361.605 258.526 361.25C259.105 360.891 259.785 360.712 260.566 360.712C261.07 360.712 261.546 360.793 261.993 360.957C262.444 361.116 262.842 361.365 263.187 361.702C263.535 362.04 263.808 362.469 264.007 362.991C264.206 363.51 264.305 364.128 264.305 364.845V365.436H257.599V364.137H262.457C262.453 363.767 262.373 363.439 262.217 363.151C262.061 362.86 261.843 362.631 261.562 362.464C261.285 362.297 260.962 362.214 260.593 362.214C260.198 362.214 259.852 362.31 259.554 362.501C259.256 362.69 259.023 362.938 258.856 363.247C258.693 363.553 258.609 363.888 258.606 364.254V365.388C258.606 365.864 258.693 366.273 258.867 366.614C259.041 366.951 259.284 367.21 259.596 367.391C259.909 367.569 260.275 367.658 260.694 367.658C260.974 367.658 261.228 367.619 261.455 367.54C261.683 367.459 261.88 367.34 262.047 367.184C262.214 367.027 262.34 366.834 262.425 366.603L264.225 366.805C264.112 367.281 263.895 367.697 263.576 368.052C263.259 368.403 262.855 368.677 262.361 368.872C261.867 369.064 261.303 369.16 260.667 369.16ZM268.615 364.206V369H266.687V360.818H268.53V362.208H268.625C268.814 361.75 269.114 361.386 269.526 361.116C269.941 360.847 270.454 360.712 271.065 360.712C271.63 360.712 272.122 360.832 272.541 361.074C272.963 361.315 273.29 361.665 273.521 362.123C273.755 362.581 273.871 363.137 273.867 363.79V369H271.939V364.089C271.939 363.542 271.797 363.114 271.513 362.805C271.232 362.496 270.843 362.342 270.346 362.342C270.009 362.342 269.709 362.416 269.446 362.565C269.187 362.711 268.982 362.922 268.833 363.199C268.688 363.476 268.615 363.812 268.615 364.206Z" fill="#4D4D4D"/>
<rect x="47.5" y="310.5" width="295" height="106" rx="5.5" stroke="black"/>
<rect x="47.5" y="427.5" width="295" height="106" rx="5.5" fill="white"/>
<g clip-path="url(#clip3_33_789)">
<path d="M71.5 513.125C70.4729 513.125 69.6126 512.777 68.919 512.081C68.223 511.387 67.875 510.527 67.875 509.5C67.875 508.473 68.223 507.613 68.919 506.919C69.6126 506.223 70.4729 505.875 71.5 505.875H75.125V451.5C75.125 450.473 75.4718 449.611 76.1654 448.915C76.8614 448.222 77.7229 447.875 78.75 447.875H107.75C108.777 447.875 109.639 448.222 110.335 448.915C111.028 449.611 111.375 450.473 111.375 451.5H122.25C123.277 451.5 124.137 451.847 124.831 452.54C125.527 453.236 125.875 454.098 125.875 455.125V473.25H118.625V458.75H111.375V480.5H104.125V455.125H82.375V505.875H100.5V513.125H71.5ZM120.075 516.75C119.592 516.75 119.213 516.613 118.94 516.34C118.67 516.07 118.474 515.723 118.353 515.3L117.538 511.312C116.813 511.01 116.133 510.678 115.5 510.316C114.865 509.953 114.245 509.53 113.641 509.047L109.834 510.406C109.411 510.527 109.004 510.513 108.613 510.363C108.219 510.211 107.901 509.953 107.659 509.591L105.484 505.875C105.243 505.513 105.167 505.12 105.256 504.697C105.348 504.274 105.545 503.911 105.847 503.609L108.838 500.981C108.717 500.075 108.656 499.304 108.656 498.668C108.656 498.035 108.717 497.266 108.838 496.359L105.847 493.731C105.545 493.429 105.348 493.067 105.256 492.644C105.167 492.221 105.243 491.828 105.484 491.466L107.659 487.75C107.901 487.388 108.219 487.13 108.613 486.978C109.004 486.828 109.411 486.814 109.834 486.934L113.641 488.294C114.245 487.81 114.865 487.372 115.5 486.978C116.133 486.586 116.813 486.24 117.538 485.938L118.353 481.95C118.474 481.527 118.67 481.18 118.94 480.91C119.213 480.637 119.592 480.5 120.075 480.5H124.425C124.908 480.5 125.287 480.637 125.56 480.91C125.83 481.18 126.026 481.527 126.147 481.95L126.962 485.938C127.687 486.24 128.368 486.572 129.003 486.934C129.637 487.297 130.255 487.72 130.859 488.203L134.666 486.844C135.089 486.723 135.497 486.737 135.891 486.887C136.282 487.04 136.599 487.297 136.841 487.659L139.016 491.375C139.257 491.737 139.333 492.13 139.244 492.553C139.152 492.976 138.955 493.339 138.653 493.641L135.663 496.269C135.783 497.175 135.844 497.946 135.844 498.582C135.844 499.215 135.783 499.984 135.663 500.891L138.653 503.519C138.955 503.821 139.152 504.183 139.244 504.606C139.333 505.029 139.257 505.422 139.016 505.784L136.841 509.5C136.599 509.862 136.297 510.119 135.934 510.269C135.572 510.421 135.179 510.436 134.756 510.316L130.859 509.047C130.255 509.53 129.637 509.953 129.003 510.316C128.368 510.678 127.687 511.01 126.962 511.312L126.147 515.3C126.026 515.723 125.83 516.07 125.56 516.34C125.287 516.613 124.908 516.75 124.425 516.75H120.075ZM122.25 505.875C124.244 505.875 125.951 505.166 127.372 503.747C128.791 502.326 129.5 500.619 129.5 498.625C129.5 496.631 128.791 494.925 127.372 493.507C125.951 492.086 124.244 491.375 122.25 491.375C120.256 491.375 118.549 492.086 117.128 493.507C115.709 494.925 115 496.631 115 498.625C115 500.619 115.709 502.326 117.128 503.747C118.549 505.166 120.256 505.875 122.25 505.875ZM96.875 484.125C95.8479 484.125 94.9876 483.777 94.294 483.081C93.598 482.387 93.25 481.527 93.25 480.5C93.25 479.473 93.598 478.611 94.294 477.915C94.9876 477.222 95.8479 476.875 96.875 476.875C97.9021 476.875 98.7636 477.222 99.4596 477.915C100.153 478.611 100.5 479.473 100.5 480.5C100.5 481.527 100.153 482.387 99.4596 483.081C98.7636 483.777 97.9021 484.125 96.875 484.125ZM82.375 505.875V455.125V505.875Z" fill="black"/>
</g>
<path d="M218.652 486V475.091H222.743C223.581 475.091 224.284 475.237 224.852 475.528C225.424 475.819 225.855 476.227 226.146 476.753C226.441 477.275 226.588 477.884 226.588 478.58C226.588 479.279 226.439 479.887 226.141 480.402C225.846 480.913 225.411 481.309 224.836 481.589C224.261 481.866 223.554 482.005 222.716 482.005H219.802V480.364H222.45C222.94 480.364 223.341 480.297 223.653 480.162C223.966 480.023 224.197 479.823 224.346 479.56C224.499 479.294 224.575 478.967 224.575 478.58C224.575 478.193 224.499 477.863 224.346 477.589C224.193 477.312 223.961 477.103 223.648 476.961C223.336 476.815 222.933 476.742 222.439 476.742H220.628V486H218.652ZM224.287 481.057L226.988 486H224.783L222.13 481.057H224.287ZM231.427 486.165C230.908 486.165 230.441 486.073 230.026 485.888C229.614 485.7 229.287 485.423 229.046 485.057C228.808 484.691 228.689 484.24 228.689 483.704C228.689 483.243 228.774 482.861 228.944 482.559C229.115 482.257 229.348 482.016 229.642 481.835C229.937 481.653 230.269 481.517 230.638 481.424C231.011 481.328 231.397 481.259 231.794 481.217C232.274 481.167 232.663 481.123 232.961 481.083C233.259 481.041 233.476 480.977 233.611 480.892C233.749 480.803 233.818 480.666 233.818 480.482V480.45C233.818 480.048 233.699 479.738 233.462 479.517C233.224 479.297 232.881 479.187 232.433 479.187C231.961 479.187 231.587 479.29 231.31 479.496C231.036 479.702 230.851 479.945 230.756 480.226L228.955 479.97C229.097 479.473 229.332 479.058 229.658 478.724C229.985 478.386 230.384 478.134 230.857 477.967C231.329 477.797 231.851 477.712 232.423 477.712C232.817 477.712 233.209 477.758 233.6 477.85C233.991 477.942 234.348 478.095 234.671 478.308C234.994 478.518 235.253 478.804 235.448 479.166C235.647 479.528 235.747 479.981 235.747 480.524V486H233.893V484.876H233.829C233.712 485.103 233.547 485.316 233.334 485.515C233.124 485.711 232.86 485.869 232.54 485.989C232.224 486.107 231.853 486.165 231.427 486.165ZM231.927 484.748C232.314 484.748 232.65 484.672 232.934 484.519C233.218 484.363 233.437 484.157 233.589 483.901C233.746 483.646 233.824 483.367 233.824 483.065V482.101C233.763 482.151 233.66 482.197 233.515 482.239C233.373 482.282 233.213 482.319 233.035 482.351C232.858 482.383 232.682 482.412 232.508 482.436C232.334 482.461 232.183 482.483 232.055 482.5C231.768 482.539 231.51 482.603 231.283 482.692C231.056 482.781 230.876 482.905 230.745 483.065C230.614 483.221 230.548 483.424 230.548 483.672C230.548 484.027 230.677 484.295 230.937 484.477C231.196 484.658 231.526 484.748 231.927 484.748ZM230.915 476.614C230.635 476.614 230.392 476.515 230.186 476.316C229.983 476.117 229.882 475.883 229.882 475.613C229.882 475.329 229.983 475.091 230.186 474.899C230.392 474.704 230.635 474.606 230.915 474.606C231.203 474.606 231.444 474.704 231.64 474.899C231.839 475.091 231.938 475.329 231.938 475.613C231.938 475.883 231.839 476.117 231.64 476.316C231.444 476.515 231.203 476.614 230.915 476.614ZM234.111 476.614C233.831 476.614 233.588 476.515 233.382 476.316C233.179 476.117 233.078 475.883 233.078 475.613C233.078 475.329 233.179 475.091 233.382 474.899C233.588 474.704 233.831 474.606 234.111 474.606C234.399 474.606 234.64 474.704 234.836 474.899C235.035 475.091 235.134 475.329 235.134 475.613C235.134 475.883 235.035 476.117 234.836 476.316C234.64 476.515 234.399 476.614 234.111 476.614ZM243.65 482.559V477.818H245.579V486H243.709V484.546H243.624C243.439 485.004 243.136 485.379 242.713 485.67C242.294 485.961 241.777 486.107 241.163 486.107C240.627 486.107 240.153 485.988 239.741 485.75C239.332 485.508 239.013 485.158 238.782 484.7C238.551 484.239 238.436 483.681 238.436 483.028V477.818H240.364V482.729C240.364 483.248 240.506 483.66 240.79 483.965C241.074 484.271 241.447 484.423 241.909 484.423C242.193 484.423 242.468 484.354 242.734 484.216C243.001 484.077 243.219 483.871 243.389 483.598C243.563 483.321 243.65 482.974 243.65 482.559ZM248.312 486V477.818H250.155V479.208H250.25C250.421 478.74 250.703 478.374 251.097 478.111C251.492 477.845 251.962 477.712 252.509 477.712C253.063 477.712 253.53 477.847 253.91 478.116C254.293 478.383 254.563 478.747 254.72 479.208H254.805C254.986 478.754 255.291 478.392 255.721 478.122C256.154 477.848 256.667 477.712 257.26 477.712C258.013 477.712 258.628 477.95 259.103 478.425C259.579 478.901 259.817 479.596 259.817 480.508V486H257.884V480.806C257.884 480.299 257.749 479.928 257.479 479.693C257.209 479.455 256.879 479.336 256.488 479.336C256.023 479.336 255.659 479.482 255.396 479.773C255.137 480.061 255.007 480.435 255.007 480.897V486H253.116V480.727C253.116 480.304 252.988 479.967 252.733 479.714C252.481 479.462 252.15 479.336 251.742 479.336C251.465 479.336 251.213 479.407 250.986 479.549C250.758 479.688 250.577 479.885 250.442 480.141C250.307 480.393 250.24 480.687 250.24 481.025V486H248.312ZM266.146 486.16C265.325 486.16 264.617 485.989 264.02 485.648C263.427 485.304 262.971 484.817 262.651 484.189C262.332 483.557 262.172 482.813 262.172 481.957C262.172 481.115 262.332 480.377 262.651 479.741C262.974 479.102 263.425 478.605 264.004 478.25C264.583 477.891 265.263 477.712 266.044 477.712C266.549 477.712 267.025 477.793 267.472 477.957C267.923 478.116 268.321 478.365 268.665 478.702C269.013 479.04 269.287 479.469 269.485 479.991C269.684 480.51 269.784 481.128 269.784 481.845V482.436H263.077V481.137H267.935C267.932 480.767 267.852 480.439 267.696 480.151C267.539 479.86 267.321 479.631 267.041 479.464C266.764 479.297 266.44 479.214 266.071 479.214C265.677 479.214 265.331 479.31 265.032 479.501C264.734 479.69 264.501 479.938 264.335 480.247C264.171 480.553 264.088 480.888 264.084 481.254V482.388C264.084 482.864 264.171 483.273 264.345 483.614C264.519 483.951 264.762 484.21 265.075 484.391C265.387 484.569 265.753 484.658 266.172 484.658C266.453 484.658 266.707 484.619 266.934 484.54C267.161 484.459 267.358 484.34 267.525 484.184C267.692 484.027 267.818 483.834 267.903 483.603L269.704 483.805C269.59 484.281 269.374 484.697 269.054 485.052C268.738 485.403 268.333 485.677 267.84 485.872C267.346 486.064 266.781 486.16 266.146 486.16Z" fill="#4D4D4D"/>
<rect x="47.5" y="427.5" width="295" height="106" rx="5.5" stroke="black"/>
<rect x="47.5" y="544.5" width="295" height="106" rx="5.5" fill="white"/>
<g clip-path="url(#clip4_33_789)">
<path d="M134.43 576.765L134.213 576.547C133.879 576.213 133.481 575.951 133.042 575.776C132.604 575.601 132.134 575.518 131.662 575.532C131.19 575.545 130.726 575.655 130.298 575.855C129.87 576.055 129.487 576.34 129.174 576.693L121.271 585.574C113.84 577.2 103.509 572.125 91.8363 572.125C82.7738 572.125 74.3275 575.279 67.3675 580.463C66.9675 580.761 66.6361 581.143 66.3957 581.58C66.1552 582.018 66.0113 582.502 65.9735 583C65.9357 583.498 66.005 583.998 66.1767 584.467C66.3483 584.936 66.6184 585.363 66.9688 585.719L67.1863 585.936C68.3825 587.133 70.3038 587.35 71.645 586.335C77.4088 581.985 84.3325 579.375 91.8363 579.375C101.769 579.375 110.288 583.943 116.378 591.12L105.938 602.865L94.0113 590.939C93.6759 590.603 93.2776 590.336 92.839 590.154C92.4005 589.972 91.9304 589.879 91.4556 589.879C90.9809 589.879 90.5108 589.972 90.0723 590.154C89.6337 590.336 89.2354 590.603 88.9 590.939L66.715 613.16C66.0708 613.811 65.7095 614.691 65.7095 615.607C65.7095 616.523 66.0708 617.402 66.715 618.054L67.2588 618.598C68.6 619.939 70.8113 619.939 72.1525 618.598L91.4375 599.276L103.219 611.058C104.705 612.544 107.098 612.471 108.475 610.913L120.619 597.282C122.866 601.343 124.534 605.946 125.404 610.804C125.694 612.508 127.108 613.776 128.848 613.776H129.174C131.349 613.776 132.98 611.783 132.581 609.644C131.489 603.216 129.162 597.061 125.73 591.519L134.575 581.55C135.808 580.173 135.735 578.07 134.43 576.765Z" fill="black"/>
</g>
<path d="M208.385 595.09C208.335 594.625 208.126 594.262 207.756 594.003C207.391 593.744 206.915 593.614 206.329 593.614C205.917 593.614 205.564 593.676 205.269 593.801C204.974 593.925 204.749 594.094 204.592 594.307C204.436 594.52 204.356 594.763 204.353 595.037C204.353 595.264 204.404 595.461 204.507 595.628C204.614 595.795 204.758 595.937 204.939 596.054C205.12 596.168 205.32 596.263 205.541 596.342C205.761 596.42 205.983 596.485 206.206 596.539L207.229 596.794C207.641 596.89 208.037 597.02 208.417 597.183C208.8 597.347 209.143 597.553 209.445 597.801C209.75 598.05 209.992 598.35 210.169 598.701C210.347 599.053 210.436 599.465 210.436 599.937C210.436 600.576 210.272 601.139 209.946 601.626C209.619 602.109 209.147 602.487 208.529 602.76C207.914 603.03 207.17 603.165 206.297 603.165C205.448 603.165 204.711 603.034 204.086 602.771C203.465 602.508 202.978 602.125 202.627 601.62C202.279 601.116 202.091 600.502 202.062 599.777H204.006C204.035 600.157 204.152 600.473 204.358 600.725C204.564 600.978 204.832 601.166 205.162 601.29C205.496 601.414 205.869 601.477 206.281 601.477C206.711 601.477 207.087 601.413 207.41 601.285C207.737 601.153 207.993 600.972 208.177 600.741C208.362 600.507 208.456 600.234 208.46 599.921C208.456 599.637 208.373 599.403 208.209 599.218C208.046 599.03 207.817 598.874 207.522 598.749C207.231 598.621 206.89 598.508 206.499 598.408L205.258 598.089C204.36 597.858 203.65 597.508 203.128 597.039C202.609 596.567 202.35 595.94 202.35 595.159C202.35 594.516 202.524 593.953 202.872 593.471C203.223 592.988 203.701 592.613 204.305 592.347C204.908 592.077 205.592 591.942 206.356 591.942C207.13 591.942 207.808 592.077 208.39 592.347C208.976 592.613 209.436 592.984 209.77 593.46C210.104 593.932 210.276 594.475 210.287 595.09H208.385ZM216.948 594.818V596.31H212.244V594.818H216.948ZM213.406 592.858H215.334V600.539C215.334 600.798 215.373 600.997 215.451 601.136C215.533 601.271 215.639 601.363 215.771 601.413C215.902 601.462 216.048 601.487 216.208 601.487C216.328 601.487 216.438 601.478 216.538 601.461C216.641 601.443 216.719 601.427 216.772 601.413L217.097 602.92C216.994 602.956 216.847 602.995 216.655 603.037C216.467 603.08 216.236 603.105 215.962 603.112C215.48 603.126 215.045 603.053 214.657 602.893C214.27 602.73 213.963 602.478 213.736 602.137C213.512 601.796 213.402 601.37 213.406 600.859V592.858ZM221.665 603.165C221.147 603.165 220.68 603.073 220.264 602.888C219.852 602.7 219.525 602.423 219.284 602.057C219.046 601.691 218.927 601.24 218.927 600.704C218.927 600.243 219.012 599.861 219.183 599.559C219.353 599.257 219.586 599.016 219.881 598.835C220.175 598.653 220.507 598.517 220.877 598.424C221.25 598.328 221.635 598.259 222.033 598.217C222.512 598.167 222.901 598.123 223.199 598.083C223.497 598.041 223.714 597.977 223.849 597.892C223.987 597.803 224.057 597.666 224.057 597.482V597.45C224.057 597.048 223.938 596.738 223.7 596.517C223.462 596.297 223.119 596.187 222.672 596.187C222.199 596.187 221.825 596.29 221.548 596.496C221.274 596.702 221.09 596.945 220.994 597.226L219.193 596.97C219.335 596.473 219.57 596.058 219.897 595.724C220.223 595.386 220.623 595.134 221.095 594.967C221.567 594.797 222.089 594.712 222.661 594.712C223.055 594.712 223.448 594.758 223.838 594.85C224.229 594.942 224.586 595.095 224.909 595.308C225.232 595.518 225.491 595.804 225.687 596.166C225.886 596.528 225.985 596.981 225.985 597.524V603H224.131V601.876H224.067C223.95 602.103 223.785 602.316 223.572 602.515C223.362 602.711 223.098 602.869 222.778 602.989C222.462 603.107 222.091 603.165 221.665 603.165ZM222.166 601.748C222.553 601.748 222.888 601.672 223.172 601.519C223.457 601.363 223.675 601.157 223.828 600.901C223.984 600.646 224.062 600.367 224.062 600.065V599.101C224.002 599.151 223.899 599.197 223.753 599.239C223.611 599.282 223.451 599.319 223.274 599.351C223.096 599.383 222.92 599.412 222.746 599.436C222.572 599.461 222.421 599.483 222.294 599.5C222.006 599.539 221.748 599.603 221.521 599.692C221.294 599.781 221.115 599.905 220.983 600.065C220.852 600.221 220.786 600.424 220.786 600.672C220.786 601.027 220.916 601.295 221.175 601.477C221.434 601.658 221.764 601.748 222.166 601.748ZM232.759 594.818V596.31H228.056V594.818H232.759ZM229.217 592.858H231.145V600.539C231.145 600.798 231.185 600.997 231.263 601.136C231.344 601.271 231.451 601.363 231.582 601.413C231.714 601.462 231.859 601.487 232.019 601.487C232.14 601.487 232.25 601.478 232.349 601.461C232.452 601.443 232.53 601.427 232.584 601.413L232.909 602.92C232.806 602.956 232.658 602.995 232.466 603.037C232.278 603.08 232.047 603.105 231.774 603.112C231.291 603.126 230.856 603.053 230.469 602.893C230.082 602.73 229.775 602.478 229.547 602.137C229.324 601.796 229.214 601.37 229.217 600.859V592.858ZM235.122 603V594.818H237.05V603H235.122ZM236.092 593.657C235.786 593.657 235.523 593.556 235.303 593.353C235.083 593.147 234.973 592.901 234.973 592.613C234.973 592.322 235.083 592.075 235.303 591.873C235.523 591.667 235.786 591.564 236.092 591.564C236.401 591.564 236.663 591.667 236.88 591.873C237.1 592.075 237.21 592.322 237.21 592.613C237.21 592.901 237.1 593.147 236.88 593.353C236.663 593.556 236.401 593.657 236.092 593.657ZM246.25 596.981L244.492 597.173C244.442 596.995 244.355 596.828 244.231 596.672C244.11 596.516 243.947 596.39 243.741 596.294C243.535 596.198 243.283 596.15 242.985 596.15C242.583 596.15 242.246 596.237 241.973 596.411C241.703 596.585 241.569 596.81 241.573 597.087C241.569 597.325 241.656 597.519 241.834 597.668C242.015 597.817 242.313 597.94 242.729 598.036L244.125 598.334C244.899 598.501 245.474 598.765 245.85 599.127C246.23 599.49 246.422 599.964 246.426 600.55C246.422 601.065 246.271 601.519 245.973 601.913C245.678 602.304 245.268 602.609 244.742 602.83C244.217 603.05 243.613 603.16 242.931 603.16C241.93 603.16 241.124 602.95 240.513 602.531C239.902 602.109 239.538 601.521 239.421 600.768L241.301 600.587C241.387 600.956 241.568 601.235 241.845 601.423C242.122 601.612 242.482 601.706 242.926 601.706C243.384 601.706 243.752 601.612 244.029 601.423C244.309 601.235 244.449 601.002 244.449 600.725C244.449 600.491 244.359 600.298 244.178 600.145C244 599.992 243.723 599.875 243.347 599.793L241.951 599.5C241.166 599.337 240.586 599.062 240.209 598.675C239.833 598.284 239.647 597.79 239.65 597.194C239.647 596.69 239.783 596.253 240.06 595.884C240.341 595.511 240.73 595.223 241.227 595.021C241.727 594.815 242.305 594.712 242.958 594.712C243.917 594.712 244.671 594.916 245.222 595.324C245.776 595.733 246.118 596.285 246.25 596.981ZM252.851 594.818V596.31H248.148V594.818H252.851ZM249.309 592.858H251.237V600.539C251.237 600.798 251.276 600.997 251.354 601.136C251.436 601.271 251.543 601.363 251.674 601.413C251.805 601.462 251.951 601.487 252.111 601.487C252.232 601.487 252.342 601.478 252.441 601.461C252.544 601.443 252.622 601.427 252.675 601.413L253 602.92C252.897 602.956 252.75 602.995 252.558 603.037C252.37 603.08 252.139 603.105 251.866 603.112C251.383 603.126 250.948 603.053 250.561 602.893C250.174 602.73 249.867 602.478 249.639 602.137C249.416 601.796 249.305 601.37 249.309 600.859V592.858ZM255.214 603V594.818H257.142V603H255.214ZM256.183 593.657C255.878 593.657 255.615 593.556 255.395 593.353C255.175 593.147 255.065 592.901 255.065 592.613C255.065 592.322 255.175 592.075 255.395 591.873C255.615 591.667 255.878 591.564 256.183 591.564C256.492 591.564 256.755 591.667 256.972 591.873C257.192 592.075 257.302 592.322 257.302 592.613C257.302 592.901 257.192 593.147 256.972 593.353C256.755 593.556 256.492 593.657 256.183 593.657ZM261.633 600.433L261.628 598.105H261.936L264.877 594.818H267.13L263.513 598.845H263.114L261.633 600.433ZM259.875 603V592.091H261.803V603H259.875ZM265.01 603L262.347 599.277L263.646 597.918L267.316 603H265.01ZM272.45 603.16C271.63 603.16 270.922 602.989 270.325 602.648C269.732 602.304 269.276 601.817 268.956 601.189C268.636 600.557 268.477 599.813 268.477 598.957C268.477 598.115 268.636 597.377 268.956 596.741C269.279 596.102 269.73 595.605 270.309 595.25C270.888 594.891 271.568 594.712 272.349 594.712C272.853 594.712 273.329 594.793 273.777 594.957C274.228 595.116 274.625 595.365 274.97 595.702C275.318 596.04 275.591 596.469 275.79 596.991C275.989 597.51 276.088 598.128 276.088 598.845V599.436H269.382V598.137H274.24C274.237 597.767 274.157 597.439 274 597.151C273.844 596.86 273.626 596.631 273.345 596.464C273.068 596.297 272.745 596.214 272.376 596.214C271.982 596.214 271.635 596.31 271.337 596.501C271.039 596.69 270.806 596.938 270.639 597.247C270.476 597.553 270.392 597.888 270.389 598.254V599.388C270.389 599.864 270.476 600.273 270.65 600.614C270.824 600.951 271.067 601.21 271.38 601.391C271.692 601.569 272.058 601.658 272.477 601.658C272.758 601.658 273.011 601.619 273.239 601.54C273.466 601.459 273.663 601.34 273.83 601.184C273.997 601.027 274.123 600.834 274.208 600.603L276.009 600.805C275.895 601.281 275.678 601.697 275.359 602.052C275.043 602.403 274.638 602.677 274.144 602.872C273.651 603.064 273.086 603.16 272.45 603.16ZM280.398 598.206V603H278.47V594.818H280.313V596.208H280.409C280.597 595.75 280.897 595.386 281.309 595.116C281.724 594.847 282.238 594.712 282.848 594.712C283.413 594.712 283.905 594.832 284.324 595.074C284.746 595.315 285.073 595.665 285.304 596.123C285.538 596.581 285.654 597.137 285.65 597.79V603H283.722V598.089C283.722 597.542 283.58 597.114 283.296 596.805C283.015 596.496 282.626 596.342 282.129 596.342C281.792 596.342 281.492 596.416 281.229 596.565C280.97 596.711 280.766 596.922 280.616 597.199C280.471 597.476 280.398 597.812 280.398 598.206Z" fill="#4D4D4D"/>
<rect x="47.5" y="544.5" width="295" height="106" rx="5.5" stroke="black"/>
<rect x="47.5" y="661.5" width="295" height="106" rx="5.5" fill="white"/>
<g clip-path="url(#clip5_33_789)">
<path d="M127.434 718.052C127.579 716.892 127.687 715.732 127.687 714.5C127.687 713.267 127.579 712.107 127.434 710.947L135.082 704.966C135.771 704.422 135.952 703.444 135.517 702.646L128.267 690.104C127.941 689.524 127.325 689.197 126.672 689.197C126.455 689.197 126.237 689.234 126.056 689.306L117.03 692.931C115.145 691.481 113.115 690.285 110.904 689.379L109.526 679.772C109.417 678.902 108.656 678.25 107.75 678.25H93.25C92.3437 678.25 91.5825 678.902 91.4737 679.772L90.0962 689.379C87.885 690.285 85.855 691.517 83.97 692.931L74.9437 689.306C74.7262 689.234 74.5087 689.197 74.2912 689.197C73.675 689.197 73.0587 689.524 72.7325 690.104L65.4825 702.646C65.0112 703.444 65.2287 704.422 65.9175 704.966L73.5662 710.947C73.4212 712.107 73.3125 713.304 73.3125 714.5C73.3125 715.696 73.4212 716.892 73.5662 718.052L65.9175 724.034C65.2287 724.577 65.0475 725.556 65.4825 726.354L72.7325 738.896C73.0587 739.476 73.675 739.802 74.3275 739.802C74.545 739.802 74.7625 739.766 74.9437 739.694L83.97 736.069C85.855 737.519 87.885 738.715 90.0962 739.621L91.4737 749.227C91.5825 750.097 92.3437 750.75 93.25 750.75H107.75C108.656 750.75 109.417 750.097 109.526 749.227L110.904 739.621C113.115 738.715 115.145 737.482 117.03 736.069L126.056 739.694C126.274 739.766 126.491 739.802 126.709 739.802C127.325 739.802 127.941 739.476 128.267 738.896L135.517 726.354C135.952 725.556 135.771 724.577 135.082 724.034L127.434 718.052ZM120.256 711.854C120.401 712.977 120.437 713.739 120.437 714.5C120.437 715.261 120.365 716.059 120.256 717.146L119.749 721.242L122.975 723.78L126.89 726.825L124.352 731.211L119.749 729.362L115.979 727.84L112.716 730.305C111.157 731.465 109.671 732.335 108.185 732.951L104.342 734.51L103.762 738.606L103.037 743.5H97.9625L97.2737 738.606L96.6937 734.51L92.8512 732.951C91.2925 732.299 89.8425 731.465 88.3925 730.377L85.0937 727.84L81.2512 729.399L76.6475 731.247L74.11 726.861L78.025 723.816L81.2512 721.279L80.7437 717.182C80.635 716.059 80.5625 715.225 80.5625 714.5C80.5625 713.775 80.635 712.941 80.7437 711.854L81.2512 707.757L78.025 705.22L74.11 702.175L76.6475 697.789L81.2512 699.637L85.0212 701.16L88.2837 698.695C89.8425 697.535 91.3287 696.665 92.815 696.049L96.6575 694.49L97.2375 690.394L97.9625 685.5H103.001L103.69 690.394L104.27 694.49L108.112 696.049C109.671 696.701 111.121 697.535 112.571 698.622L115.87 701.16L119.712 699.601L124.316 697.752L126.854 702.139L122.975 705.22L119.749 707.757L120.256 711.854ZM100.5 700C92.4887 700 86 706.489 86 714.5C86 722.511 92.4887 729 100.5 729C108.511 729 115 722.511 115 714.5C115 706.489 108.511 700 100.5 700ZM100.5 721.75C96.5125 721.75 93.25 718.487 93.25 714.5C93.25 710.512 96.5125 707.25 100.5 707.25C104.487 707.25 107.75 710.512 107.75 714.5C107.75 718.487 104.487 721.75 100.5 721.75Z" fill="black"/>
</g>
<path d="M197.242 720V709.091H201.332C202.17 709.091 202.874 709.247 203.442 709.56C204.014 709.872 204.445 710.302 204.736 710.849C205.031 711.392 205.178 712.01 205.178 712.702C205.178 713.402 205.031 714.023 204.736 714.567C204.441 715.11 204.006 715.538 203.431 715.85C202.856 716.159 202.147 716.314 201.306 716.314H198.595V714.689H201.039C201.53 714.689 201.931 714.604 202.243 714.434C202.556 714.263 202.787 714.029 202.936 713.73C203.088 713.432 203.165 713.089 203.165 712.702C203.165 712.315 203.088 711.974 202.936 711.68C202.787 711.385 202.554 711.156 202.238 710.993C201.925 710.826 201.522 710.742 201.029 710.742H199.218V720H197.242ZM207.56 720V711.818H209.429V713.182H209.515C209.664 712.71 209.919 712.346 210.282 712.09C210.647 711.831 211.065 711.701 211.533 711.701C211.64 711.701 211.759 711.706 211.89 711.717C212.025 711.724 212.137 711.737 212.226 711.754V713.528C212.144 713.5 212.015 713.475 211.837 713.453C211.663 713.429 211.494 713.416 211.331 713.416C210.979 713.416 210.663 713.493 210.383 713.645C210.106 713.794 209.887 714.002 209.728 714.268C209.568 714.535 209.488 714.842 209.488 715.19V720H207.56ZM216.465 720.165C215.946 720.165 215.479 720.073 215.064 719.888C214.652 719.7 214.325 719.423 214.084 719.057C213.846 718.691 213.727 718.24 213.727 717.704C213.727 717.243 213.812 716.861 213.983 716.559C214.153 716.257 214.386 716.016 214.68 715.835C214.975 715.653 215.307 715.517 215.676 715.424C216.049 715.328 216.435 715.259 216.832 715.217C217.312 715.167 217.701 715.123 217.999 715.083C218.297 715.041 218.514 714.977 218.649 714.892C218.787 714.803 218.856 714.666 218.856 714.482V714.45C218.856 714.048 218.738 713.738 218.5 713.517C218.262 713.297 217.919 713.187 217.472 713.187C216.999 713.187 216.625 713.29 216.348 713.496C216.074 713.702 215.89 713.945 215.794 714.226L213.993 713.97C214.135 713.473 214.37 713.058 214.696 712.724C215.023 712.386 215.423 712.134 215.895 711.967C216.367 711.797 216.889 711.712 217.461 711.712C217.855 711.712 218.247 711.758 218.638 711.85C219.029 711.942 219.386 712.095 219.709 712.308C220.032 712.518 220.291 712.804 220.486 713.166C220.685 713.528 220.785 713.981 220.785 714.524V720H218.931V718.876H218.867C218.75 719.103 218.585 719.316 218.372 719.515C218.162 719.711 217.898 719.869 217.578 719.989C217.262 720.107 216.891 720.165 216.465 720.165ZM216.966 718.748C217.353 718.748 217.688 718.672 217.972 718.519C218.256 718.363 218.475 718.157 218.627 717.901C218.784 717.646 218.862 717.367 218.862 717.065V716.101C218.801 716.151 218.698 716.197 218.553 716.239C218.411 716.282 218.251 716.319 218.073 716.351C217.896 716.383 217.72 716.412 217.546 716.436C217.372 716.461 217.221 716.483 217.093 716.5C216.806 716.539 216.548 716.603 216.321 716.692C216.094 716.781 215.914 716.905 215.783 717.065C215.652 717.221 215.586 717.424 215.586 717.672C215.586 718.027 215.716 718.295 215.975 718.477C216.234 718.658 216.564 718.748 216.966 718.748ZM215.953 710.614C215.673 710.614 215.43 710.515 215.224 710.316C215.021 710.117 214.92 709.883 214.92 709.613C214.92 709.329 215.021 709.091 215.224 708.899C215.43 708.704 215.673 708.606 215.953 708.606C216.241 708.606 216.483 708.704 216.678 708.899C216.877 709.091 216.976 709.329 216.976 709.613C216.976 709.883 216.877 710.117 216.678 710.316C216.483 710.515 216.241 710.614 215.953 710.614ZM219.149 710.614C218.869 710.614 218.626 710.515 218.42 710.316C218.217 710.117 218.116 709.883 218.116 709.613C218.116 709.329 218.217 709.091 218.42 708.899C218.626 708.704 218.869 708.606 219.149 708.606C219.437 708.606 219.679 708.704 219.874 708.899C220.073 709.091 220.172 709.329 220.172 709.613C220.172 709.883 220.073 710.117 219.874 710.316C219.679 710.515 219.437 710.614 219.149 710.614ZM227.618 711.818V713.31H222.781V711.818H227.618ZM223.99 720V711.046C223.99 710.495 224.104 710.037 224.331 709.672C224.562 709.306 224.871 709.032 225.258 708.851C225.645 708.67 226.075 708.58 226.547 708.58C226.881 708.58 227.178 708.606 227.437 708.659C227.696 708.713 227.888 708.761 228.012 708.803L227.629 710.295C227.547 710.27 227.444 710.245 227.32 710.22C227.195 710.192 227.057 710.178 226.904 710.178C226.545 710.178 226.292 710.265 226.142 710.439C225.997 710.609 225.924 710.854 225.924 711.174V720H223.99ZM233.193 720.16C232.372 720.16 231.664 719.989 231.067 719.648C230.474 719.304 230.018 718.817 229.698 718.189C229.379 717.557 229.219 716.813 229.219 715.957C229.219 715.115 229.379 714.377 229.698 713.741C230.021 713.102 230.472 712.605 231.051 712.25C231.63 711.891 232.31 711.712 233.091 711.712C233.596 711.712 234.071 711.793 234.519 711.957C234.97 712.116 235.368 712.365 235.712 712.702C236.06 713.04 236.333 713.469 236.532 713.991C236.731 714.51 236.831 715.128 236.831 715.845V716.436H230.124V715.137H234.982C234.979 714.767 234.899 714.439 234.743 714.151C234.586 713.86 234.368 713.631 234.087 713.464C233.81 713.297 233.487 713.214 233.118 713.214C232.724 713.214 232.378 713.31 232.079 713.501C231.781 713.69 231.548 713.938 231.381 714.247C231.218 714.553 231.135 714.888 231.131 715.254V716.388C231.131 716.864 231.218 717.273 231.392 717.614C231.566 717.951 231.809 718.21 232.122 718.391C232.434 718.569 232.8 718.658 233.219 718.658C233.5 718.658 233.754 718.619 233.981 718.54C234.208 718.459 234.405 718.34 234.572 718.184C234.739 718.027 234.865 717.834 234.95 717.603L236.751 717.805C236.637 718.281 236.42 718.697 236.101 719.052C235.785 719.403 235.38 719.677 234.886 719.872C234.393 720.064 233.828 720.16 233.193 720.16ZM239.212 720V711.818H241.082V713.182H241.167C241.316 712.71 241.572 712.346 241.934 712.09C242.3 711.831 242.717 711.701 243.186 711.701C243.292 711.701 243.411 711.706 243.543 711.717C243.678 711.724 243.789 711.737 243.878 711.754V713.528C243.796 713.5 243.667 713.475 243.489 713.453C243.315 713.429 243.147 713.416 242.983 713.416C242.632 713.416 242.316 713.493 242.035 713.645C241.758 713.794 241.54 714.002 241.38 714.268C241.22 714.535 241.14 714.842 241.14 715.19V720H239.212ZM249.194 720.16C248.374 720.16 247.666 719.989 247.069 719.648C246.476 719.304 246.02 718.817 245.7 718.189C245.381 717.557 245.221 716.813 245.221 715.957C245.221 715.115 245.381 714.377 245.7 713.741C246.023 713.102 246.474 712.605 247.053 712.25C247.632 711.891 248.312 711.712 249.093 711.712C249.598 711.712 250.073 711.793 250.521 711.957C250.972 712.116 251.37 712.365 251.714 712.702C252.062 713.04 252.335 713.469 252.534 713.991C252.733 714.51 252.833 715.128 252.833 715.845V716.436H246.126V715.137H250.984C250.981 714.767 250.901 714.439 250.745 714.151C250.588 713.86 250.37 713.631 250.089 713.464C249.812 713.297 249.489 713.214 249.12 713.214C248.726 713.214 248.379 713.31 248.081 713.501C247.783 713.69 247.55 713.938 247.383 714.247C247.22 714.553 247.137 714.888 247.133 715.254V716.388C247.133 716.864 247.22 717.273 247.394 717.614C247.568 717.951 247.811 718.21 248.124 718.391C248.436 718.569 248.802 718.658 249.221 718.658C249.502 718.658 249.756 718.619 249.983 718.54C250.21 718.459 250.407 718.34 250.574 718.184C250.741 718.027 250.867 717.834 250.952 717.603L252.753 717.805C252.639 718.281 252.422 718.697 252.103 719.052C251.787 719.403 251.382 719.677 250.888 719.872C250.395 720.064 249.83 720.16 249.194 720.16ZM257.142 715.206V720H255.214V711.818H257.057V713.208H257.153C257.341 712.75 257.641 712.386 258.053 712.116C258.469 711.847 258.982 711.712 259.592 711.712C260.157 711.712 260.649 711.832 261.068 712.074C261.491 712.315 261.817 712.665 262.048 713.123C262.282 713.581 262.398 714.137 262.394 714.79V720H260.466V715.089C260.466 714.542 260.324 714.114 260.04 713.805C259.759 713.496 259.371 713.342 258.873 713.342C258.536 713.342 258.236 713.416 257.973 713.565C257.714 713.711 257.51 713.922 257.361 714.199C257.215 714.476 257.142 714.812 257.142 715.206ZM264.998 720V718.775L269.217 713.485V713.416H265.136V711.818H271.576V713.134L267.56 718.333V718.402H271.715V720H264.998ZM277.665 720.16C276.845 720.16 276.136 719.989 275.54 719.648C274.947 719.304 274.49 718.817 274.171 718.189C273.851 717.557 273.691 716.813 273.691 715.957C273.691 715.115 273.851 714.377 274.171 713.741C274.494 713.102 274.945 712.605 275.524 712.25C276.103 711.891 276.783 711.712 277.564 711.712C278.068 711.712 278.544 711.793 278.992 711.957C279.443 712.116 279.84 712.365 280.185 712.702C280.533 713.04 280.806 713.469 281.005 713.991C281.204 714.51 281.303 715.128 281.303 715.845V716.436H274.597V715.137H279.455C279.451 714.767 279.371 714.439 279.215 714.151C279.059 713.86 278.841 713.631 278.56 713.464C278.283 713.297 277.96 713.214 277.591 713.214C277.196 713.214 276.85 713.31 276.552 713.501C276.254 713.69 276.021 713.938 275.854 714.247C275.691 714.553 275.607 714.888 275.604 715.254V716.388C275.604 716.864 275.691 717.273 275.865 717.614C276.039 717.951 276.282 718.21 276.595 718.391C276.907 718.569 277.273 718.658 277.692 718.658C277.972 718.658 278.226 718.619 278.454 718.54C278.681 718.459 278.878 718.34 279.045 718.184C279.212 718.027 279.338 717.834 279.423 717.603L281.223 717.805C281.11 718.281 280.893 718.697 280.574 719.052C280.258 719.403 279.853 719.677 279.359 719.872C278.865 720.064 278.301 720.16 277.665 720.16ZM285.613 715.206V720H283.685V711.818H285.528V713.208H285.624C285.812 712.75 286.112 712.386 286.524 712.116C286.939 711.847 287.452 711.712 288.063 711.712C288.628 711.712 289.12 711.832 289.539 712.074C289.961 712.315 290.288 712.665 290.519 713.123C290.753 713.581 290.869 714.137 290.865 714.79V720H288.937V715.089C288.937 714.542 288.795 714.114 288.511 713.805C288.23 713.496 287.841 713.342 287.344 713.342C287.007 713.342 286.707 713.416 286.444 713.565C286.185 713.711 285.98 713.922 285.831 714.199C285.686 714.476 285.613 714.812 285.613 715.206Z" fill="#4D4D4D"/>
<rect x="47.5" y="661.5" width="295" height="106" rx="5.5" stroke="black"/>
<path d="M0 0H390V49C390 54.5228 385.523 59 380 59H10C4.47715 59 0 54.5228 0 49V0Z" fill="url(#paint1_linear_33_789)"/>
<path d="M30.6761 30L28.2855 21.2727H29.0952L31.0724 28.777H31.1406L33.1179 21.2727H34.0384L36.0156 28.777H36.0838L38.0611 21.2727H38.875L36.4844 30H35.6321L33.608 22.598H33.5526L31.5284 30H30.6761ZM40.1662 30V23.4545H40.929V30H40.1662ZM40.554 22.3295C40.3977 22.3295 40.2642 22.277 40.1534 22.1719C40.0426 22.0639 39.9872 21.9347 39.9872 21.7841C39.9872 21.6335 40.0426 21.5057 40.1534 21.4006C40.2642 21.2926 40.3977 21.2386 40.554 21.2386C40.7102 21.2386 40.8438 21.2926 40.9545 21.4006C41.0653 21.5057 41.1207 21.6335 41.1207 21.7841C41.1207 21.9347 41.0653 22.0639 40.9545 22.1719C40.8438 22.277 40.7102 22.3295 40.554 22.3295ZM43.6935 21.2727V30H42.935V21.2727H43.6935ZM46.4592 21.2727V30H45.7006V21.2727H46.4592ZM49.1566 27.5284L49.1481 26.5355H49.3185L52.3867 23.4545H53.3455L50.3157 26.4886L50.2475 26.5014L49.1566 27.5284ZM48.4663 30V21.2727H49.2248V30H48.4663ZM52.5444 30L49.8853 26.6378L50.4308 26.1136L53.516 30H52.5444ZM57.0455 30.1364C56.4801 30.1364 55.9801 29.9929 55.5455 29.706C55.1136 29.419 54.7756 29.0227 54.5312 28.517C54.2869 28.0085 54.1648 27.4219 54.1648 26.7571C54.1648 26.0866 54.2869 25.4972 54.5312 24.9886C54.7756 24.4773 55.1136 24.0795 55.5455 23.7955C55.9801 23.5085 56.4801 23.3651 57.0455 23.3651C57.6108 23.3651 58.1094 23.5085 58.5412 23.7955C58.973 24.0824 59.3111 24.4801 59.5554 24.9886C59.8026 25.4972 59.9261 26.0866 59.9261 26.7571C59.9261 27.4219 59.804 28.0085 59.5597 28.517C59.3153 29.0227 58.9759 29.419 58.5412 29.706C58.1094 29.9929 57.6108 30.1364 57.0455 30.1364ZM57.0455 29.4418C57.5 29.4418 57.8849 29.3196 58.2003 29.0753C58.5156 28.831 58.7543 28.5057 58.9162 28.0994C59.081 27.6932 59.1634 27.2457 59.1634 26.7571C59.1634 26.2685 59.081 25.8196 58.9162 25.4105C58.7543 25.0014 58.5156 24.6733 58.2003 24.4261C57.8849 24.179 57.5 24.0554 57.0455 24.0554C56.5938 24.0554 56.2088 24.179 55.8906 24.4261C55.5753 24.6733 55.3352 25.0014 55.1705 25.4105C55.0085 25.8196 54.9276 26.2685 54.9276 26.7571C54.9276 27.2457 55.0085 27.6932 55.1705 28.0994C55.3352 28.5057 55.5753 28.831 55.8906 29.0753C56.206 29.3196 56.5909 29.4418 57.0455 29.4418ZM61.5913 30V23.4545H62.3285V24.4602H62.3967C62.5273 24.1222 62.7447 23.8565 63.0487 23.6634C63.3555 23.4673 63.7234 23.3693 64.1523 23.3693C64.604 23.3693 64.9748 23.4759 65.2646 23.6889C65.5572 23.8991 65.7759 24.1889 65.9208 24.5582H65.9762C66.1239 24.1946 66.364 23.9062 66.6964 23.6932C67.0316 23.4773 67.4379 23.3693 67.9151 23.3693C68.5231 23.3693 69.0032 23.5611 69.3555 23.9446C69.7077 24.3253 69.8839 24.8821 69.8839 25.6151V30H69.1254V25.6151C69.1254 25.098 68.9933 24.7102 68.729 24.4517C68.4648 24.1932 68.1168 24.0639 67.685 24.0639C67.185 24.0639 66.8001 24.2173 66.5302 24.5241C66.2603 24.831 66.1254 25.2202 66.1254 25.6918V30H65.3498V25.5469C65.3498 25.1037 65.2262 24.7457 64.979 24.473C64.7319 24.2003 64.3839 24.0639 63.935 24.0639C63.6339 24.0639 63.3626 24.1378 63.1211 24.2855C62.8825 24.4332 62.6935 24.6392 62.5543 24.9034C62.418 25.1648 62.3498 25.4659 62.3498 25.8068V30H61.5913ZM71.892 30V23.4545H72.6293V24.4602H72.6974C72.8281 24.1222 73.0455 23.8565 73.3494 23.6634C73.6563 23.4673 74.0241 23.3693 74.4531 23.3693C74.9048 23.3693 75.2756 23.4759 75.5653 23.6889C75.858 23.8991 76.0767 24.1889 76.2216 24.5582H76.277C76.4247 24.1946 76.6648 23.9062 76.9972 23.6932C77.3324 23.4773 77.7386 23.3693 78.2159 23.3693C78.8239 23.3693 79.304 23.5611 79.6562 23.9446C80.0085 24.3253 80.1847 24.8821 80.1847 25.6151V30H79.4261V25.6151C79.4261 25.098 79.294 24.7102 79.0298 24.4517C78.7656 24.1932 78.4176 24.0639 77.9858 24.0639C77.4858 24.0639 77.1009 24.2173 76.831 24.5241C76.5611 24.831 76.4261 25.2202 76.4261 25.6918V30H75.6506V25.5469C75.6506 25.1037 75.527 24.7457 75.2798 24.473C75.0327 24.2003 74.6847 24.0639 74.2358 24.0639C73.9347 24.0639 73.6634 24.1378 73.4219 24.2855C73.1832 24.4332 72.9943 24.6392 72.8551 24.9034C72.7188 25.1648 72.6506 25.4659 72.6506 25.8068V30H71.892ZM84.8391 30.1364C84.2283 30.1364 83.6999 29.9943 83.2539 29.7102C82.8079 29.4233 82.4627 29.027 82.2184 28.5213C81.9769 28.0128 81.8562 27.4276 81.8562 26.7656C81.8562 26.1065 81.9769 25.5213 82.2184 25.0099C82.4627 24.4957 82.7994 24.0937 83.2283 23.804C83.6602 23.5114 84.1587 23.3651 84.7241 23.3651C85.0792 23.3651 85.4215 23.4304 85.7511 23.5611C86.0806 23.6889 86.3761 23.8864 86.6374 24.1534C86.9016 24.4176 87.1104 24.7514 87.2638 25.1548C87.4173 25.5554 87.494 26.0298 87.494 26.5781V26.9531H82.3803V26.2841H86.7184C86.7184 25.8636 86.6332 25.4858 86.4627 25.1506C86.2951 24.8125 86.0607 24.5455 85.7596 24.3494C85.4613 24.1534 85.1161 24.0554 84.7241 24.0554C84.3093 24.0554 83.9442 24.1662 83.6289 24.3878C83.3136 24.6094 83.0664 24.902 82.8874 25.2656C82.7113 25.6293 82.6218 26.027 82.619 26.4588V26.8594C82.619 27.3793 82.7085 27.8338 82.8874 28.223C83.0692 28.6094 83.3263 28.9091 83.6587 29.1222C83.9911 29.3352 84.3846 29.4418 84.8391 29.4418C85.1488 29.4418 85.4201 29.3935 85.6531 29.2969C85.8888 29.2003 86.0863 29.071 86.2454 28.9091C86.4073 28.7443 86.5295 28.5639 86.6119 28.3679L87.332 28.6023C87.2326 28.8778 87.0692 29.1321 86.842 29.3651C86.6175 29.598 86.3363 29.7855 85.9982 29.9276C85.663 30.0668 85.2766 30.1364 84.8391 30.1364ZM89.924 25.9091V30H89.1655V23.4545H89.9027V24.4815H89.9709C90.1243 24.1463 90.3629 23.8778 90.6868 23.6761C91.0135 23.4716 91.4169 23.3693 91.897 23.3693C92.3374 23.3693 92.7237 23.4616 93.0561 23.6463C93.3913 23.8281 93.6513 24.0966 93.8359 24.4517C94.0234 24.8068 94.1172 25.2429 94.1172 25.7599V30H93.3587V25.8068C93.3587 25.2699 93.2081 24.8452 92.907 24.5327C92.6087 24.2202 92.2081 24.0639 91.7053 24.0639C91.3615 24.0639 91.0561 24.1378 90.7891 24.2855C90.522 24.4332 90.3104 24.6463 90.1541 24.9247C90.0007 25.2003 89.924 25.5284 89.924 25.9091ZM97.3761 28.8068L97.2994 29.2628C97.2511 29.5696 97.1829 29.9077 97.0948 30.277C97.0067 30.6463 96.9158 30.9972 96.8221 31.3295C96.7283 31.6619 96.6474 31.929 96.5792 32.1307H95.9954C96.0323 31.9375 96.0792 31.6918 96.136 31.3935C96.1957 31.0952 96.2567 30.7642 96.3192 30.4006C96.3817 30.0398 96.4386 29.6676 96.4897 29.2841L96.5494 28.8068H97.3761ZM102.917 30V21.2727H105.862C106.43 21.2727 106.903 21.3722 107.281 21.571C107.661 21.7699 107.947 22.0412 108.137 22.3849C108.327 22.7287 108.423 23.1193 108.423 23.5568C108.423 23.9205 108.362 24.2315 108.239 24.4901C108.117 24.7486 107.951 24.9574 107.741 25.1165C107.531 25.2756 107.296 25.3906 107.038 25.4616V25.5298C107.319 25.5497 107.592 25.6491 107.856 25.8281C108.12 26.0043 108.337 26.2514 108.508 26.5696C108.678 26.8878 108.763 27.2685 108.763 27.7116C108.763 28.152 108.665 28.5455 108.469 28.892C108.273 29.2358 107.972 29.5071 107.566 29.706C107.163 29.902 106.648 30 106.023 30H102.917ZM103.714 29.2841H106.023C106.697 29.2841 107.194 29.1349 107.515 28.8366C107.839 28.5384 108.001 28.1634 108.001 27.7116C108.001 27.3793 107.92 27.0781 107.758 26.8082C107.599 26.5355 107.373 26.3196 107.08 26.1605C106.79 26.0014 106.45 25.9219 106.058 25.9219H103.714V29.2841ZM103.714 25.2145H105.934C106.278 25.2145 106.579 25.1435 106.837 25.0014C107.096 24.8594 107.298 24.6634 107.442 24.4134C107.587 24.1634 107.66 23.8778 107.66 23.5568C107.66 23.0937 107.509 22.7173 107.208 22.4276C106.907 22.1349 106.458 21.9886 105.862 21.9886H103.714V25.2145ZM113.175 30.1364C112.564 30.1364 112.036 29.9943 111.59 29.7102C111.144 29.4233 110.799 29.027 110.554 28.5213C110.313 28.0128 110.192 27.4276 110.192 26.7656C110.192 26.1065 110.313 25.5213 110.554 25.0099C110.799 24.4957 111.135 24.0937 111.564 23.804C111.996 23.5114 112.495 23.3651 113.06 23.3651C113.415 23.3651 113.757 23.4304 114.087 23.5611C114.417 23.6889 114.712 23.8864 114.973 24.1534C115.238 24.4176 115.446 24.7514 115.6 25.1548C115.753 25.5554 115.83 26.0298 115.83 26.5781V26.9531H110.716V26.2841H115.054C115.054 25.8636 114.969 25.4858 114.799 25.1506C114.631 24.8125 114.397 24.5455 114.096 24.3494C113.797 24.1534 113.452 24.0554 113.06 24.0554C112.645 24.0554 112.28 24.1662 111.965 24.3878C111.65 24.6094 111.402 24.902 111.223 25.2656C111.047 25.6293 110.958 26.027 110.955 26.4588V26.8594C110.955 27.3793 111.044 27.8338 111.223 28.223C111.405 28.6094 111.662 28.9091 111.995 29.1222C112.327 29.3352 112.721 29.4418 113.175 29.4418C113.485 29.4418 113.756 29.3935 113.989 29.2969C114.225 29.2003 114.422 29.071 114.581 28.9091C114.743 28.7443 114.865 28.5639 114.948 28.3679L115.668 28.6023C115.569 28.8778 115.405 29.1321 115.178 29.3651C114.953 29.598 114.672 29.7855 114.334 29.9276C113.999 30.0668 113.613 30.1364 113.175 30.1364ZM118.26 25.9091V30H117.501V23.4545H118.239V24.4815H118.307C118.46 24.1463 118.699 23.8778 119.023 23.6761C119.349 23.4716 119.753 23.3693 120.233 23.3693C120.673 23.3693 121.06 23.4616 121.392 23.6463C121.727 23.8281 121.987 24.0966 122.172 24.4517C122.359 24.8068 122.453 25.2429 122.453 25.7599V30H121.695V25.8068C121.695 25.2699 121.544 24.8452 121.243 24.5327C120.945 24.2202 120.544 24.0639 120.041 24.0639C119.697 24.0639 119.392 24.1378 119.125 24.2855C118.858 24.4332 118.646 24.6463 118.49 24.9247C118.337 25.2003 118.26 25.5284 118.26 25.9091ZM128.61 27.4986V23.4545H129.368V30H128.61V28.9134H128.55C128.397 29.2486 128.154 29.5284 127.821 29.7528C127.489 29.9744 127.083 30.0852 126.603 30.0852C126.185 30.0852 125.814 29.9943 125.49 29.8125C125.167 29.6278 124.912 29.358 124.728 29.0028C124.543 28.6477 124.451 28.2116 124.451 27.6946V23.4545H125.209V27.6477C125.209 28.1591 125.36 28.571 125.661 28.8835C125.962 29.1932 126.348 29.348 126.82 29.348C127.115 29.348 127.4 29.277 127.672 29.1349C127.945 28.9929 128.169 28.7855 128.346 28.5128C128.522 28.2372 128.61 27.8991 128.61 27.4986ZM133.955 23.4545V24.1151H130.831V23.4545H133.955ZM131.807 21.8864H132.57V28.2912C132.57 28.5639 132.616 28.7784 132.71 28.9347C132.804 29.0881 132.926 29.1974 133.077 29.2628C133.227 29.3253 133.388 29.3565 133.558 29.3565C133.658 29.3565 133.743 29.3509 133.814 29.3395C133.885 29.3253 133.947 29.3111 134.001 29.2969L134.163 29.983C134.089 30.0114 133.999 30.0369 133.891 30.0597C133.783 30.0852 133.649 30.098 133.49 30.098C133.212 30.098 132.943 30.0369 132.685 29.9148C132.429 29.7926 132.219 29.6108 132.054 29.3693C131.889 29.1278 131.807 28.8281 131.807 28.4702V21.8864ZM135.473 30V29.3991L139.257 24.2259V24.1705H135.635V23.4545H140.233V24.081L136.517 29.2287V29.2841H140.369V30H135.473ZM144.499 30.1364C143.888 30.1364 143.36 29.9943 142.914 29.7102C142.468 29.4233 142.123 29.027 141.879 28.5213C141.637 28.0128 141.516 27.4276 141.516 26.7656C141.516 26.1065 141.637 25.5213 141.879 25.0099C142.123 24.4957 142.46 24.0937 142.888 23.804C143.32 23.5114 143.819 23.3651 144.384 23.3651C144.739 23.3651 145.082 23.4304 145.411 23.5611C145.741 23.6889 146.036 23.8864 146.298 24.1534C146.562 24.4176 146.771 24.7514 146.924 25.1548C147.077 25.5554 147.154 26.0298 147.154 26.5781V26.9531H142.04V26.2841H146.379C146.379 25.8636 146.293 25.4858 146.123 25.1506C145.955 24.8125 145.721 24.5455 145.42 24.3494C145.121 24.1534 144.776 24.0554 144.384 24.0554C143.969 24.0554 143.604 24.1662 143.289 24.3878C142.974 24.6094 142.727 24.902 142.548 25.2656C142.371 25.6293 142.282 26.027 142.279 26.4588V26.8594C142.279 27.3793 142.369 27.8338 142.548 28.223C142.729 28.6094 142.987 28.9091 143.319 29.1222C143.651 29.3352 144.045 29.4418 144.499 29.4418C144.809 29.4418 145.08 29.3935 145.313 29.2969C145.549 29.2003 145.746 29.071 145.906 28.9091C146.067 28.7443 146.19 28.5639 146.272 28.3679L146.992 28.6023C146.893 28.8778 146.729 29.1321 146.502 29.3651C146.278 29.598 145.996 29.7855 145.658 29.9276C145.323 30.0668 144.937 30.1364 144.499 30.1364ZM148.826 30V23.4545H149.563V24.4602H149.618C149.749 24.1307 149.976 23.8651 150.3 23.6634C150.627 23.4588 150.996 23.3565 151.408 23.3565C151.471 23.3565 151.54 23.358 151.617 23.3608C151.694 23.3636 151.757 23.3665 151.809 23.3693V24.1406C151.775 24.1349 151.715 24.1264 151.63 24.1151C151.544 24.1037 151.452 24.098 151.353 24.098C151.012 24.098 150.708 24.1705 150.441 24.3153C150.176 24.4574 149.968 24.6548 149.814 24.9077C149.661 25.1605 149.584 25.4489 149.584 25.7727V30H148.826ZM153.397 21.2727L155.813 25.0611H155.869L158.285 21.2727H159.227L156.418 25.6364L159.227 30H158.285L155.869 26.2543H155.813L153.397 30H152.455L155.306 25.6364L152.455 21.2727H153.397ZM159.919 21.2727H160.839L163.426 25.4148H163.503L166.089 21.2727H167.01L163.861 26.2202V30H163.068V26.2202L159.919 21.2727ZM168.162 30V29.3991L173.007 21.9886H168.136V21.2727H173.957V21.8736L169.108 29.2841H174V30H168.162Z" fill="white" fill-opacity="0.8"/>
<path d="M256.367 32H255.393L259.097 21.8182H260.091L263.795 32H262.82L259.629 23.0263H259.559L256.367 32ZM257.068 28.0973H262.119V28.9325H257.068V28.0973ZM265.54 32V21.8182H266.43V25.8203H266.509C266.609 25.5916 266.751 25.3563 266.937 25.1143C267.126 24.8724 267.373 24.6702 267.678 24.5078C267.986 24.3421 268.374 24.2592 268.841 24.2592C269.467 24.2592 270.018 24.425 270.491 24.7564C270.965 25.0845 271.335 25.5452 271.6 26.1385C271.865 26.7285 271.998 27.4162 271.998 28.2017C271.998 28.9905 271.865 29.6816 271.6 30.2749C271.338 30.8681 270.97 31.3305 270.496 31.6619C270.026 31.9934 269.479 32.1591 268.856 32.1591C268.392 32.1591 268.004 32.0762 267.692 31.9105C267.384 31.7448 267.136 31.541 266.947 31.299C266.758 31.0537 266.612 30.8151 266.509 30.5831H266.4V32H265.54ZM266.415 28.1868C266.415 28.8033 266.506 29.3501 266.688 29.8274C266.874 30.3014 267.139 30.6742 267.484 30.946C267.832 31.2145 268.253 31.3487 268.746 31.3487C269.254 31.3487 269.683 31.2095 270.034 30.9311C270.385 30.6494 270.652 30.2699 270.835 29.7926C271.017 29.3153 271.108 28.7801 271.108 28.1868C271.108 27.6001 271.017 27.0715 270.835 26.6009C270.656 26.1302 270.39 25.7573 270.039 25.4822C269.688 25.2038 269.257 25.0646 268.746 25.0646C268.249 25.0646 267.827 25.1989 267.479 25.4673C267.134 25.7325 266.871 26.1004 266.688 26.571C266.506 27.0384 266.415 27.5769 266.415 28.1868ZM273.942 32V24.3636H274.802V25.5369H274.881C275.034 25.1425 275.287 24.8326 275.642 24.6072C276 24.3786 276.429 24.2642 276.93 24.2642C277.457 24.2642 277.889 24.3885 278.227 24.6371C278.569 24.8823 278.824 25.2204 278.993 25.6513H279.058C279.23 25.227 279.51 24.8906 279.898 24.642C280.289 24.3902 280.763 24.2642 281.32 24.2642C282.029 24.2642 282.589 24.4879 283 24.9354C283.411 25.3795 283.616 26.0291 283.616 26.8842V32H282.732V26.8842C282.732 26.281 282.577 25.8286 282.269 25.527C281.961 25.2254 281.555 25.0746 281.051 25.0746C280.468 25.0746 280.019 25.2536 279.704 25.6115C279.389 25.9695 279.232 26.4235 279.232 26.9737V32H278.327V26.8047C278.327 26.2876 278.183 25.87 277.894 25.5518C277.606 25.2337 277.2 25.0746 276.676 25.0746C276.325 25.0746 276.008 25.1607 275.727 25.3331C275.448 25.5054 275.228 25.7457 275.065 26.054C274.906 26.3589 274.827 26.7102 274.827 27.108V32H273.942ZM289.047 32.1591C288.334 32.1591 287.718 31.9934 287.197 31.6619C286.677 31.3272 286.274 30.8648 285.989 30.2749C285.707 29.6816 285.567 28.9988 285.567 28.2266C285.567 27.4576 285.707 26.7749 285.989 26.1783C286.274 25.5784 286.667 25.1094 287.167 24.7713C287.671 24.4299 288.253 24.2592 288.912 24.2592C289.327 24.2592 289.726 24.3355 290.111 24.4879C290.495 24.6371 290.84 24.8674 291.145 25.179C291.453 25.4872 291.697 25.8767 291.876 26.3473C292.055 26.8146 292.144 27.3681 292.144 28.0078V28.4453H286.178V27.6648H291.239C291.239 27.1742 291.14 26.7334 290.941 26.3423C290.745 25.9479 290.472 25.6364 290.121 25.4077C289.773 25.179 289.37 25.0646 288.912 25.0646C288.429 25.0646 288.003 25.1939 287.635 25.4524C287.267 25.7109 286.979 26.0523 286.77 26.4766C286.564 26.9008 286.46 27.3648 286.456 27.8686V28.3359C286.456 28.9425 286.561 29.4728 286.77 29.9268C286.982 30.3776 287.282 30.7273 287.67 30.9759C288.057 31.2244 288.516 31.3487 289.047 31.3487C289.408 31.3487 289.724 31.2924 289.996 31.1797C290.271 31.067 290.502 30.9162 290.687 30.7273C290.876 30.535 291.019 30.3246 291.115 30.0959L291.955 30.3693C291.839 30.6908 291.648 30.9875 291.383 31.2592C291.122 31.531 290.793 31.7498 290.399 31.9155C290.008 32.0779 289.557 32.1591 289.047 32.1591ZM294.979 21.8182V32H294.094V21.8182H294.979ZM300.07 32.1591C299.444 32.1591 298.895 31.9934 298.424 31.6619C297.954 31.3305 297.586 30.8681 297.321 30.2749C297.059 29.6816 296.928 28.9905 296.928 28.2017C296.928 27.4162 297.059 26.7285 297.321 26.1385C297.586 25.5452 297.955 25.0845 298.429 24.7564C298.903 24.425 299.455 24.2592 300.085 24.2592C300.549 24.2592 300.935 24.3421 301.243 24.5078C301.551 24.6702 301.798 24.8724 301.984 25.1143C302.17 25.3563 302.314 25.5916 302.417 25.8203H302.496V21.8182H303.386V32H302.521V30.5831H302.417C302.314 30.8151 302.168 31.0537 301.979 31.299C301.79 31.541 301.54 31.7448 301.228 31.9105C300.92 32.0762 300.534 32.1591 300.07 32.1591ZM300.174 31.3487C300.668 31.3487 301.089 31.2145 301.437 30.946C301.785 30.6742 302.05 30.3014 302.233 29.8274C302.418 29.3501 302.511 28.8033 302.511 28.1868C302.511 27.5769 302.42 27.0384 302.238 26.571C302.055 26.1004 301.79 25.7325 301.442 25.4673C301.094 25.1989 300.672 25.0646 300.174 25.0646C299.664 25.0646 299.233 25.2038 298.882 25.4822C298.534 25.7573 298.269 26.1302 298.086 26.6009C297.907 27.0715 297.818 27.6001 297.818 28.1868C297.818 28.7801 297.909 29.3153 298.091 29.7926C298.274 30.2699 298.539 30.6494 298.887 30.9311C299.238 31.2095 299.667 31.3487 300.174 31.3487ZM308.994 32.1591C308.281 32.1591 307.665 31.9934 307.145 31.6619C306.624 31.3272 306.221 30.8648 305.936 30.2749C305.655 29.6816 305.514 28.9988 305.514 28.2266C305.514 27.4576 305.655 26.7749 305.936 26.1783C306.221 25.5784 306.614 25.1094 307.115 24.7713C307.618 24.4299 308.2 24.2592 308.86 24.2592C309.274 24.2592 309.673 24.3355 310.058 24.4879C310.442 24.6371 310.787 24.8674 311.092 25.179C311.4 25.4872 311.644 25.8767 311.823 26.3473C312.002 26.8146 312.091 27.3681 312.091 28.0078V28.4453H306.125V27.6648H311.186C311.186 27.1742 311.087 26.7334 310.888 26.3423C310.693 25.9479 310.419 25.6364 310.068 25.4077C309.72 25.179 309.317 25.0646 308.86 25.0646C308.376 25.0646 307.95 25.1939 307.582 25.4524C307.214 25.7109 306.926 26.0523 306.717 26.4766C306.511 26.9008 306.407 27.3648 306.404 27.8686V28.3359C306.404 28.9425 306.508 29.4728 306.717 29.9268C306.929 30.3776 307.229 30.7273 307.617 30.9759C308.005 31.2244 308.464 31.3487 308.994 31.3487C309.355 31.3487 309.672 31.2924 309.944 31.1797C310.219 31.067 310.449 30.9162 310.635 30.7273C310.824 30.535 310.966 30.3246 311.062 30.0959L311.902 30.3693C311.786 30.6908 311.596 30.9875 311.331 31.2592C311.069 31.531 310.741 31.7498 310.346 31.9155C309.955 32.0779 309.504 32.1591 308.994 32.1591ZM314.926 27.2273V32H314.041V24.3636H314.901V25.5618H314.981C315.16 25.1707 315.438 24.8575 315.816 24.6222C316.197 24.3835 316.668 24.2642 317.228 24.2642C317.742 24.2642 318.193 24.3719 318.58 24.5874C318.972 24.7995 319.275 25.1127 319.49 25.527C319.709 25.9413 319.818 26.45 319.818 27.0533V32H318.933V27.108C318.933 26.4815 318.758 25.986 318.406 25.6214C318.058 25.2569 317.591 25.0746 317.004 25.0746C316.603 25.0746 316.247 25.1607 315.936 25.3331C315.624 25.5054 315.377 25.754 315.195 26.0788C315.016 26.4003 314.926 26.7831 314.926 27.2273Z" fill="white" fill-opacity="0.8"/>
<path d="M346 19H352C352.55 19 353 18.55 353 18C353 17.45 352.55 17 352 17H346C344.9 17 344 17.9 344 19V33C344 34.1 344.9 35 346 35H352C352.55 35 353 34.55 353 34C353 33.45 352.55 33 352 33H346V19Z" fill="white" fill-opacity="0.8"/>
<path d="M361.65 25.65L358.86 22.86C358.79 22.7886 358.701 22.7395 358.604 22.7191C358.506 22.6987 358.404 22.7078 358.312 22.7454C358.22 22.783 358.141 22.8473 358.085 22.9301C358.03 23.0128 358 23.1103 358 23.21V25H351C350.45 25 350 25.45 350 26C350 26.55 350.45 27 351 27H358V28.79C358 29.24 358.54 29.46 358.85 29.14L361.64 26.35C361.84 26.16 361.84 25.84 361.65 25.65Z" fill="white" fill-opacity="0.8"/>
<rect x="239.5" y="11.5" width="141" height="29" rx="14.5" stroke="white" stroke-opacity="0.8"/>
<defs>
<linearGradient id="paint0_linear_33_789" x1="344.021" y1="75.631" x2="277.843" y2="268.734" gradientUnits="userSpaceOnUse">
<stop stop-color="#00FFD1"/>
<stop offset="1" stop-color="#00BB61"/>
</linearGradient>
<linearGradient id="paint1_linear_33_789" x1="195" y1="-3.35574e-07" x2="195" y2="844.5" gradientUnits="userSpaceOnUse">
<stop stop-color="#30B3D0"/>
<stop offset="1" stop-color="#007EC5"/>
</linearGradient>
<clipPath id="clip0_33_789">
<rect width="87" height="87" fill="white" transform="translate(57 86)"/>
</clipPath>
<clipPath id="clip1_33_789">
<rect width="87" height="87" fill="white" transform="translate(57 203)"/>
</clipPath>
<clipPath id="clip2_33_789">
<rect width="87" height="87" fill="white" transform="translate(57 320)"/>
</clipPath>
<clipPath id="clip3_33_789">
<rect width="87" height="87" fill="white" transform="translate(57 437)"/>
</clipPath>
<clipPath id="clip4_33_789">
<rect width="87" height="87" fill="white" transform="translate(57 554)"/>
</clipPath>
<clipPath id="clip5_33_789">
<rect width="87" height="87" fill="white" transform="translate(57 671)"/>
</clipPath>
</defs>
</svg>
